<svg width="1340" height="919" viewBox="0 0 1340 919" fill="none" xmlns="http://www.w3.org/2000/svg">
<path d="M0 367.2H46.1591V413.35H0V367.2Z" fill="white"/>
<path d="M0 413.35H46.1591V459.5H0V413.35Z" fill="white"/>
<path d="M0 459.5H46.1591V505.65H0V459.5Z" fill="white"/>
<path d="M0 505.65H46.1591V551.8H0V505.65Z" fill="white"/>
<path d="M0 551.8H46.1591V597.95H0V551.8Z" fill="white"/>
<path d="M0 597.95H46.1591V644.1H0V597.95Z" fill="white"/>
<path d="M0 644.1H46.1591V690.25H0V644.1Z" fill="white"/>
<path d="M0 690.25H46.1591V736.4H0V690.25Z" fill="white"/>
<path d="M0 736.4H46.1591V782.55H0V736.4Z" fill="white"/>
<path d="M0 782.55H46.1591V828.7H0V782.55Z" fill="white"/>
<path d="M0 828.7H46.1591V874.85H0V828.7Z" fill="white"/>
<path d="M0 874.85H46.1591V921H15C6.71574 921 0 914.284 0 906V874.85Z" fill="white"/>
<path d="M46.1591 367.2H92.3182V413.35H46.1591V367.2Z" fill="white"/>
<path d="M46.1591 413.35H92.3182V459.5H46.1591V413.35Z" fill="white"/>
<path d="M46.1591 459.5H92.3182V505.65H46.1591V459.5Z" fill="white"/>
<path d="M46.1591 505.65H92.3182V551.8H46.1591V505.65Z" fill="white"/>
<path d="M46.1591 551.8H92.3182V597.95H46.1591V551.8Z" fill="white"/>
<path d="M46.1591 597.95H92.3182V644.1H46.1591V597.95Z" fill="white"/>
<path d="M46.1591 644.1H92.3182V690.25H46.1591V644.1Z" fill="white"/>
<path d="M46.1591 690.25H92.3182V736.4H46.1591V690.25Z" fill="white"/>
<path d="M46.1591 736.4H92.3182V782.55H46.1591V736.4Z" fill="white"/>
<path d="M46.1591 782.55H92.3182V828.7H46.1591V782.55Z" fill="white"/>
<path d="M46.1591 828.7H92.3182V874.85H46.1591V828.7Z" fill="white"/>
<path d="M46.1591 874.85H92.3182V921H46.1591V874.85Z" fill="white"/>
<path d="M92.3182 367.2H138.477V413.35H92.3182V367.2Z" fill="white"/>
<path d="M92.3182 413.35H138.477V459.5H92.3182V413.35Z" fill="white"/>
<path d="M92.3182 459.5H138.477V505.65H92.3182V459.5Z" fill="white"/>
<path d="M92.3182 505.65H138.477V551.8H92.3182V505.65Z" fill="white"/>
<path d="M92.3182 551.8H138.477V597.95H92.3182V551.8Z" fill="white"/>
<path d="M92.3182 597.95H138.477V644.1H92.3182V597.95Z" fill="white"/>
<path d="M92.3182 644.1H138.477V690.25H92.3182V644.1Z" fill="white"/>
<path d="M92.3182 690.25H138.477V736.4H92.3182V690.25Z" fill="white"/>
<path d="M92.3182 736.4H138.477V782.55H92.3182V736.4Z" fill="white"/>
<path d="M92.3182 782.55H138.477V828.7H92.3182V782.55Z" fill="white"/>
<path d="M92.3182 828.7H138.477V874.85H92.3182V828.7Z" fill="white"/>
<path d="M92.3182 874.85H138.477V921H92.3182V874.85Z" fill="white"/>
<path d="M138.477 367.2H184.636V413.35H138.477V367.2Z" fill="white"/>
<path d="M138.477 413.35H184.636V459.5H138.477V413.35Z" fill="white"/>
<path d="M138.477 459.5H184.636V505.65H138.477V459.5Z" fill="white"/>
<path d="M138.477 505.65H184.636V551.8H138.477V505.65Z" fill="white"/>
<path d="M138.477 551.8H184.636V597.95H138.477V551.8Z" fill="white"/>
<path d="M138.477 597.95H184.636V644.1H138.477V597.95Z" fill="white"/>
<path d="M138.477 644.1H184.636V690.25H138.477V644.1Z" fill="white"/>
<path d="M138.477 690.25H184.636V736.4H138.477V690.25Z" fill="white"/>
<path d="M138.477 736.4H184.636V782.55H138.477V736.4Z" fill="white"/>
<path d="M138.477 782.55H184.636V828.7H138.477V782.55Z" fill="white"/>
<path d="M138.477 828.7H184.636V874.85H138.477V828.7Z" fill="white"/>
<path d="M138.477 874.85H184.636V921H138.477V874.85Z" fill="white"/>
<path d="M184.636 367.2H230.795V413.35H184.636V367.2Z" fill="white"/>
<path d="M184.636 413.35H230.795V459.5H184.636V413.35Z" fill="white"/>
<path d="M184.636 459.5H230.795V505.65H184.636V459.5Z" fill="white"/>
<path d="M184.636 505.65H230.795V551.8H184.636V505.65Z" fill="white"/>
<path d="M184.636 551.8H230.795V597.95H184.636V551.8Z" fill="white"/>
<path d="M184.636 597.95H230.795V644.1H184.636V597.95Z" fill="white"/>
<path d="M184.636 644.1H230.795V690.25H184.636V644.1Z" fill="white"/>
<path d="M184.636 690.25H230.795V736.4H184.636V690.25Z" fill="white"/>
<path d="M184.636 736.4H230.795V782.55H184.636V736.4Z" fill="white"/>
<path d="M184.636 782.55H230.795V828.7H184.636V782.55Z" fill="white"/>
<path d="M184.636 828.7H230.795V874.85H184.636V828.7Z" fill="white"/>
<path d="M184.636 874.85H230.795V921H184.636V874.85Z" fill="white"/>
<path d="M230.795 367.2H276.955V413.35H230.795V367.2Z" fill="white"/>
<path d="M230.795 413.35H276.955V459.5H230.795V413.35Z" fill="white"/>
<path d="M230.795 459.5H276.955V505.65H230.795V459.5Z" fill="white"/>
<path d="M230.795 505.65H276.955V551.8H230.795V505.65Z" fill="white"/>
<path d="M230.795 551.8H276.955V597.95H230.795V551.8Z" fill="white"/>
<path d="M230.795 597.95H276.955V644.1H230.795V597.95Z" fill="white"/>
<path d="M230.795 644.1H276.955V690.25H230.795V644.1Z" fill="white"/>
<path d="M230.795 690.25H276.955V736.4H230.795V690.25Z" fill="white"/>
<path d="M230.795 736.4H276.955V782.55H230.795V736.4Z" fill="white"/>
<path d="M230.795 782.55H276.955V828.7H230.795V782.55Z" fill="white"/>
<path d="M230.795 828.7H276.955V874.85H230.795V828.7Z" fill="white"/>
<path d="M230.795 874.85H276.955V921H230.795V874.85Z" fill="white"/>
<path d="M276.955 367.2H323.114V413.35H276.955V367.2Z" fill="white"/>
<path d="M276.955 413.35H323.114V459.5H276.955V413.35Z" fill="white"/>
<path d="M276.955 459.5H323.114V505.65H276.955V459.5Z" fill="white"/>
<path d="M276.955 505.65H323.114V551.8H276.955V505.65Z" fill="white"/>
<path d="M276.955 551.8H323.114V597.95H276.955V551.8Z" fill="white"/>
<path d="M276.955 597.95H323.114V644.1H276.955V597.95Z" fill="white"/>
<path d="M276.955 644.1H323.114V690.25H276.955V644.1Z" fill="white"/>
<path d="M276.955 690.25H323.114V736.4H276.955V690.25Z" fill="white"/>
<path d="M276.955 736.4H323.114V782.55H276.955V736.4Z" fill="white"/>
<path d="M276.955 782.55H323.114V828.7H276.955V782.55Z" fill="white"/>
<path d="M276.955 828.7H323.114V874.85H276.955V828.7Z" fill="white"/>
<path d="M276.955 874.85H323.114V921H276.955V874.85Z" fill="white"/>
<path d="M323.114 367.2H369.273V413.35H323.114V367.2Z" fill="white"/>
<path d="M323.114 459.5H369.273V505.65H323.114V459.5Z" fill="white"/>
<path d="M323.114 505.65H369.273V551.8H323.114V505.65Z" fill="white"/>
<path d="M323.114 551.8H369.273V597.95H323.114V551.8Z" fill="white"/>
<path d="M323.114 597.95H369.273V644.1H323.114V597.95Z" fill="white"/>
<path d="M323.114 644.1H369.273V690.25H323.114V644.1Z" fill="white"/>
<path d="M323.114 690.25H369.273V736.4H323.114V690.25Z" fill="white"/>
<path d="M323.114 736.4H369.273V782.55H323.114V736.4Z" fill="white"/>
<path d="M323.114 782.55H369.273V828.7H323.114V782.55Z" fill="white"/>
<path d="M323.114 828.7H369.273V874.85H323.114V828.7Z" fill="white"/>
<path d="M323.114 874.85H369.273V921H323.114V874.85Z" fill="white"/>
<path d="M369.273 367.2H415.432V413.35H369.273V367.2Z" fill="white"/>
<path d="M369.273 413.35H415.432V459.5H369.273V413.35Z" fill="white"/>
<path d="M369.273 459.5H415.432V505.65H369.273V459.5Z" fill="white"/>
<path d="M369.273 505.65H415.432V551.8H369.273V505.65Z" fill="white"/>
<path d="M369.273 551.8H415.432C415.432 551.8 415.432 579.927 415.432 597.95C397.406 597.95 369.273 597.95 369.273 597.95V551.8Z" fill="white"/>
<path d="M369.273 597.95C369.273 597.95 397.406 597.95 415.432 597.95C415.432 615.973 415.432 644.1 415.432 644.1H369.273V597.95Z" fill="white"/>
<path d="M369.273 644.1H415.432V690.25H369.273V644.1Z" fill="white"/>
<path d="M369.273 690.25H415.432V736.4H369.273V690.25Z" fill="white"/>
<path d="M369.273 736.4H415.432V782.55H369.273V736.4Z" fill="white"/>
<path d="M369.273 782.55H415.432V828.7H369.273V782.55Z" fill="white"/>
<path d="M369.273 828.7H415.432V874.85H369.273V828.7Z" fill="white"/>
<path d="M369.273 874.85H415.432V921H369.273V874.85Z" fill="white"/>
<path d="M415.432 367.2H461.591V413.35H415.432V367.2Z" fill="white"/>
<path d="M415.432 413.35H461.591V459.5H415.432V413.35Z" fill="white"/>
<path d="M415.432 459.5H461.591V505.65H415.432V459.5Z" fill="white"/>
<path d="M415.432 505.65H461.591V551.8H415.432V505.65Z" fill="white"/>
<path d="M415.432 551.8H461.591V597.95C461.591 597.95 433.458 597.95 415.432 597.95C415.432 579.927 415.432 551.8 415.432 551.8Z" fill="white"/>
<path d="M415.432 597.95C433.458 597.95 461.591 597.95 461.591 597.95V644.1H415.432C415.432 644.1 415.432 615.973 415.432 597.95Z" fill="white"/>
<path d="M415.432 644.1H461.591V690.25H415.432V644.1Z" fill="white"/>
<path d="M415.432 690.25H461.591V736.4H415.432V690.25Z" fill="white"/>
<path d="M415.432 736.4H461.591V782.55H415.432V736.4Z" fill="white"/>
<path d="M415.432 782.55H461.591V828.7H415.432V782.55Z" fill="white"/>
<path d="M415.432 828.7H461.591V874.85H415.432V828.7Z" fill="white"/>
<path d="M415.432 874.85H461.591V921H415.432V874.85Z" fill="white"/>
<path d="M461.591 367.2H507.75V413.35H461.591V367.2Z" fill="white"/>
<path d="M461.591 459.5H507.75V505.65H461.591V459.5Z" fill="white"/>
<path d="M461.591 505.65H507.75V551.8H461.591V505.65Z" fill="white"/>
<path d="M461.591 551.8H507.75V597.95H461.591V551.8Z" fill="white"/>
<path d="M461.591 597.95H507.75V644.1H461.591V597.95Z" fill="white"/>
<path d="M461.591 644.1H507.75V690.25H461.591V644.1Z" fill="white"/>
<path d="M461.591 690.25H507.75V736.4H461.591V690.25Z" fill="white"/>
<path d="M461.591 736.4H507.75V782.55H461.591V736.4Z" fill="white"/>
<path d="M461.591 782.55H507.75V828.7H461.591V782.55Z" fill="white"/>
<path d="M461.591 828.7H507.75V874.85H461.591V828.7Z" fill="white"/>
<path d="M461.591 874.85H507.75V921H461.591V874.85Z" fill="white"/>
<path d="M507.75 367.2H553.909V413.35H507.75V367.2Z" fill="white"/>
<path d="M507.75 413.35H553.909V459.5H507.75V413.35Z" fill="white"/>
<path d="M507.75 459.5H553.909V505.65H507.75V459.5Z" fill="white"/>
<path d="M507.75 505.65H553.909V551.8H507.75V505.65Z" fill="white"/>
<path d="M507.75 551.8H553.909V597.95H507.75V551.8Z" fill="white"/>
<path d="M507.75 597.95H553.909V644.1H507.75V597.95Z" fill="white"/>
<path d="M507.75 644.1H553.909V690.25H507.75V644.1Z" fill="white"/>
<path d="M507.75 690.25H553.909V736.4H507.75V690.25Z" fill="white"/>
<path d="M507.75 736.4H553.909V782.55H507.75V736.4Z" fill="white"/>
<path d="M507.75 782.55H553.909V828.7H507.75V782.55Z" fill="white"/>
<path d="M507.75 828.7H553.909V874.85H507.75V828.7Z" fill="white"/>
<path d="M507.75 874.85H553.909V921H507.75V874.85Z" fill="white"/>
<path d="M553.909 367.2H600.068V413.35H553.909V367.2Z" fill="white"/>
<path d="M553.909 413.35H600.068V459.5H553.909V413.35Z" fill="white"/>
<path d="M553.909 459.5H600.068V505.65H553.909V459.5Z" fill="white"/>
<path d="M553.909 505.65H600.068V551.8H553.909V505.65Z" fill="white"/>
<path d="M553.909 551.8H600.068V597.95H553.909V551.8Z" fill="white"/>
<path d="M553.909 597.95H600.068V644.1H553.909V597.95Z" fill="white"/>
<path d="M553.909 644.1H600.068V690.25H553.909V644.1Z" fill="white"/>
<path d="M553.909 690.25H600.068V736.4H553.909V690.25Z" fill="white"/>
<path d="M553.909 736.4H600.068V782.55H553.909V736.4Z" fill="white"/>
<path d="M553.909 782.55H600.068V828.7H553.909V782.55Z" fill="white"/>
<path d="M553.909 828.7H600.068V874.85H553.909V828.7Z" fill="white"/>
<path d="M553.909 874.85H600.068V921H553.909V874.85Z" fill="white"/>
<path d="M600.068 367.2H646.227V413.35H600.068V367.2Z" fill="white"/>
<path d="M600.068 413.35H646.227V459.5H600.068V413.35Z" fill="white"/>
<path d="M600.068 459.5H646.227V505.65H600.068V459.5Z" fill="white"/>
<path d="M600.068 505.65H646.227V551.8H600.068V505.65Z" fill="white"/>
<path d="M600.068 551.8H646.227V597.95H600.068V551.8Z" fill="white"/>
<path d="M600.068 597.95H646.227V644.1H600.068V597.95Z" fill="white"/>
<path d="M600.068 644.1H646.227V690.25H600.068V644.1Z" fill="white"/>
<path d="M600.068 690.25H646.227V736.4H600.068V690.25Z" fill="white"/>
<path d="M600.068 736.4H646.227V782.55H600.068V736.4Z" fill="white"/>
<path d="M600.068 782.55H646.227V828.7H600.068V782.55Z" fill="white"/>
<path d="M600.068 828.7H646.227V874.85H600.068V828.7Z" fill="white"/>
<path d="M600.068 874.85H646.227V921H600.068V874.85Z" fill="white"/>
<path d="M646.227 367.2H692.386V413.35H646.227V367.2Z" fill="white"/>
<path d="M646.227 413.35H692.386V459.5H646.227V413.35Z" fill="white"/>
<path d="M646.227 459.5H692.386V505.65H646.227V459.5Z" fill="white"/>
<path d="M646.227 505.65H692.386V551.8H646.227V505.65Z" fill="white"/>
<path d="M646.227 551.8H692.386V597.95H646.227V551.8Z" fill="white"/>
<path d="M646.227 597.95H692.386V644.1H646.227V597.95Z" fill="white"/>
<path d="M646.227 828.7H692.386V874.85H646.227V828.7Z" fill="white"/>
<path d="M646.227 874.85H692.386V921H646.227V874.85Z" fill="white"/>
<path d="M692.386 413.35H738.545V459.5H692.386V413.35Z" fill="white"/>
<path d="M692.386 459.5H738.545V505.65H692.386V459.5Z" fill="white"/>
<path d="M692.386 505.65H738.545V551.8H692.386V505.65Z" fill="white"/>
<path d="M692.386 597.95H738.545V644.1H692.386V597.95Z" fill="white"/>
<path d="M692.386 644.1H738.545V690.25H692.386V644.1Z" fill="white"/>
<path d="M692.386 690.25H738.545V736.4H692.386V690.25Z" fill="white"/>
<path d="M692.386 736.4H738.545V782.55H692.386V736.4Z" fill="white"/>
<path d="M692.386 782.55H738.545V828.7H692.386V782.55Z" fill="white"/>
<path d="M692.386 828.7H738.545V874.85H692.386V828.7Z" fill="white"/>
<path d="M692.386 874.85H738.545V921H692.386V874.85Z" fill="white"/>
<path d="M738.545 367.2H784.705V413.35H738.545V367.2Z" fill="white"/>
<path d="M738.545 413.35H784.705V459.5H738.545V413.35Z" fill="white"/>
<path d="M738.545 505.65H784.705V551.8H738.545V505.65Z" fill="white"/>
<path d="M738.545 551.8H784.705V597.95H738.545V551.8Z" fill="white"/>
<path d="M738.545 597.95H784.705V644.1H738.545V597.95Z" fill="white"/>
<path d="M738.545 644.1H784.705V690.25H738.545V644.1Z" fill="white"/>
<path d="M738.545 690.25H784.705V736.4H738.545V690.25Z" fill="white"/>
<path d="M738.545 736.4H784.705V782.55H738.545V736.4Z" fill="white"/>
<path d="M738.545 782.55H784.705V828.7H738.545V782.55Z" fill="white"/>
<path d="M738.545 828.7H784.705V874.85H738.545V828.7Z" fill="white"/>
<path d="M738.545 874.85H784.705V921H738.545V874.85Z" fill="white"/>
<path d="M784.705 367.2H830.864V413.35H784.705V367.2Z" fill="white"/>
<path d="M784.705 413.35H830.864V459.5H784.705V413.35Z" fill="white"/>
<path d="M784.705 459.5H830.864V505.65H784.705V459.5Z" fill="white"/>
<path d="M784.705 505.65H830.864V551.8H784.705V505.65Z" fill="white"/>
<path d="M784.705 551.8H830.864V597.95H784.705V551.8Z" fill="white"/>
<path d="M784.705 597.95H830.864V644.1H784.705V597.95Z" fill="white"/>
<path d="M784.705 644.1H830.864V690.25H784.705V644.1Z" fill="white"/>
<path d="M784.705 690.25H830.864V736.4H784.705V690.25Z" fill="white"/>
<path d="M784.705 736.4H830.864V782.55H784.705V736.4Z" fill="white"/>
<path d="M784.705 782.55H830.864V828.7H784.705V782.55Z" fill="white"/>
<path d="M784.705 828.7H830.864V874.85H784.705V828.7Z" fill="white"/>
<path d="M784.705 874.85H830.864V921H784.705V874.85Z" fill="white"/>
<path d="M830.864 367.2H877.023V413.35H830.864V367.2Z" fill="white"/>
<path d="M830.864 413.35H877.023V459.5H830.864V413.35Z" fill="white"/>
<path d="M830.864 459.5H877.023V505.65H830.864V459.5Z" fill="white"/>
<path d="M830.864 505.65H877.023V551.8H830.864V505.65Z" fill="white"/>
<path d="M830.864 551.8H877.023V597.95H830.864V551.8Z" fill="white"/>
<path d="M830.864 597.95H877.023V644.1H830.864V597.95Z" fill="white"/>
<path d="M830.864 644.1H877.023V690.25H830.864V644.1Z" fill="white"/>
<path d="M830.864 690.25H877.023V736.4H830.864V690.25Z" fill="white"/>
<path d="M830.864 736.4H877.023V782.55H830.864V736.4Z" fill="white"/>
<path d="M830.864 782.55H877.023V828.7H830.864V782.55Z" fill="white"/>
<path d="M830.864 828.7H877.023V874.85H830.864V828.7Z" fill="white"/>
<path d="M830.864 874.85H877.023V921H830.864V874.85Z" fill="white"/>
<path d="M877.023 367.2H923.182V413.35H877.023V367.2Z" fill="white"/>
<path d="M877.023 459.5H923.182V505.65H877.023V459.5Z" fill="white"/>
<path d="M877.023 505.65H923.182V551.8H877.023V505.65Z" fill="white"/>
<path d="M877.023 551.8H923.182V597.95H877.023V551.8Z" fill="white"/>
<path d="M877.023 597.95H923.182V644.1H877.023V597.95Z" fill="white"/>
<path d="M877.023 644.1H923.182V690.25H877.023V644.1Z" fill="white"/>
<path d="M877.023 690.25H923.182V736.4H877.023V690.25Z" fill="white"/>
<path d="M877.023 736.4H923.182V782.55H877.023V736.4Z" fill="white"/>
<path d="M877.023 782.55H923.182V828.7H877.023V782.55Z" fill="white"/>
<path d="M877.023 828.7H923.182V874.85H877.023V828.7Z" fill="white"/>
<path d="M877.023 874.85H923.182V921H877.023V874.85Z" fill="white"/>
<path d="M923.182 367.2H969.341V413.35H923.182V367.2Z" fill="white"/>
<path d="M923.182 413.35H969.341V459.5H923.182V413.35Z" fill="white"/>
<path d="M923.182 459.5H969.341V505.65H923.182V459.5Z" fill="white"/>
<path d="M923.182 505.65H969.341V551.8H923.182V505.65Z" fill="white"/>
<path d="M923.182 551.8H969.341V597.95H923.182V551.8Z" fill="white"/>
<path d="M923.182 597.95H969.341V644.1H923.182V597.95Z" fill="white"/>
<path d="M923.182 644.1H969.341V690.25H923.182V644.1Z" fill="white"/>
<path d="M923.182 690.25H969.341V736.4H923.182V690.25Z" fill="white"/>
<path d="M923.182 736.4H969.341V782.55H923.182V736.4Z" fill="white"/>
<path d="M923.182 782.55H969.341V828.7H923.182V782.55Z" fill="white"/>
<path d="M923.182 828.7H969.341V874.85H923.182V828.7Z" fill="white"/>
<path d="M923.182 874.85H969.341V921H923.182V874.85Z" fill="white"/>
<path d="M969.341 367.2H1015.5V413.35H969.341V367.2Z" fill="white"/>
<path d="M969.341 413.35H1015.5V459.5H969.341V413.35Z" fill="white"/>
<path d="M969.341 459.5H1015.5V505.65H969.341V459.5Z" fill="white"/>
<path d="M969.341 505.65H1015.5V551.8H969.341V505.65Z" fill="white"/>
<path d="M969.341 551.8H1015.5V597.95H969.341V551.8Z" fill="white"/>
<path d="M969.341 597.95H1015.5V644.1H969.341V597.95Z" fill="white"/>
<path d="M969.341 644.1H1015.5V690.25H969.341V644.1Z" fill="white"/>
<path d="M969.341 690.25H1015.5V736.4H969.341V690.25Z" fill="white"/>
<path d="M969.341 736.4H1015.5V782.55H969.341V736.4Z" fill="white"/>
<path d="M969.341 782.55H1015.5V828.7H969.341V782.55Z" fill="white"/>
<path d="M969.341 828.7H1015.5V874.85H969.341V828.7Z" fill="white"/>
<path d="M969.341 874.85H1015.5V921H969.341V874.85Z" fill="white"/>
<path d="M1015.5 367.2H1061.66V413.35H1015.5V367.2Z" fill="white"/>
<path d="M1015.5 413.35H1061.66V459.5H1015.5V413.35Z" fill="white"/>
<path d="M1015.5 459.5H1061.66V505.65H1015.5V459.5Z" fill="white"/>
<path d="M1015.5 505.65H1061.66V551.8H1015.5V505.65Z" fill="white"/>
<path d="M1015.5 551.8H1061.66V597.95H1015.5V551.8Z" fill="white"/>
<path d="M1015.5 597.95H1061.66V644.1H1015.5V597.95Z" fill="white"/>
<path d="M1015.5 644.1H1061.66V690.25H1015.5V644.1Z" fill="white"/>
<path d="M1015.5 690.25H1061.66V736.4H1015.5V690.25Z" fill="white"/>
<path d="M1015.5 736.4H1061.66V782.55H1015.5V736.4Z" fill="white"/>
<path d="M1015.5 782.55H1061.66V828.7H1015.5V782.55Z" fill="white"/>
<path d="M1015.5 828.7H1061.66V874.85H1015.5V828.7Z" fill="white"/>
<path d="M1015.5 874.85H1061.66V921H1015.5V874.85Z" fill="white"/>
<path d="M1061.66 367.2H1107.82V413.35H1061.66V367.2Z" fill="white"/>
<path d="M1061.66 413.35H1107.82V459.5H1061.66V413.35Z" fill="white"/>
<path d="M1061.66 459.5H1107.82V505.65H1061.66V459.5Z" fill="white"/>
<path d="M1061.66 505.65H1107.82V551.8H1061.66V505.65Z" fill="white"/>
<path d="M1061.66 551.8H1107.82V597.95H1061.66V551.8Z" fill="white"/>
<path d="M1061.66 597.95H1107.82V644.1H1061.66V597.95Z" fill="white"/>
<path d="M1061.66 644.1H1107.82V690.25H1061.66V644.1Z" fill="white"/>
<path d="M1061.66 690.25H1107.82V736.4H1061.66V690.25Z" fill="white"/>
<path d="M1061.66 736.4H1107.82V782.55H1061.66V736.4Z" fill="white"/>
<path d="M1061.66 782.55H1107.82V828.7H1061.66V782.55Z" fill="white"/>
<path d="M1061.66 828.7H1107.82V874.85H1061.66V828.7Z" fill="white"/>
<path d="M1061.66 874.85H1107.82V921H1061.66V874.85Z" fill="white"/>
<path d="M1107.82 367.2H1153.98V413.35H1107.82V367.2Z" fill="white"/>
<path d="M1107.82 413.35H1153.98V459.5H1107.82V413.35Z" fill="white"/>
<path d="M1107.82 459.5H1153.98V505.65H1107.82V459.5Z" fill="white"/>
<path d="M1107.82 505.65H1153.98V551.8H1107.82V505.65Z" fill="white"/>
<path d="M1107.82 551.8H1153.98V597.95H1107.82V551.8Z" fill="white"/>
<path d="M1107.82 597.95H1153.98V644.1H1107.82V597.95Z" fill="white"/>
<path d="M1107.82 644.1H1153.98V690.25H1107.82V644.1Z" fill="white"/>
<path d="M1107.82 690.25H1153.98V736.4H1107.82V690.25Z" fill="white"/>
<path d="M1107.82 736.4H1153.98V782.55H1107.82V736.4Z" fill="white"/>
<path d="M1107.82 782.55H1153.98V828.7H1107.82V782.55Z" fill="white"/>
<path d="M1107.82 828.7H1153.98V874.85H1107.82V828.7Z" fill="white"/>
<path d="M1107.82 874.85H1153.98V921H1107.82V874.85Z" fill="white"/>
<path d="M1153.98 367.2H1200.14V413.35H1153.98V367.2Z" fill="white"/>
<path d="M1153.98 413.35H1200.14V459.5H1153.98V413.35Z" fill="white"/>
<path d="M1153.98 459.5H1200.14V505.65H1153.98V459.5Z" fill="white"/>
<path d="M1153.98 505.65H1200.14V551.8H1153.98V505.65Z" fill="white"/>
<path d="M1153.98 551.8H1200.14V597.95H1153.98V551.8Z" fill="white"/>
<path d="M1153.98 597.95H1200.14V644.1H1153.98V597.95Z" fill="white"/>
<path d="M1153.98 644.1H1200.14V690.25H1153.98V644.1Z" fill="white"/>
<path d="M1153.98 690.25H1200.14V736.4H1153.98V690.25Z" fill="white"/>
<path d="M1153.98 736.4H1200.14V782.55H1153.98V736.4Z" fill="white"/>
<path d="M1153.98 782.55H1200.14V828.7H1153.98V782.55Z" fill="white"/>
<path d="M1153.98 828.7H1200.14V874.85H1153.98V828.7Z" fill="white"/>
<path d="M1153.98 874.85H1200.14V921H1153.98V874.85Z" fill="white"/>
<path d="M1200.14 367.2H1246.3V413.35H1200.14V367.2Z" fill="white"/>
<path d="M1200.14 413.35H1246.3V459.5H1200.14V413.35Z" fill="white"/>
<path d="M1200.14 459.5H1246.3V505.65H1200.14V459.5Z" fill="white"/>
<path d="M1200.14 505.65H1246.3V551.8H1200.14V505.65Z" fill="white"/>
<path d="M1200.14 551.8H1246.3V597.95H1200.14V551.8Z" fill="white"/>
<path d="M1200.14 597.95H1246.3V644.1H1200.14V597.95Z" fill="white"/>
<path d="M1200.14 644.1H1246.3V690.25H1200.14V644.1Z" fill="white"/>
<path d="M1200.14 690.25H1246.3V736.4H1200.14V690.25Z" fill="white"/>
<path d="M1200.14 736.4H1246.3V782.55H1200.14V736.4Z" fill="white"/>
<path d="M1200.14 782.55H1246.3V828.7H1200.14V782.55Z" fill="white"/>
<path d="M1200.14 828.7H1246.3V874.85H1200.14V828.7Z" fill="white"/>
<path d="M1200.14 874.85H1246.3V921H1200.14V874.85Z" fill="white"/>
<path d="M1246.3 367.2H1292.45V413.35H1246.3V367.2Z" fill="white"/>
<path d="M1246.3 413.35H1292.45V459.5H1246.3V413.35Z" fill="white"/>
<path d="M1246.3 459.5H1292.45V505.65H1246.3V459.5Z" fill="white"/>
<path d="M1246.3 505.65H1292.45V551.8H1246.3V505.65Z" fill="white"/>
<path d="M1246.3 551.8H1292.45V597.95H1246.3V551.8Z" fill="white"/>
<path d="M1246.3 597.95H1292.45V644.1H1246.3V597.95Z" fill="white"/>
<path d="M1246.3 644.1H1292.45V690.25H1246.3V644.1Z" fill="white"/>
<path d="M1246.3 690.25H1292.45V736.4H1246.3V690.25Z" fill="white"/>
<path d="M1246.3 736.4H1292.45V782.55H1246.3V736.4Z" fill="white"/>
<path d="M1246.3 782.55H1292.45V828.7H1246.3V782.55Z" fill="white"/>
<path d="M1246.3 828.7H1292.45V874.85H1246.3V828.7Z" fill="white"/>
<path d="M1246.3 874.85H1292.45V921H1246.3V874.85Z" fill="white"/>
<path d="M1292.45 367.2H1338.61V413.35H1292.45V367.2Z" fill="white"/>
<path d="M1292.45 413.35H1338.61V459.5H1292.45V413.35Z" fill="white"/>
<path d="M1292.45 459.5H1338.61V505.65H1292.45V459.5Z" fill="white"/>
<path d="M1292.45 505.65H1338.61V551.8H1292.45V505.65Z" fill="white"/>
<path d="M1292.45 551.8H1338.61V597.95H1292.45V551.8Z" fill="white"/>
<path d="M1292.45 597.95H1338.61V644.1H1292.45V597.95Z" fill="white"/>
<path d="M1292.45 644.1H1338.61V690.25H1292.45V644.1Z" fill="white"/>
<path d="M1292.45 690.25H1338.61V736.4H1292.45V690.25Z" fill="white"/>
<path d="M1292.45 736.4H1338.61V782.55H1292.45V736.4Z" fill="white"/>
<path d="M1292.45 782.55H1338.61V828.7H1292.45V782.55Z" fill="white"/>
<path d="M1292.45 828.7H1338.61V874.85H1292.45V828.7Z" fill="white"/>
<path d="M1292.45 874.85H1338.61V921H1292.45V874.85Z" fill="white"/>
<path d="M1338.61 -2H1384.77V44.15H1338.61V-2Z" fill="white"/>
<path d="M1338.61 90.3H1384.77V136.45H1338.61V90.3Z" fill="white"/>
<path d="M1338.61 367.2H1384.77V413.35H1338.61V367.2Z" fill="white"/>
<path d="M1338.61 413.35H1384.77V459.5H1338.61V413.35Z" fill="white"/>
<path d="M1338.61 459.5H1384.77V505.65H1338.61V459.5Z" fill="white"/>
<path d="M1338.61 505.65H1384.77V551.8H1338.61V505.65Z" fill="white"/>
<path d="M1338.61 551.8H1384.77V597.95H1338.61V551.8Z" fill="white"/>
<path d="M1338.61 597.95H1384.77V644.1H1338.61V597.95Z" fill="white"/>
<path d="M1338.61 644.1H1384.77V690.25H1338.61V644.1Z" fill="white"/>
<path d="M1338.61 690.25H1384.77V736.4H1338.61V690.25Z" fill="white"/>
<path d="M1338.61 736.4H1384.77V782.55H1338.61V736.4Z" fill="white"/>
<path d="M1338.61 782.55H1384.77V828.7H1338.61V782.55Z" fill="white"/>
<path d="M1338.61 828.7H1384.77V874.85H1338.61V828.7Z" fill="white"/>
<path d="M1338.61 874.85H1384.77V921H1338.61V874.85Z" fill="white"/>
<path d="M1384.77 -2H1430.93V44.15H1384.77V-2Z" fill="white"/>
<path d="M1384.77 44.15H1430.93V90.3H1384.77V44.15Z" fill="white"/>
<path d="M1384.77 90.3H1430.93V136.45H1384.77V90.3Z" fill="white"/>
<path d="M1384.77 274.9H1430.93V321.05H1384.77V274.9Z" fill="white"/>
<path d="M1384.77 321.05H1430.93V367.2H1384.77V321.05Z" fill="white"/>
<path d="M1384.77 367.2H1430.93V413.35H1384.77V367.2Z" fill="white"/>
<path d="M1384.77 413.35H1430.93V459.5H1384.77V413.35Z" fill="white"/>
<path d="M1384.77 459.5H1430.93V505.65H1384.77V459.5Z" fill="white"/>
<path d="M1384.77 505.65H1430.93V551.8H1384.77V505.65Z" fill="white"/>
<path d="M1384.77 551.8H1430.93V597.95H1384.77V551.8Z" fill="white"/>
<path d="M1384.77 597.95H1430.93V644.1H1384.77V597.95Z" fill="white"/>
<path d="M1384.77 644.1H1430.93V690.25H1384.77V644.1Z" fill="white"/>
<path d="M1384.77 690.25H1430.93V736.4H1384.77V690.25Z" fill="white"/>
<path d="M1384.77 736.4H1430.93V782.55H1384.77V736.4Z" fill="white"/>
<path d="M1384.77 782.55H1430.93V828.7H1384.77V782.55Z" fill="white"/>
<path d="M1384.77 828.7H1430.93V874.85H1384.77V828.7Z" fill="white"/>
<path d="M1384.77 874.85H1430.93V921H1384.77V874.85Z" fill="white"/>
<path d="M1430.93 -2H1477.09V44.15H1430.93V-2Z" fill="white"/>
<path d="M1430.93 44.15H1477.09V90.3H1430.93V44.15Z" fill="white"/>
<path d="M1430.93 90.3H1477.09V136.45H1430.93V90.3Z" fill="white"/>
<path d="M1430.93 274.9H1477.09V321.05H1430.93V274.9Z" fill="white"/>
<path d="M1430.93 321.05H1477.09V367.2H1430.93V321.05Z" fill="white"/>
<path d="M1430.93 367.2H1477.09V413.35H1430.93V367.2Z" fill="white"/>
<path d="M1430.93 413.35H1477.09V459.5H1430.93V413.35Z" fill="white"/>
<path d="M1430.93 459.5H1477.09V505.65H1430.93V459.5Z" fill="white"/>
<path d="M1430.93 505.65H1477.09V551.8H1430.93V505.65Z" fill="white"/>
<path d="M1430.93 551.8H1477.09V597.95H1430.93V551.8Z" fill="white"/>
<path d="M1430.93 597.95H1477.09V644.1H1430.93V597.95Z" fill="white"/>
<path d="M1430.93 644.1H1477.09V690.25H1430.93V644.1Z" fill="white"/>
<path d="M1430.93 690.25H1477.09V736.4H1430.93V690.25Z" fill="white"/>
<path d="M1430.93 736.4H1477.09V782.55H1430.93V736.4Z" fill="white"/>
<path d="M1430.93 782.55H1477.09V828.7H1430.93V782.55Z" fill="white"/>
<path d="M1430.93 828.7H1477.09V874.85H1430.93V828.7Z" fill="white"/>
<path d="M1430.93 874.85H1477.09V921H1430.93V874.85Z" fill="white"/>
<path d="M1477.09 -2H1523.25V44.15H1477.09V-2Z" fill="white"/>
<path d="M1477.09 44.15H1523.25V90.3H1477.09V44.15Z" fill="white"/>
<path d="M1477.09 90.3H1523.25V136.45H1477.09V90.3Z" fill="white"/>
<path d="M1477.09 274.9H1523.25V321.05H1477.09V274.9Z" fill="white"/>
<path d="M1477.09 321.05H1523.25V367.2H1477.09V321.05Z" fill="white"/>
<path d="M1477.09 367.2H1523.25V413.35H1477.09V367.2Z" fill="white"/>
<path d="M1477.09 413.35H1523.25V459.5H1477.09V413.35Z" fill="white"/>
<path d="M1477.09 459.5H1523.25V505.65H1477.09V459.5Z" fill="white"/>
<path d="M1477.09 505.65H1523.25V551.8H1477.09V505.65Z" fill="white"/>
<path d="M1477.09 551.8H1523.25V597.95H1477.09V551.8Z" fill="white"/>
<path d="M1477.09 597.95H1523.25V644.1H1477.09V597.95Z" fill="white"/>
<path d="M1477.09 644.1H1523.25V690.25H1477.09V644.1Z" fill="white"/>
<path d="M1477.09 690.25H1523.25V736.4H1477.09V690.25Z" fill="white"/>
<path d="M1477.09 736.4H1523.25V782.55H1477.09V736.4Z" fill="white"/>
<path d="M1477.09 782.55H1523.25V828.7H1477.09V782.55Z" fill="white"/>
<path d="M1477.09 828.7H1523.25V874.85H1477.09V828.7Z" fill="white"/>
<path d="M1477.09 874.85H1523.25V921H1477.09V874.85Z" fill="white"/>
<path d="M1523.25 -2H1569.41V44.15H1523.25V-2Z" fill="white"/>
<path d="M1523.25 44.15H1569.41V90.3H1523.25V44.15Z" fill="white"/>
<path d="M1523.25 90.3H1569.41V136.45H1523.25V90.3Z" fill="white"/>
<path d="M1523.25 136.45H1569.41V182.6H1523.25V136.45Z" fill="white"/>
<path d="M1523.25 182.6H1569.41V228.75H1523.25V182.6Z" fill="white"/>
<path d="M1523.25 228.75H1569.41V274.9H1523.25V228.75Z" fill="white"/>
<path d="M1523.25 274.9H1569.41V321.05H1523.25V274.9Z" fill="white"/>
<path d="M1523.25 321.05H1569.41V367.2H1523.25V321.05Z" fill="white"/>
<path d="M1523.25 367.2H1569.41V413.35H1523.25V367.2Z" fill="white"/>
<path d="M1523.25 413.35H1569.41V459.5H1523.25V413.35Z" fill="white"/>
<path d="M1523.25 459.5H1569.41V505.65H1523.25V459.5Z" fill="white"/>
<path d="M1523.25 505.65H1569.41V551.8H1523.25V505.65Z" fill="white"/>
<path d="M1523.25 551.8H1569.41V597.95H1523.25V551.8Z" fill="white"/>
<path d="M1523.25 597.95H1569.41V644.1H1523.25V597.95Z" fill="white"/>
<path d="M1523.25 644.1H1569.41V690.25H1523.25V644.1Z" fill="white"/>
<path d="M1523.25 690.25H1569.41V736.4H1523.25V690.25Z" fill="white"/>
<path d="M1523.25 736.4H1569.41V782.55H1523.25V736.4Z" fill="white"/>
<path d="M1523.25 782.55H1569.41V828.7H1523.25V782.55Z" fill="white"/>
<path d="M1523.25 828.7H1569.41V874.85H1523.25V828.7Z" fill="white"/>
<path d="M1523.25 874.85H1569.41V921H1523.25V874.85Z" fill="white"/>
<path d="M1569.41 -2H1615.57V44.15H1569.41V-2Z" fill="white"/>
<path d="M1569.41 44.15H1615.57V90.3H1569.41V44.15Z" fill="white"/>
<path d="M1569.41 90.3H1615.57V136.45H1569.41V90.3Z" fill="white"/>
<path d="M1569.41 136.45H1615.57V182.6H1569.41V136.45Z" fill="white"/>
<path d="M1569.41 182.6H1615.57V228.75H1569.41V182.6Z" fill="white"/>
<path d="M1569.41 228.75H1615.57V274.9H1569.41V228.75Z" fill="white"/>
<path d="M1569.41 274.9H1615.57V321.05H1569.41V274.9Z" fill="white"/>
<path d="M1569.41 321.05H1615.57V367.2H1569.41V321.05Z" fill="white"/>
<path d="M1569.41 367.2H1615.57V413.35H1569.41V367.2Z" fill="white"/>
<path d="M1569.41 413.35H1615.57V459.5H1569.41V413.35Z" fill="white"/>
<path d="M1569.41 459.5H1615.57V505.65H1569.41V459.5Z" fill="white"/>
<path d="M1569.41 505.65H1615.57V551.8H1569.41V505.65Z" fill="white"/>
<path d="M1569.41 551.8H1615.57V597.95H1569.41V551.8Z" fill="white"/>
<path d="M1569.41 597.95H1615.57V644.1H1569.41V597.95Z" fill="white"/>
<path d="M1569.41 644.1H1615.57V690.25H1569.41V644.1Z" fill="white"/>
<path d="M1569.41 690.25H1615.57V736.4H1569.41V690.25Z" fill="white"/>
<path d="M1569.41 736.4H1615.57V782.55H1569.41V736.4Z" fill="white"/>
<path d="M1569.41 782.55H1615.57V828.7H1569.41V782.55Z" fill="white"/>
<path d="M1569.41 828.7H1615.57V874.85H1569.41V828.7Z" fill="white"/>
<path d="M1569.41 874.85H1615.57V921H1569.41V874.85Z" fill="white"/>
<path d="M1615.57 -2H1661.73V44.15H1615.57V-2Z" fill="white"/>
<path d="M1615.57 44.15H1661.73V90.3H1615.57V44.15Z" fill="white"/>
<path d="M1615.57 90.3H1661.73V136.45H1615.57V90.3Z" fill="white"/>
<path d="M1615.57 136.45H1661.73V182.6H1615.57V136.45Z" fill="white"/>
<path d="M1615.57 182.6H1661.73V228.75H1615.57V182.6Z" fill="white"/>
<path d="M1615.57 228.75H1661.73V274.9H1615.57V228.75Z" fill="white"/>
<path d="M1615.57 274.9H1661.73V321.05H1615.57V274.9Z" fill="white"/>
<path d="M1615.57 321.05H1661.73V367.2H1615.57V321.05Z" fill="white"/>
<path d="M1615.57 367.2H1661.73V413.35H1615.57V367.2Z" fill="white"/>
<path d="M1615.57 413.35H1661.73V459.5H1615.57V413.35Z" fill="white"/>
<path d="M1615.57 459.5H1661.73V505.65H1615.57V459.5Z" fill="white"/>
<path d="M1615.57 505.65H1661.73V551.8H1615.57V505.65Z" fill="white"/>
<path d="M1615.57 551.8H1661.73V597.95H1615.57V551.8Z" fill="white"/>
<path d="M1615.57 597.95H1661.73V644.1H1615.57V597.95Z" fill="white"/>
<path d="M1615.57 644.1H1661.73V690.25H1615.57V644.1Z" fill="white"/>
<path d="M1615.57 690.25H1661.73V736.4H1615.57V690.25Z" fill="white"/>
<path d="M1615.57 736.4H1661.73V782.55H1615.57V736.4Z" fill="white"/>
<path d="M1615.57 782.55H1661.73V828.7H1615.57V782.55Z" fill="white"/>
<path d="M1615.57 828.7H1661.73V874.85H1615.57V828.7Z" fill="white"/>
<path d="M1615.57 874.85H1661.73V921H1615.57V874.85Z" fill="white"/>
<path d="M1661.73 -2H1707.89V44.15H1661.73V-2Z" fill="white"/>
<path d="M1661.73 44.15H1707.89V90.3H1661.73V44.15Z" fill="white"/>
<path d="M1661.73 90.3H1707.89V136.45H1661.73V90.3Z" fill="white"/>
<path d="M1661.73 136.45H1707.89V182.6H1661.73V136.45Z" fill="white"/>
<path d="M1661.73 182.6H1707.89V228.75H1661.73V182.6Z" fill="white"/>
<path d="M1661.73 228.75H1707.89V274.9H1661.73V228.75Z" fill="white"/>
<path d="M1661.73 274.9H1707.89V321.05H1661.73V274.9Z" fill="white"/>
<path d="M1661.73 367.2H1707.89V413.35H1661.73V367.2Z" fill="white"/>
<path d="M1661.73 413.35H1707.89V459.5H1661.73V413.35Z" fill="white"/>
<path d="M1661.73 459.5H1707.89V505.65H1661.73V459.5Z" fill="white"/>
<path d="M1661.73 505.65H1707.89V551.8H1661.73V505.65Z" fill="white"/>
<path d="M1661.73 551.8H1707.89V597.95H1661.73V551.8Z" fill="white"/>
<path d="M1661.73 597.95H1707.89V644.1H1661.73V597.95Z" fill="white"/>
<path d="M1661.73 644.1H1707.89V690.25H1661.73V644.1Z" fill="white"/>
<path d="M1661.73 690.25H1707.89V736.4H1661.73V690.25Z" fill="white"/>
<path d="M1661.73 736.4H1707.89V782.55H1661.73V736.4Z" fill="white"/>
<path d="M1661.73 782.55H1707.89V828.7H1661.73V782.55Z" fill="white"/>
<path d="M1661.73 828.7H1707.89V874.85H1661.73V828.7Z" fill="white"/>
<path d="M1661.73 874.85H1707.89V921H1661.73V874.85Z" fill="white"/>
<path d="M1707.89 -2H1754.05V44.15H1707.89V-2Z" fill="white"/>
<path d="M1707.89 44.15H1754.05V90.3H1707.89V44.15Z" fill="white"/>
<path d="M1707.89 90.3H1754.05V136.45H1707.89V90.3Z" fill="white"/>
<path d="M1707.89 136.45H1754.05V182.6H1707.89V136.45Z" fill="white"/>
<path d="M1707.89 182.6H1754.05V228.75H1707.89V182.6Z" fill="white"/>
<path d="M1707.89 228.75H1754.05V274.9H1707.89V228.75Z" fill="white"/>
<path d="M1707.89 274.9H1754.05V321.05H1707.89V274.9Z" fill="white"/>
<path d="M1707.89 367.2H1754.05V413.35H1707.89V367.2Z" fill="white"/>
<path d="M1707.89 413.35H1754.05V459.5H1707.89V413.35Z" fill="white"/>
<path d="M1707.89 459.5H1754.05V505.65H1707.89V459.5Z" fill="white"/>
<path d="M1707.89 505.65H1754.05V551.8H1707.89V505.65Z" fill="white"/>
<path d="M1707.89 551.8H1754.05V597.95H1707.89V551.8Z" fill="white"/>
<path d="M1707.89 597.95H1754.05V644.1H1707.89V597.95Z" fill="white"/>
<path d="M1707.89 644.1H1754.05V690.25H1707.89V644.1Z" fill="white"/>
<path d="M1707.89 690.25H1754.05V736.4H1707.89V690.25Z" fill="white"/>
<path d="M1707.89 736.4H1754.05V782.55H1707.89V736.4Z" fill="white"/>
<path d="M1707.89 782.55H1754.05V828.7H1707.89V782.55Z" fill="white"/>
<path d="M1707.89 828.7H1754.05V874.85H1707.89V828.7Z" fill="white"/>
<path d="M1707.89 874.85H1754.05V921H1707.89V874.85Z" fill="white"/>
<path d="M1754.05 -2H1800.2V44.15H1754.05V-2Z" fill="white"/>
<path d="M1754.05 44.15H1800.2V90.3H1754.05V44.15Z" fill="white"/>
<path d="M1754.05 90.3H1800.2V136.45H1754.05V90.3Z" fill="white"/>
<path d="M1754.05 136.45H1800.2V182.6H1754.05V136.45Z" fill="white"/>
<path d="M1754.05 182.6H1800.2V228.75H1754.05V182.6Z" fill="white"/>
<path d="M1754.05 228.75H1800.2V274.9H1754.05V228.75Z" fill="white"/>
<path d="M1754.05 274.9H1800.2V321.05H1754.05V274.9Z" fill="white"/>
<path d="M1754.05 321.05H1800.2V367.2H1754.05V321.05Z" fill="white"/>
<path d="M1754.05 367.2H1800.2V413.35H1754.05V367.2Z" fill="white"/>
<path d="M1754.05 413.35H1800.2V459.5H1754.05V413.35Z" fill="white"/>
<path d="M1754.05 459.5H1800.2V505.65H1754.05V459.5Z" fill="white"/>
<path d="M1754.05 505.65H1800.2V551.8H1754.05V505.65Z" fill="white"/>
<path d="M1754.05 551.8H1800.2V597.95H1754.05V551.8Z" fill="white"/>
<path d="M1754.05 597.95H1800.2V644.1H1754.05V597.95Z" fill="white"/>
<path d="M1754.05 644.1H1800.2V690.25H1754.05V644.1Z" fill="white"/>
<path d="M1754.05 690.25H1800.2V736.4H1754.05V690.25Z" fill="white"/>
<path d="M1754.05 736.4H1800.2V782.55H1754.05V736.4Z" fill="white"/>
<path d="M1754.05 782.55H1800.2V828.7H1754.05V782.55Z" fill="white"/>
<path d="M1754.05 828.7H1800.2V874.85H1754.05V828.7Z" fill="white"/>
<path d="M1754.05 874.85H1800.2V921H1754.05V874.85Z" fill="white"/>
<path d="M1800.2 -2H1846.36V44.15H1800.2V-2Z" fill="white"/>
<path d="M1800.2 44.15H1846.36V90.3H1800.2V44.15Z" fill="white"/>
<path d="M1800.2 90.3H1846.36V136.45H1800.2V90.3Z" fill="white"/>
<path d="M1800.2 136.45H1846.36V182.6H1800.2V136.45Z" fill="white"/>
<path d="M1800.2 182.6H1846.36V228.75H1800.2V182.6Z" fill="white"/>
<path d="M1800.2 228.75H1846.36V274.9H1800.2V228.75Z" fill="white"/>
<path d="M1800.2 274.9H1846.36V321.05H1800.2V274.9Z" fill="white"/>
<path d="M1800.2 321.05H1846.36V367.2H1800.2V321.05Z" fill="white"/>
<path d="M1800.2 367.2H1846.36V413.35H1800.2V367.2Z" fill="white"/>
<path d="M1800.2 413.35H1846.36V459.5H1800.2V413.35Z" fill="white"/>
<path d="M1800.2 459.5H1846.36V505.65H1800.2V459.5Z" fill="white"/>
<path d="M1800.2 505.65H1846.36V551.8H1800.2V505.65Z" fill="white"/>
<path d="M1800.2 551.8H1846.36V597.95H1800.2V551.8Z" fill="white"/>
<path d="M1800.2 597.95H1846.36V644.1H1800.2V597.95Z" fill="white"/>
<path d="M1800.2 644.1H1846.36V690.25H1800.2V644.1Z" fill="white"/>
<path d="M1800.2 690.25H1846.36V736.4H1800.2V690.25Z" fill="white"/>
<path d="M1800.2 736.4H1846.36V782.55H1800.2V736.4Z" fill="white"/>
<path d="M1800.2 782.55H1846.36V828.7H1800.2V782.55Z" fill="white"/>
<path d="M1800.2 828.7H1846.36V874.85H1800.2V828.7Z" fill="white"/>
<path d="M1800.2 874.85H1846.36V921H1800.2V874.85Z" fill="white"/>
<path d="M1846.36 -2H1892.52V44.15H1846.36V-2Z" fill="white"/>
<path d="M1846.36 44.15H1892.52V90.3H1846.36V44.15Z" fill="white"/>
<path d="M1846.36 90.3H1892.52V136.45H1846.36V90.3Z" fill="white"/>
<path d="M1846.36 136.45H1892.52V182.6H1846.36V136.45Z" fill="white"/>
<path d="M1846.36 182.6H1892.52V228.75H1846.36V182.6Z" fill="white"/>
<path d="M1846.36 228.75H1892.52V274.9H1846.36V228.75Z" fill="white"/>
<path d="M1846.36 274.9H1892.52V321.05H1846.36V274.9Z" fill="white"/>
<path d="M1846.36 321.05H1892.52V367.2H1846.36V321.05Z" fill="white"/>
<path d="M1846.36 367.2H1892.52V413.35H1846.36V367.2Z" fill="white"/>
<path d="M1846.36 413.35H1892.52V459.5H1846.36V413.35Z" fill="white"/>
<path d="M1846.36 459.5H1892.52V505.65H1846.36V459.5Z" fill="white"/>
<path d="M1846.36 505.65H1892.52V551.8H1846.36V505.65Z" fill="white"/>
<path d="M1846.36 551.8H1892.52V597.95H1846.36V551.8Z" fill="white"/>
<path d="M1846.36 597.95H1892.52V644.1H1846.36V597.95Z" fill="white"/>
<path d="M1846.36 644.1H1892.52V690.25H1846.36V644.1Z" fill="white"/>
<path d="M1846.36 690.25H1892.52V736.4H1846.36V690.25Z" fill="white"/>
<path d="M1846.36 736.4H1892.52V782.55H1846.36V736.4Z" fill="white"/>
<path d="M1846.36 782.55H1892.52V828.7H1846.36V782.55Z" fill="white"/>
<path d="M1846.36 828.7H1892.52V874.85H1846.36V828.7Z" fill="white"/>
<path d="M1846.36 874.85H1892.52V921H1846.36V874.85Z" fill="white"/>
<path d="M1892.52 -2H1938.68V44.15H1892.52V-2Z" fill="white"/>
<path d="M1892.52 44.15H1938.68V90.3H1892.52V44.15Z" fill="white"/>
<path d="M1892.52 90.3H1938.68V136.45H1892.52V90.3Z" fill="white"/>
<path d="M1892.52 136.45H1938.68V182.6H1892.52V136.45Z" fill="white"/>
<path d="M1892.52 182.6H1938.68V228.75H1892.52V182.6Z" fill="white"/>
<path d="M1892.52 228.75H1938.68V274.9H1892.52V228.75Z" fill="white"/>
<path d="M1892.52 274.9H1938.68V321.05H1892.52V274.9Z" fill="white"/>
<path d="M1892.52 321.05H1938.68V367.2H1892.52V321.05Z" fill="white"/>
<path d="M1892.52 367.2H1938.68V413.35H1892.52V367.2Z" fill="white"/>
<path d="M1892.52 413.35H1938.68V459.5H1892.52V413.35Z" fill="white"/>
<path d="M1892.52 459.5H1938.68V505.65H1892.52V459.5Z" fill="white"/>
<path d="M1892.52 505.65H1938.68V551.8H1892.52V505.65Z" fill="white"/>
<path d="M1892.52 551.8H1938.68V597.95H1892.52V551.8Z" fill="white"/>
<path d="M1892.52 597.95H1938.68V644.1H1892.52V597.95Z" fill="white"/>
<path d="M1892.52 644.1H1938.68V690.25H1892.52V644.1Z" fill="white"/>
<path d="M1892.52 690.25H1938.68V736.4H1892.52V690.25Z" fill="white"/>
<path d="M1892.52 736.4H1938.68V782.55H1892.52V736.4Z" fill="white"/>
<path d="M1892.52 782.55H1938.68V828.7H1892.52V782.55Z" fill="white"/>
<path d="M1892.52 828.7H1938.68V874.85H1892.52V828.7Z" fill="white"/>
<path d="M1892.52 874.85H1938.68V921H1892.52V874.85Z" fill="white"/>
<path d="M1938.68 -2H1984.84V44.15H1938.68V-2Z" fill="white"/>
<path d="M1938.68 44.15H1984.84V90.3H1938.68V44.15Z" fill="white"/>
<path d="M1938.68 90.3H1984.84V136.45H1938.68V90.3Z" fill="white"/>
<path d="M1938.68 136.45H1984.84V182.6H1938.68V136.45Z" fill="white"/>
<path d="M1938.68 182.6H1984.84V228.75H1938.68V182.6Z" fill="white"/>
<path d="M1938.68 228.75H1984.84V274.9H1938.68V228.75Z" fill="white"/>
<path d="M1938.68 274.9H1984.84V321.05H1938.68V274.9Z" fill="white"/>
<path d="M1938.68 321.05H1984.84V367.2H1938.68V321.05Z" fill="white"/>
<path d="M1938.68 367.2H1984.84V413.35H1938.68V367.2Z" fill="white"/>
<path d="M1938.68 413.35H1984.84V459.5H1938.68V413.35Z" fill="white"/>
<path d="M1938.68 459.5H1984.84V505.65H1938.68V459.5Z" fill="white"/>
<path d="M1938.68 505.65H1984.84V551.8H1938.68V505.65Z" fill="white"/>
<path d="M1938.68 551.8H1984.84V597.95H1938.68V551.8Z" fill="white"/>
<path d="M1938.68 597.95H1984.84V644.1H1938.68V597.95Z" fill="white"/>
<path d="M1938.68 644.1H1984.84V690.25H1938.68V644.1Z" fill="white"/>
<path d="M1938.68 690.25H1984.84V736.4H1938.68V690.25Z" fill="white"/>
<path d="M1938.68 736.4H1984.84V782.55H1938.68V736.4Z" fill="white"/>
<path d="M1938.68 782.55H1984.84V828.7H1938.68V782.55Z" fill="white"/>
<path d="M1938.68 828.7H1984.84V874.85H1938.68V828.7Z" fill="white"/>
<path d="M1938.68 874.85H1984.84V921H1938.68V874.85Z" fill="white"/>
<path d="M1984.84 -2H2016C2024.28 -2 2031 4.71573 2031 13V44.15H1984.84V-2Z" fill="white"/>
<path d="M1984.84 44.15H2031V90.3H1984.84V44.15Z" fill="white"/>
<path d="M1984.84 90.3H2031V136.45H1984.84V90.3Z" fill="white"/>
<path d="M1984.84 136.45H2031V182.6H1984.84V136.45Z" fill="white"/>
<path d="M1984.84 182.6H2031V228.75H1984.84V182.6Z" fill="white"/>
<path d="M1984.84 228.75H2031V274.9H1984.84V228.75Z" fill="white"/>
<path d="M1984.84 274.9H2031V321.05H1984.84V274.9Z" fill="white"/>
<path d="M1984.84 321.05H2031V367.2H1984.84V321.05Z" fill="white"/>
<path d="M1984.84 367.2H2031V413.35H1984.84V367.2Z" fill="white"/>
<path d="M1984.84 413.35H2031V459.5H1984.84V413.35Z" fill="white"/>
<path d="M1984.84 459.5H2031V505.65H1984.84V459.5Z" fill="white"/>
<path d="M1984.84 505.65H2031V551.8H1984.84V505.65Z" fill="white"/>
<path d="M1984.84 551.8H2031V597.95H1984.84V551.8Z" fill="white"/>
<path d="M1984.84 597.95H2031V644.1H1984.84V597.95Z" fill="white"/>
<path d="M1984.84 644.1H2031V690.25H1984.84V644.1Z" fill="white"/>
<path d="M1984.84 690.25H2031V736.4H1984.84V690.25Z" fill="white"/>
<path d="M1984.84 736.4H2031V782.55H1984.84V736.4Z" fill="white"/>
<path d="M1984.84 782.55H2031V828.7H1984.84V782.55Z" fill="white"/>
<path d="M1984.84 828.7H2031V874.85H1984.84V828.7Z" fill="white"/>
<path d="M1984.84 874.85H2031V906C2031 914.284 2024.28 921 2016 921H1984.84V874.85Z" fill="white"/>
<path d="M46.1591 321.05V367.2H92.3182V321.05H46.1591Z" fill="white"/>
<path d="M92.3182 321.05V367.2H138.477V321.05H92.3182Z" fill="white"/>
<path d="M138.477 321.05V367.2H184.636V321.05H138.477Z" fill="white"/>
<path d="M184.636 321.05V367.2H230.795V321.05H184.636Z" fill="white"/>
<path d="M230.795 321.05V367.2H276.955V321.05H230.795Z" fill="white"/>
<path d="M369.273 321.05H323.114V367.2H369.273V321.05Z" fill="white"/>
<path d="M276.955 321.05V367.2H323.114V321.05H276.955Z" fill="white"/>
<path d="M369.273 321.05V367.2H415.432V321.05H369.273Z" fill="white"/>
<path d="M415.432 321.05V367.2H461.591V321.05H415.432Z" fill="white"/>
<path d="M461.591 321.05V367.2H507.75V321.05H461.591Z" fill="white"/>
<path d="M507.75 321.05V367.2H553.909V321.05H507.75Z" fill="white"/>
<path d="M46.1591 274.9V321.05H92.3182V274.9H46.1591Z" fill="white"/>
<path d="M92.3182 274.9V321.05H138.477V274.9H92.3182Z" fill="white"/>
<path d="M138.477 274.9V321.05H184.636V274.9H138.477Z" fill="white"/>
<path d="M184.636 274.9V321.05H230.795V274.9H184.636Z" fill="white"/>
<path d="M230.795 228.75V274.9H276.955V228.75H230.795Z" fill="white"/>
<path d="M276.955 228.75V274.9H323.114V228.75H276.955Z" fill="white"/>
<path d="M276.955 274.9V321.05H323.114V274.9H276.955Z" fill="white"/>
<path d="M323.114 228.75V274.9H369.273V228.75H323.114Z" fill="white"/>
<path d="M369.273 228.75V274.9H415.432V228.75H369.273Z" fill="white"/>
<path d="M369.273 274.9V321.05H415.432V274.9H369.273Z" fill="white"/>
<path d="M415.432 228.75V274.9H461.591V228.75H415.432Z" fill="white"/>
<path d="M415.432 274.9V321.05H461.591V274.9H415.432Z" fill="white"/>
<path d="M461.591 228.75V274.9H507.75V228.75H461.591Z" fill="white"/>
<path d="M461.591 274.9V321.05H507.75V274.9H461.591Z" fill="white"/>
<path d="M507.75 228.75V274.9H553.909V228.75H507.75Z" fill="white"/>
<path d="M507.75 274.9V321.05H553.909V274.9H507.75Z" fill="white"/>
<path d="M553.909 274.9H600.068V228.75H553.909V274.9Z" fill="white"/>
<path d="M553.909 274.9V321.05H600.068V274.9H553.909Z" fill="white"/>
<path d="M553.909 321.05V367.2H600.068V321.05H553.909Z" fill="white"/>
<path d="M600.068 274.9H646.227V228.75H600.068V274.9Z" fill="white"/>
<path d="M600.068 274.9V321.05H646.227V274.9H600.068Z" fill="white"/>
<path d="M600.068 321.05V367.2H646.227V321.05H600.068Z" fill="white"/>
<path d="M646.227 228.75V274.9H692.386V228.75H646.227Z" fill="white"/>
<path d="M646.227 274.9V321.05H692.386V274.9H646.227Z" fill="white"/>
<path d="M646.227 321.05V367.2H692.386V321.05H646.227Z" fill="white"/>
<path d="M692.386 228.75V274.9H738.545V228.75H692.386Z" fill="white"/>
<path d="M738.545 367.2H784.705V321.05H738.545V367.2Z" fill="white"/>
<path d="M784.705 274.9H738.545V321.05H784.705V274.9Z" fill="white"/>
<path d="M784.705 228.75H738.545V274.9H784.705V228.75Z" fill="white"/>
<path d="M830.864 274.9V228.75H784.705V274.9H830.864Z" fill="white"/>
<path d="M830.864 367.2H877.023V321.05H830.864V367.2Z" fill="white"/>
<path d="M877.023 274.9H830.864V321.05H877.023V274.9Z" fill="white"/>
<path d="M830.864 228.75V274.9H877.023V228.75H830.864Z" fill="white"/>
<path d="M923.182 274.9V228.75H877.023V274.9H923.182Z" fill="white"/>
<path d="M877.023 321.05H923.182V274.9H877.023V321.05Z" fill="white"/>
<path d="M923.182 367.2H969.341V321.05H923.182V367.2Z" fill="white"/>
<path d="M969.341 274.9H923.182V321.05H969.341V274.9Z" fill="white"/>
<path d="M923.182 228.75V274.9H969.341V228.75H923.182Z" fill="white"/>
<path d="M1015.5 274.9V228.75H969.341V274.9H1015.5Z" fill="white"/>
<path d="M969.341 321.05H1015.5V274.9H969.341V321.05Z" fill="white"/>
<path d="M969.341 367.2H1015.5V321.05H969.341V367.2Z" fill="white"/>
<path d="M692.386 367.2H738.545V321.05H692.386V367.2Z" fill="white"/>
<path d="M692.386 274.9V321.05H738.545V274.9H692.386Z" fill="white"/>
<path d="M784.705 274.9V321.05H830.864V274.9H784.705Z" fill="white"/>
<path d="M784.705 367.2H830.864V321.05H784.705V367.2Z" fill="white"/>
<path d="M1015.5 367.2H1061.66V321.05H1015.5V367.2Z" fill="white"/>
<path d="M1061.66 274.9H1015.5V321.05H1061.66V274.9Z" fill="white"/>
<path d="M1015.5 228.75V274.9H1061.66V228.75H1015.5Z" fill="white"/>
<path d="M1107.82 274.9V228.75H1061.66V274.9H1107.82Z" fill="white"/>
<path d="M1061.66 321.05H1107.82V274.9H1061.66V321.05Z" fill="white"/>
<path d="M1061.66 367.2H1107.82V321.05H1061.66V367.2Z" fill="white"/>
<path d="M1107.82 228.75V274.9H1153.98V228.75H1107.82Z" fill="white"/>
<path d="M1153.98 367.2H1200.14V321.05H1153.98V367.2Z" fill="white"/>
<path d="M1200.14 367.2H1246.3V321.05H1200.14V367.2Z" fill="white"/>
<path d="M1200.14 274.9V321.05H1246.3V274.9H1200.14Z" fill="white"/>
<path d="M1246.3 228.75H1200.14V274.9H1246.3V228.75Z" fill="white"/>
<path d="M1292.45 321.05V274.9H1246.3V321.05H1292.45Z" fill="white"/>
<path d="M1292.45 367.2H1338.61V321.05H1292.45V367.2Z" fill="white"/>
<path d="M1292.45 274.9V321.05H1338.61V274.9H1292.45Z" fill="white"/>
<path d="M1338.61 228.75H1292.45V274.9H1338.61V228.75Z" fill="white"/>
<path d="M1246.3 228.75V274.9H1292.45V228.75H1246.3Z" fill="white"/>
<path d="M1153.98 228.75V274.9H1200.14V228.75H1153.98Z" fill="white"/>
<path d="M1153.98 274.9V321.05H1200.14V274.9H1153.98Z" fill="white"/>
<path d="M1107.82 274.9V321.05H1153.98V274.9H1107.82Z" fill="white"/>
<path d="M1107.82 367.2H1153.98V321.05H1107.82V367.2Z" fill="white"/>
<path d="M1246.3 367.2H1292.45V321.05H1246.3V367.2Z" fill="white"/>
<path d="M92.3182 228.75V274.9H138.477V228.75H92.3182Z" fill="white"/>
<path d="M138.477 228.75V274.9H184.636V228.75H138.477Z" fill="white"/>
<path d="M646.227 736.4V782.55H692.386V736.4H646.227Z" fill="white"/>
<path d="M46.1591 -2H15C6.71573 -2 0 4.71572 0 13V44.15M46.1591 -2V44.15M46.1591 -2H92.3182M46.1591 44.15H0M46.1591 44.15V90.3M46.1591 44.15H92.3182M0 44.15V90.3M46.1591 90.3H0M46.1591 90.3V136.45M46.1591 90.3H92.3182M0 90.3V136.45M46.1591 136.45H0M46.1591 136.45V182.6M46.1591 136.45H92.3182M0 136.45V182.6M46.1591 182.6H0M46.1591 182.6V228.75M46.1591 182.6H92.3182M0 182.6V228.75M46.1591 228.75H0M46.1591 228.75V274.9M46.1591 228.75H92.3182M0 228.75V274.9M46.1591 274.9H0M46.1591 274.9V321.05M46.1591 274.9H92.3182M0 274.9V321.05M46.1591 321.05H0M46.1591 321.05V367.2M46.1591 321.05H92.3182M0 321.05V367.2M46.1591 367.2H0M46.1591 367.2V413.35M46.1591 367.2H92.3182M0 367.2V413.35M46.1591 413.35H0M46.1591 413.35V459.5M46.1591 413.35H92.3182M0 413.35V459.5M46.1591 459.5H0M46.1591 459.5V505.65M46.1591 459.5H92.3182M0 459.5V505.65M46.1591 505.65H0M46.1591 505.65V551.8M46.1591 505.65H92.3182M0 505.65V551.8M46.1591 551.8H0M46.1591 551.8V597.95M46.1591 551.8H92.3182M0 551.8V597.95M46.1591 597.95H0M46.1591 597.95V644.1M46.1591 597.95H92.3182M0 597.95V644.1M46.1591 644.1H0M46.1591 644.1V690.25M46.1591 644.1H92.3182M0 644.1V690.25M46.1591 690.25H0M46.1591 690.25V736.4M46.1591 690.25H92.3182M0 690.25V736.4M46.1591 736.4H0M46.1591 736.4V782.55M46.1591 736.4H92.3182M0 736.4V782.55M46.1591 782.55H0M46.1591 782.55V828.7M46.1591 782.55H92.3182M0 782.55V828.7M46.1591 828.7H0M46.1591 828.7V874.85M46.1591 828.7H92.3182M0 828.7V874.85M46.1591 874.85H0M46.1591 874.85V921M46.1591 874.85H92.3182M0 874.85V906C0 914.284 6.71574 921 15 921H46.1591M46.1591 921H92.3182M92.3182 -2V44.15M92.3182 -2H138.477M92.3182 44.15V90.3M92.3182 44.15H138.477M92.3182 90.3V136.45M92.3182 90.3H138.477M92.3182 136.45V182.6M92.3182 136.45H138.477M92.3182 182.6V228.75M92.3182 182.6H138.477M92.3182 228.75V274.9M92.3182 228.75H138.477M92.3182 274.9V321.05M92.3182 274.9H138.477M92.3182 321.05V367.2M92.3182 321.05H138.477M92.3182 367.2V413.35M92.3182 367.2H138.477M92.3182 413.35V459.5M92.3182 413.35H138.477M92.3182 459.5V505.65M92.3182 459.5H138.477M92.3182 505.65V551.8M92.3182 505.65H138.477M92.3182 551.8V597.95M92.3182 551.8H138.477M92.3182 597.95V644.1M92.3182 597.95H138.477M92.3182 644.1V690.25M92.3182 644.1H138.477M92.3182 690.25V736.4M92.3182 690.25H138.477M92.3182 736.4V782.55M92.3182 736.4H138.477M92.3182 782.55V828.7M92.3182 782.55H138.477M92.3182 828.7V874.85M92.3182 828.7H138.477M92.3182 874.85V921M92.3182 874.85H138.477M92.3182 921H138.477M138.477 -2V44.15M138.477 -2H184.636M138.477 44.15V90.3M138.477 44.15H184.636M138.477 90.3V136.45M138.477 90.3H184.636M138.477 136.45V182.6M138.477 136.45H184.636M138.477 182.6V228.75M138.477 182.6H184.636M138.477 228.75V274.9M138.477 228.75H184.636M138.477 274.9V321.05M138.477 274.9H184.636M138.477 321.05V367.2M138.477 321.05H184.636M138.477 367.2V413.35M138.477 367.2H184.636M138.477 413.35V459.5M138.477 413.35H184.636M138.477 459.5V505.65M138.477 459.5H184.636M138.477 505.65V551.8M138.477 505.65H184.636M138.477 551.8V597.95M138.477 551.8H184.636M138.477 597.95V644.1M138.477 597.95H184.636M138.477 644.1V690.25M138.477 644.1H184.636M138.477 690.25V736.4M138.477 690.25H184.636M138.477 736.4V782.55M138.477 736.4H184.636M138.477 782.55V828.7M138.477 782.55H184.636M138.477 828.7V874.85M138.477 828.7H184.636M138.477 874.85V921M138.477 874.85H184.636M138.477 921H184.636M184.636 -2V44.15M184.636 -2H230.795M184.636 44.15V90.3M184.636 44.15H230.795M184.636 90.3V136.45M184.636 90.3H230.795M184.636 136.45V182.6M184.636 136.45H230.795M184.636 182.6V228.75M184.636 182.6H230.795M184.636 228.75V274.9M184.636 228.75H230.795M184.636 274.9V321.05M184.636 274.9H230.795M184.636 321.05V367.2M184.636 321.05H230.795M184.636 367.2V413.35M184.636 367.2H230.795M184.636 413.35V459.5M184.636 413.35H230.795M184.636 459.5V505.65M184.636 459.5H230.795M184.636 505.65V551.8M184.636 505.65H230.795M184.636 551.8V597.95M184.636 551.8H230.795M184.636 597.95V644.1M184.636 597.95H230.795M184.636 644.1V690.25M184.636 644.1H230.795M184.636 690.25V736.4M184.636 690.25H230.795M184.636 736.4V782.55M184.636 736.4H230.795M184.636 782.55V828.7M184.636 782.55H230.795M184.636 828.7V874.85M184.636 828.7H230.795M184.636 874.85V921M184.636 874.85H230.795M184.636 921H230.795M230.795 -2V44.15M230.795 -2H276.955M230.795 44.15V90.3M230.795 44.15H276.955M230.795 90.3V136.45M230.795 90.3H276.955M230.795 136.45V182.6M230.795 136.45H276.955M230.795 182.6V228.75M230.795 182.6H276.955M230.795 228.75V274.9M230.795 228.75H276.955M230.795 274.9V321.05M230.795 274.9H276.955M230.795 321.05V367.2M230.795 321.05H276.955M230.795 367.2V413.35M230.795 367.2H276.955M230.795 413.35V459.5M230.795 413.35H276.955M230.795 459.5V505.65M230.795 459.5H276.955M230.795 505.65V551.8M230.795 505.65H276.955M230.795 551.8V597.95M230.795 551.8H276.955M230.795 597.95V644.1M230.795 597.95H276.955M230.795 644.1V690.25M230.795 644.1H276.955M230.795 690.25V736.4M230.795 690.25H276.955M230.795 736.4V782.55M230.795 736.4H276.955M230.795 782.55V828.7M230.795 782.55H276.955M230.795 828.7V874.85M230.795 828.7H276.955M230.795 874.85V921M230.795 874.85H276.955M230.795 921H276.955M276.955 -2V44.15M276.955 -2H323.114M276.955 44.15V90.3M276.955 44.15H323.114M276.955 90.3V136.45M276.955 90.3H323.114M276.955 136.45V182.6M276.955 136.45H323.114M276.955 182.6V228.75M276.955 182.6H323.114M276.955 228.75V274.9M276.955 228.75H323.114M276.955 274.9V321.05M276.955 274.9H323.114M276.955 321.05V367.2M276.955 321.05H323.114M276.955 367.2V413.35M276.955 367.2H323.114M276.955 413.35V459.5M276.955 413.35H323.114M276.955 459.5V505.65M276.955 459.5H323.114M276.955 505.65V551.8M276.955 505.65H323.114M276.955 551.8V597.95M276.955 551.8H323.114M276.955 597.95V644.1M276.955 597.95H323.114M276.955 644.1V690.25M276.955 644.1H323.114M276.955 690.25V736.4M276.955 690.25H323.114M276.955 736.4V782.55M276.955 736.4H323.114M276.955 782.55V828.7M276.955 782.55H323.114M276.955 828.7V874.85M276.955 828.7H323.114M276.955 874.85V921M276.955 874.85H323.114M276.955 921H323.114M323.114 -2V44.15M323.114 -2H369.273M323.114 44.15V90.3M323.114 44.15H369.273M323.114 90.3V136.45M323.114 90.3H369.273M323.114 136.45V182.6M323.114 136.45H369.273M323.114 182.6V228.75M323.114 182.6H369.273M323.114 228.75V274.9M323.114 228.75H369.273M323.114 274.9V321.05M323.114 274.9H369.273M323.114 321.05H369.273M323.114 321.05V367.2M323.114 367.2V413.35M323.114 367.2H369.273M323.114 413.35V459.5M323.114 413.35H369.273M323.114 459.5V505.65M323.114 459.5H369.273M323.114 505.65V551.8M323.114 505.65H369.273M323.114 551.8V597.95M323.114 551.8H369.273M323.114 597.95V644.1M323.114 597.95H369.273M323.114 644.1V690.25M323.114 644.1H369.273M323.114 690.25V736.4M323.114 690.25H369.273M323.114 736.4V782.55M323.114 736.4H369.273M323.114 782.55V828.7M323.114 782.55H369.273M323.114 828.7V874.85M323.114 828.7H369.273M323.114 874.85V921M323.114 874.85H369.273M323.114 921H369.273M369.273 -2V44.15M369.273 -2H415.432M369.273 44.15V90.3M369.273 44.15H415.432M369.273 90.3V136.45M369.273 90.3H415.432M369.273 136.45V182.6M369.273 136.45H415.432M369.273 182.6V228.75M369.273 182.6H415.432M369.273 228.75V274.9M369.273 228.75H415.432M369.273 274.9V321.05M369.273 274.9H415.432M369.273 321.05V367.2M369.273 321.05H415.432M369.273 367.2V413.35M369.273 367.2H415.432M369.273 413.35V459.5M369.273 413.35H415.432M369.273 459.5V505.65M369.273 459.5H415.432M369.273 505.65V551.8M369.273 505.65H415.432M369.273 551.8V597.95M369.273 551.8H415.432M369.273 597.95V644.1M369.273 597.95C369.273 597.95 397.406 597.95 415.432 597.95M369.273 644.1V690.25M369.273 644.1H415.432M369.273 690.25V736.4M369.273 690.25H415.432M369.273 736.4V782.55M369.273 736.4H415.432M369.273 782.55V828.7M369.273 782.55H415.432M369.273 828.7V874.85M369.273 828.7H415.432M369.273 874.85V921M369.273 874.85H415.432M369.273 921H415.432M415.432 -2V44.15M415.432 -2H461.591M415.432 44.15V90.3M415.432 44.15H461.591M415.432 90.3V136.45M415.432 90.3H461.591M415.432 136.45V182.6M415.432 136.45H461.591M415.432 182.6V228.75M415.432 182.6H461.591M415.432 228.75V274.9M415.432 228.75H461.591M415.432 274.9V321.05M415.432 274.9H461.591M415.432 321.05V367.2M415.432 321.05H461.591M415.432 367.2V413.35M415.432 367.2H461.591M415.432 413.35V459.5M415.432 413.35H461.591M415.432 459.5V505.65M415.432 459.5H461.591M415.432 505.65V551.8M415.432 505.65H461.591M415.432 551.8C415.432 551.8 415.432 579.927 415.432 597.95M415.432 551.8H461.591M415.432 597.95C415.432 615.973 415.432 644.1 415.432 644.1M415.432 597.95C433.458 597.95 461.591 597.95 461.591 597.95M415.432 644.1V690.25M415.432 644.1H461.591M415.432 690.25V736.4M415.432 690.25H461.591M415.432 736.4V782.55M415.432 736.4H461.591M415.432 782.55V828.7M415.432 782.55H461.591M415.432 828.7V874.85M415.432 828.7H461.591M415.432 874.85V921M415.432 874.85H461.591M415.432 921H461.591M461.591 -2V44.15M461.591 -2H507.75M461.591 44.15V90.3M461.591 44.15H507.75M461.591 90.3V136.45M461.591 90.3H507.75M461.591 136.45V182.6M461.591 136.45H507.75M461.591 182.6V228.75M461.591 182.6H507.75M461.591 228.75V274.9M461.591 228.75H507.75M461.591 274.9V321.05M461.591 274.9H507.75M461.591 321.05V367.2M461.591 321.05H507.75M461.591 367.2V413.35M461.591 367.2H507.75M461.591 413.35V459.5M461.591 413.35H507.75M461.591 459.5V505.65M461.591 459.5H507.75M461.591 505.65V551.8M461.591 505.65H507.75M461.591 551.8V597.95M461.591 551.8H507.75M461.591 597.95V644.1M461.591 597.95H507.75M461.591 644.1V690.25M461.591 644.1H507.75M461.591 690.25V736.4M461.591 690.25H507.75M461.591 736.4V782.55M461.591 736.4H507.75M461.591 782.55V828.7M461.591 782.55H507.75M461.591 828.7V874.85M461.591 828.7H507.75M461.591 874.85V921M461.591 874.85H507.75M461.591 921H507.75M507.75 -2V44.15M507.75 -2H553.909M507.75 44.15V90.3M507.75 44.15H553.909M507.75 90.3V136.45M507.75 90.3H553.909M507.75 136.45V182.6M507.75 136.45H553.909M507.75 182.6V228.75M507.75 182.6H553.909M507.75 228.75V274.9M507.75 228.75H553.909M507.75 274.9V321.05M507.75 274.9H553.909M507.75 321.05V367.2M507.75 321.05H553.909M507.75 367.2V413.35M507.75 367.2H553.909M507.75 413.35V459.5M507.75 413.35H553.909M507.75 459.5V505.65M507.75 459.5H553.909M507.75 505.65V551.8M507.75 505.65H553.909M507.75 551.8V597.95M507.75 551.8H553.909M507.75 597.95V644.1M507.75 597.95H553.909M507.75 644.1V690.25M507.75 644.1H553.909M507.75 690.25V736.4M507.75 690.25H553.909M507.75 736.4V782.55M507.75 736.4H553.909M507.75 782.55V828.7M507.75 782.55H553.909M507.75 828.7V874.85M507.75 828.7H553.909M507.75 874.85V921M507.75 874.85H553.909M507.75 921H553.909M553.909 -2V44.15M553.909 -2H600.068M553.909 44.15V90.3M553.909 44.15H600.068M553.909 90.3V136.45M553.909 90.3H600.068M553.909 136.45H600.068M553.909 136.45V182.6M553.909 274.9V321.05M553.909 274.9H600.068M553.909 274.9V228.75M553.909 321.05V367.2M553.909 321.05H600.068M553.909 367.2V413.35M553.909 367.2H600.068M553.909 413.35V459.5M553.909 413.35H600.068M553.909 459.5V505.65M553.909 459.5H600.068M553.909 505.65V551.8M553.909 505.65H600.068M553.909 551.8V597.95M553.909 551.8H600.068M553.909 597.95V644.1M553.909 597.95H600.068M553.909 644.1V690.25M553.909 644.1H600.068M553.909 690.25V736.4M553.909 690.25H600.068M553.909 736.4V782.55M553.909 736.4H600.068M553.909 782.55V828.7M553.909 782.55H600.068M553.909 828.7V874.85M553.909 828.7H600.068M553.909 874.85V921M553.909 874.85H600.068M553.909 921H600.068M600.068 -2V44.15M600.068 -2H646.227M600.068 44.15V90.3M600.068 44.15H646.227M600.068 90.3V136.45M600.068 90.3H646.227M600.068 136.45H646.227M600.068 136.45V182.6M600.068 274.9V321.05M600.068 274.9H646.227M600.068 274.9V228.75M600.068 321.05V367.2M600.068 321.05H646.227M600.068 367.2V413.35M600.068 367.2H646.227M600.068 413.35V459.5M600.068 413.35H646.227M600.068 459.5V505.65M600.068 459.5H646.227M600.068 505.65V551.8M600.068 505.65H646.227M600.068 551.8V597.95M600.068 551.8H646.227M600.068 597.95V644.1M600.068 597.95H646.227M600.068 644.1V690.25M600.068 644.1H646.227M600.068 690.25V736.4M600.068 690.25H646.227M600.068 736.4V782.55M600.068 736.4H646.227M600.068 782.55V828.7M600.068 782.55H646.227M600.068 828.7V874.85M600.068 828.7H646.227M600.068 874.85V921M600.068 874.85H646.227M600.068 921H646.227M646.227 -2V44.15M646.227 -2H692.386M646.227 44.15V90.3M646.227 44.15H692.386M646.227 90.3V136.45M646.227 90.3H692.386M646.227 136.45H692.386M646.227 136.45V182.6M646.227 274.9V321.05M646.227 274.9V228.75M646.227 274.9H692.386M646.227 321.05V367.2M646.227 321.05H692.386M646.227 367.2V413.35M646.227 367.2H692.386M646.227 413.35V459.5M646.227 413.35H692.386M646.227 459.5V505.65M646.227 459.5H692.386M646.227 505.65V551.8M646.227 505.65H692.386M646.227 551.8V597.95M646.227 551.8H692.386M646.227 597.95V644.1M646.227 597.95H692.386M646.227 644.1V690.25M646.227 644.1H692.386M646.227 690.25V736.4M646.227 690.25H692.386M646.227 736.4V782.55M646.227 736.4H692.386M646.227 782.55V828.7M646.227 782.55H692.386M646.227 828.7V874.85M646.227 828.7H692.386M646.227 874.85V921M646.227 874.85H692.386M646.227 921H692.386M692.386 -2V44.15M692.386 -2H738.545M692.386 44.15V90.3M692.386 44.15H738.545M692.386 90.3V136.45M692.386 90.3H738.545M692.386 136.45H738.545M692.386 136.45V182.6M692.386 367.2V413.35M692.386 367.2H738.545M692.386 367.2V321.05M692.386 413.35V459.5M692.386 413.35H738.545M692.386 459.5V505.65M692.386 459.5H738.545M692.386 505.65V551.8M692.386 505.65H738.545M692.386 551.8V597.95M692.386 551.8H738.545M692.386 597.95V644.1M692.386 597.95H738.545M692.386 644.1V690.25M692.386 644.1H738.545M692.386 690.25V736.4M692.386 690.25H738.545M692.386 736.4V782.55M692.386 736.4H738.545M692.386 782.55V828.7M692.386 782.55H738.545M692.386 828.7V874.85M692.386 828.7H738.545M692.386 874.85V921M692.386 874.85H738.545M692.386 921H738.545M738.545 -2V44.15M738.545 -2H784.705M738.545 44.15V90.3M738.545 44.15H784.705M738.545 90.3V136.45M738.545 90.3H784.705M738.545 136.45H784.705M738.545 136.45V182.6M738.545 367.2V413.35M738.545 367.2H784.705M738.545 367.2V321.05M738.545 413.35V459.5M738.545 413.35H784.705M738.545 459.5V505.65M738.545 459.5H784.705M738.545 505.65V551.8M738.545 505.65H784.705M738.545 551.8V597.95M738.545 551.8H784.705M738.545 597.95V644.1M738.545 597.95H784.705M738.545 644.1V690.25M738.545 644.1H784.705M738.545 690.25V736.4M738.545 690.25H784.705M738.545 736.4V782.55M738.545 736.4H784.705M738.545 782.55V828.7M738.545 782.55H784.705M738.545 828.7V874.85M738.545 828.7H784.705M738.545 874.85V921M738.545 874.85H784.705M738.545 921H784.705M784.705 -2V44.15M784.705 -2H830.864M784.705 44.15V90.3M784.705 44.15H830.864M784.705 90.3V136.45M784.705 90.3H830.864M784.705 136.45H830.864M784.705 136.45V182.6M784.705 367.2V413.35M784.705 367.2H830.864M784.705 367.2V321.05M784.705 413.35V459.5M784.705 413.35H830.864M784.705 459.5V505.65M784.705 459.5H830.864M784.705 505.65V551.8M784.705 505.65H830.864M784.705 551.8V597.95M784.705 551.8H830.864M784.705 597.95V644.1M784.705 597.95H830.864M784.705 644.1V690.25M784.705 644.1H830.864M784.705 690.25V736.4M784.705 690.25H830.864M784.705 736.4V782.55M784.705 736.4H830.864M784.705 782.55V828.7M784.705 782.55H830.864M784.705 828.7V874.85M784.705 828.7H830.864M784.705 874.85V921M784.705 874.85H830.864M784.705 921H830.864M830.864 -2V44.15M830.864 -2H877.023M830.864 44.15V90.3M830.864 44.15H877.023M830.864 90.3V136.45M830.864 90.3H877.023M830.864 136.45H877.023M830.864 136.45V228.75M830.864 367.2V413.35M830.864 367.2H877.023M830.864 367.2V321.05M830.864 413.35V459.5M830.864 413.35H877.023M830.864 459.5V505.65M830.864 459.5H877.023M830.864 505.65V551.8M830.864 505.65H877.023M830.864 551.8V597.95M830.864 551.8H877.023M830.864 597.95V644.1M830.864 597.95H877.023M830.864 644.1V690.25M830.864 644.1H877.023M830.864 690.25V736.4M830.864 690.25H877.023M830.864 736.4V782.55M830.864 736.4H877.023M830.864 782.55V828.7M830.864 782.55H877.023M830.864 828.7V874.85M830.864 828.7H877.023M830.864 874.85V921M830.864 874.85H877.023M830.864 921H877.023M877.023 -2V44.15M877.023 -2H923.182M877.023 44.15V90.3M877.023 44.15H923.182M877.023 90.3V136.45M877.023 90.3H923.182M877.023 136.45H923.182M877.023 136.45V228.75M877.023 367.2V413.35M877.023 367.2H923.182M877.023 367.2V321.05M877.023 413.35V459.5M877.023 413.35H923.182M877.023 459.5V505.65M877.023 459.5H923.182M877.023 505.65V551.8M877.023 505.65H923.182M877.023 551.8V597.95M877.023 551.8H923.182M877.023 597.95V644.1M877.023 597.95H923.182M877.023 644.1V690.25M877.023 644.1H923.182M877.023 690.25V736.4M877.023 690.25H923.182M877.023 736.4V782.55M877.023 736.4H923.182M877.023 782.55V828.7M877.023 782.55H923.182M877.023 828.7V874.85M877.023 828.7H923.182M877.023 874.85V921M877.023 874.85H923.182M877.023 921H923.182M923.182 -2V44.15M923.182 -2H969.341M923.182 44.15V90.3M923.182 44.15H969.341M923.182 90.3V136.45M923.182 90.3H969.341M923.182 136.45H969.341M923.182 136.45V182.6M923.182 367.2V413.35M923.182 367.2H969.341M923.182 367.2V321.05M923.182 413.35V459.5M923.182 413.35H969.341M923.182 459.5V505.65M923.182 459.5H969.341M923.182 505.65V551.8M923.182 505.65H969.341M923.182 551.8V597.95M923.182 551.8H969.341M923.182 597.95V644.1M923.182 597.95H969.341M923.182 644.1V690.25M923.182 644.1H969.341M923.182 690.25V736.4M923.182 690.25H969.341M923.182 736.4V782.55M923.182 736.4H969.341M923.182 782.55V828.7M923.182 782.55H969.341M923.182 828.7V874.85M923.182 828.7H969.341M923.182 874.85V921M923.182 874.85H969.341M923.182 921H969.341M969.341 -2V44.15M969.341 -2H1015.5M969.341 44.15H1015.5M969.341 44.15V90.3M969.341 90.3V136.45M969.341 90.3H1015.5M969.341 136.45H1015.5M969.341 136.45V182.6M969.341 367.2V413.35M969.341 367.2H1015.5M969.341 367.2V321.05M969.341 413.35V459.5M969.341 413.35H1015.5M969.341 459.5V505.65M969.341 459.5H1015.5M969.341 505.65V551.8M969.341 505.65H1015.5M969.341 551.8V597.95M969.341 551.8H1015.5M969.341 597.95V644.1M969.341 597.95H1015.5M969.341 644.1V690.25M969.341 644.1H1015.5M969.341 690.25V736.4M969.341 690.25H1015.5M969.341 736.4V782.55M969.341 736.4H1015.5M969.341 782.55V828.7M969.341 782.55H1015.5M969.341 828.7V874.85M969.341 828.7H1015.5M969.341 874.85V921M969.341 874.85H1015.5M969.341 921H1015.5M1015.5 -2V44.15M1015.5 -2H1061.66M1015.5 44.15H1061.66M1015.5 44.15V90.3M1015.5 90.3V136.45M1015.5 90.3H1061.66M1015.5 136.45H1061.66M1015.5 136.45V228.75M1015.5 367.2V413.35M1015.5 367.2H1061.66M1015.5 367.2V321.05M1015.5 413.35V459.5M1015.5 413.35H1061.66M1015.5 459.5V505.65M1015.5 459.5H1061.66M1015.5 505.65V551.8M1015.5 505.65H1061.66M1015.5 551.8V597.95M1015.5 551.8H1061.66M1015.5 597.95V644.1M1015.5 597.95H1061.66M1015.5 644.1V690.25M1015.5 644.1H1061.66M1015.5 690.25V736.4M1015.5 690.25H1061.66M1015.5 736.4V782.55M1015.5 736.4H1061.66M1015.5 782.55V828.7M1015.5 782.55H1061.66M1015.5 828.7V874.85M1015.5 828.7H1061.66M1015.5 874.85V921M1015.5 874.85H1061.66M1015.5 921H1061.66M1061.66 -2V44.15M1061.66 -2H1107.82M1061.66 44.15H1107.82M1061.66 44.15V90.3M1061.66 90.3V136.45M1061.66 90.3H1107.82M1061.66 136.45H1107.82M1061.66 136.45V228.75M1061.66 367.2V413.35M1061.66 367.2H1107.82M1061.66 367.2V321.05M1061.66 413.35V459.5M1061.66 413.35H1107.82M1061.66 459.5V505.65M1061.66 459.5H1107.82M1061.66 505.65V551.8M1061.66 505.65H1107.82M1061.66 551.8V597.95M1061.66 551.8H1107.82M1061.66 597.95V644.1M1061.66 597.95H1107.82M1061.66 644.1V690.25M1061.66 644.1H1107.82M1061.66 690.25V736.4M1061.66 690.25H1107.82M1061.66 736.4V782.55M1061.66 736.4H1107.82M1061.66 782.55V828.7M1061.66 782.55H1107.82M1061.66 828.7V874.85M1061.66 828.7H1107.82M1061.66 874.85V921M1061.66 874.85H1107.82M1061.66 921H1107.82M1107.82 -2V44.15M1107.82 -2H1153.98M1107.82 44.15H1153.98M1107.82 44.15V90.3M1107.82 90.3V136.45M1107.82 90.3H1153.98M1107.82 136.45H1153.98M1107.82 136.45V182.6M1107.82 367.2V413.35M1107.82 367.2H1153.98M1107.82 367.2V321.05M1107.82 413.35V459.5M1107.82 413.35H1153.98M1107.82 459.5V505.65M1107.82 459.5H1153.98M1107.82 505.65V551.8M1107.82 505.65H1153.98M1107.82 551.8V597.95M1107.82 551.8H1153.98M1107.82 597.95V644.1M1107.82 597.95H1153.98M1107.82 644.1V690.25M1107.82 644.1H1153.98M1107.82 690.25V736.4M1107.82 690.25H1153.98M1107.82 736.4V782.55M1107.82 736.4H1153.98M1107.82 782.55V828.7M1107.82 782.55H1153.98M1107.82 828.7V874.85M1107.82 828.7H1153.98M1107.82 874.85V921M1107.82 874.85H1153.98M1107.82 921H1153.98M1153.98 -2V44.15M1153.98 -2H1200.14M1153.98 44.15V90.3M1153.98 44.15H1200.14M1153.98 90.3V136.45M1153.98 90.3H1200.14M1153.98 136.45H1200.14M1153.98 136.45V182.6M1153.98 367.2V413.35M1153.98 367.2H1200.14M1153.98 367.2V321.05M1153.98 413.35V459.5M1153.98 413.35H1200.14M1153.98 459.5V505.65M1153.98 459.5H1200.14M1153.98 505.65V551.8M1153.98 505.65H1200.14M1153.98 551.8V597.95M1153.98 551.8H1200.14M1153.98 597.95V644.1M1153.98 597.95H1200.14M1153.98 644.1V690.25M1153.98 644.1H1200.14M1153.98 690.25V736.4M1153.98 690.25H1200.14M1153.98 736.4V782.55M1153.98 736.4H1200.14M1153.98 782.55V828.7M1153.98 782.55H1200.14M1153.98 828.7V874.85M1153.98 828.7H1200.14M1153.98 874.85V921M1153.98 874.85H1200.14M1153.98 921H1200.14M1200.14 -2V44.15M1200.14 -2H1246.3M1200.14 44.15V90.3M1200.14 44.15H1246.3M1200.14 90.3V136.45M1200.14 90.3H1246.3M1200.14 136.45H1246.3M1200.14 136.45V228.75M1200.14 367.2V413.35M1200.14 367.2H1246.3M1200.14 367.2V321.05M1200.14 413.35V459.5M1200.14 413.35H1246.3M1200.14 459.5V505.65M1200.14 459.5H1246.3M1200.14 505.65V551.8M1200.14 505.65H1246.3M1200.14 551.8V597.95M1200.14 551.8H1246.3M1200.14 597.95V644.1M1200.14 597.95H1246.3M1200.14 644.1V690.25M1200.14 644.1H1246.3M1200.14 690.25V736.4M1200.14 690.25H1246.3M1200.14 736.4V782.55M1200.14 736.4H1246.3M1200.14 782.55V828.7M1200.14 782.55H1246.3M1200.14 828.7V874.85M1200.14 828.7H1246.3M1200.14 874.85V921M1200.14 874.85H1246.3M1200.14 921H1246.3M1246.3 -2V44.15M1246.3 -2H1292.45M1246.3 44.15V90.3M1246.3 44.15H1292.45M1246.3 90.3V136.45M1246.3 90.3H1292.45M1246.3 136.45H1292.45M1246.3 136.45V228.75M1246.3 367.2V413.35M1246.3 367.2H1292.45M1246.3 367.2V321.05M1246.3 413.35V459.5M1246.3 413.35H1292.45M1246.3 459.5V505.65M1246.3 459.5H1292.45M1246.3 505.65V551.8M1246.3 505.65H1292.45M1246.3 551.8V597.95M1246.3 551.8H1292.45M1246.3 597.95V644.1M1246.3 597.95H1292.45M1246.3 644.1V690.25M1246.3 644.1H1292.45M1246.3 690.25V736.4M1246.3 690.25H1292.45M1246.3 736.4V782.55M1246.3 736.4H1292.45M1246.3 782.55V828.7M1246.3 782.55H1292.45M1246.3 828.7V874.85M1246.3 828.7H1292.45M1246.3 874.85V921M1246.3 874.85H1292.45M1246.3 921H1292.45M1292.45 -2V44.15M1292.45 -2H1338.61M1292.45 44.15V90.3M1292.45 44.15H1338.61M1292.45 90.3V136.45M1292.45 90.3H1338.61M1292.45 136.45H1338.61M1292.45 136.45V228.75M1292.45 367.2V413.35M1292.45 367.2H1338.61M1292.45 367.2V321.05M1292.45 413.35V459.5M1292.45 413.35H1338.61M1292.45 459.5V505.65M1292.45 459.5H1338.61M1292.45 505.65V551.8M1292.45 505.65H1338.61M1292.45 551.8V597.95M1292.45 551.8H1338.61M1292.45 597.95V644.1M1292.45 597.95H1338.61M1292.45 644.1V690.25M1292.45 644.1H1338.61M1292.45 690.25V736.4M1292.45 690.25H1338.61M1292.45 736.4V782.55M1292.45 736.4H1338.61M1292.45 782.55V828.7M1292.45 782.55H1338.61M1292.45 828.7V874.85M1292.45 828.7H1338.61M1292.45 874.85V921M1292.45 874.85H1338.61M1292.45 921H1338.61M1338.61 -2V44.15M1338.61 -2H1384.77M1338.61 44.15V90.3M1338.61 44.15H1384.77M1338.61 90.3V136.45M1338.61 90.3H1384.77M1338.61 136.45H1384.77M1338.61 136.45V228.75M1338.61 367.2V413.35M1338.61 367.2H1384.77M1338.61 367.2V321.05M1338.61 413.35V459.5M1338.61 413.35H1384.77M1338.61 459.5V505.65M1338.61 459.5H1384.77M1338.61 505.65V551.8M1338.61 505.65H1384.77M1338.61 551.8V597.95M1338.61 551.8H1384.77M1338.61 597.95V644.1M1338.61 597.95H1384.77M1338.61 644.1V690.25M1338.61 644.1H1384.77M1338.61 690.25V736.4M1338.61 690.25H1384.77M1338.61 736.4V782.55M1338.61 736.4H1384.77M1338.61 782.55V828.7M1338.61 782.55H1384.77M1338.61 828.7V874.85M1338.61 828.7H1384.77M1338.61 874.85V921M1338.61 874.85H1384.77M1338.61 921H1384.77M1384.77 -2V44.15M1384.77 -2H1430.93M1384.77 44.15V90.3M1384.77 44.15H1430.93M1384.77 90.3V136.45M1384.77 90.3H1430.93M1384.77 136.45H1430.93M1384.77 136.45V274.9M1384.77 274.9V321.05M1384.77 274.9H1430.93M1384.77 274.9H1338.61M1384.77 321.05V367.2M1384.77 321.05H1430.93M1384.77 321.05H1338.61M1384.77 367.2V413.35M1384.77 367.2H1430.93M1384.77 413.35V459.5M1384.77 413.35H1430.93M1384.77 459.5V505.65M1384.77 459.5H1430.93M1384.77 505.65V551.8M1384.77 505.65H1430.93M1384.77 551.8V597.95M1384.77 551.8H1430.93M1384.77 597.95V644.1M1384.77 597.95H1430.93M1384.77 644.1V690.25M1384.77 644.1H1430.93M1384.77 690.25V736.4M1384.77 690.25H1430.93M1384.77 736.4V782.55M1384.77 736.4H1430.93M1384.77 782.55V828.7M1384.77 782.55H1430.93M1384.77 828.7V874.85M1384.77 828.7H1430.93M1384.77 874.85V921M1384.77 874.85H1430.93M1384.77 921H1430.93M1430.93 -2V44.15M1430.93 -2H1477.09M1430.93 44.15V90.3M1430.93 44.15H1477.09M1430.93 90.3V136.45M1430.93 90.3H1477.09M1430.93 136.45H1477.09M1430.93 136.45V274.9M1430.93 274.9V321.05M1430.93 274.9H1477.09M1430.93 321.05V367.2M1430.93 321.05H1477.09M1430.93 367.2V413.35M1430.93 367.2H1477.09M1430.93 413.35V459.5M1430.93 413.35H1477.09M1430.93 459.5V505.65M1430.93 459.5H1477.09M1430.93 505.65V551.8M1430.93 505.65H1477.09M1430.93 551.8V597.95M1430.93 551.8H1477.09M1430.93 597.95V644.1M1430.93 597.95H1477.09M1430.93 644.1V690.25M1430.93 644.1H1477.09M1430.93 690.25V736.4M1430.93 690.25H1477.09M1430.93 736.4V782.55M1430.93 736.4H1477.09M1430.93 782.55V828.7M1430.93 782.55H1477.09M1430.93 828.7V874.85M1430.93 828.7H1477.09M1430.93 874.85V921M1430.93 874.85H1477.09M1430.93 921H1477.09M1477.09 -2V44.15M1477.09 -2H1523.25M1477.09 44.15V90.3M1477.09 44.15H1523.25M1477.09 90.3V136.45M1477.09 90.3H1523.25M1477.09 136.45H1523.25M1477.09 136.45V274.9M1477.09 274.9V321.05M1477.09 274.9H1523.25M1477.09 321.05V367.2M1477.09 321.05H1523.25M1477.09 367.2V413.35M1477.09 367.2H1523.25M1477.09 413.35V459.5M1477.09 413.35H1523.25M1477.09 459.5V505.65M1477.09 459.5H1523.25M1477.09 505.65V551.8M1477.09 505.65H1523.25M1477.09 551.8V597.95M1477.09 551.8H1523.25M1477.09 597.95V644.1M1477.09 597.95H1523.25M1477.09 644.1V690.25M1477.09 644.1H1523.25M1477.09 690.25V736.4M1477.09 690.25H1523.25M1477.09 736.4V782.55M1477.09 736.4H1523.25M1477.09 782.55V828.7M1477.09 782.55H1523.25M1477.09 828.7V874.85M1477.09 828.7H1523.25M1477.09 874.85V921M1477.09 874.85H1523.25M1477.09 921H1523.25M1523.25 -2V44.15M1523.25 -2H1569.41M1523.25 44.15V90.3M1523.25 44.15H1569.41M1523.25 90.3V136.45M1523.25 90.3H1569.41M1523.25 136.45V182.6M1523.25 136.45H1569.41M1523.25 182.6V228.75M1523.25 182.6H1569.41M1523.25 182.6H1153.98M1523.25 228.75V274.9M1523.25 228.75H1569.41M1523.25 228.75H1338.61M1523.25 274.9V321.05M1523.25 274.9H1569.41M1523.25 321.05V367.2M1523.25 321.05H1569.41M1523.25 367.2V413.35M1523.25 367.2H1569.41M1523.25 413.35V459.5M1523.25 413.35H1569.41M1523.25 459.5V505.65M1523.25 459.5H1569.41M1523.25 505.65V551.8M1523.25 505.65H1569.41M1523.25 551.8V597.95M1523.25 551.8H1569.41M1523.25 597.95V644.1M1523.25 597.95H1569.41M1523.25 644.1V690.25M1523.25 644.1H1569.41M1523.25 690.25V736.4M1523.25 690.25H1569.41M1523.25 736.4V782.55M1523.25 736.4H1569.41M1523.25 782.55V828.7M1523.25 782.55H1569.41M1523.25 828.7V874.85M1523.25 828.7H1569.41M1523.25 874.85V921M1523.25 874.85H1569.41M1523.25 921H1569.41M1569.41 -2V44.15M1569.41 -2H1615.57M1569.41 44.15V90.3M1569.41 44.15H1615.57M1569.41 90.3V136.45M1569.41 90.3H1615.57M1569.41 136.45V182.6M1569.41 136.45H1615.57M1569.41 182.6V228.75M1569.41 182.6H1615.57M1569.41 228.75V274.9M1569.41 228.75H1615.57M1569.41 274.9V321.05M1569.41 274.9H1615.57M1569.41 321.05V367.2M1569.41 321.05H1615.57M1569.41 367.2V413.35M1569.41 367.2H1615.57M1569.41 413.35V459.5M1569.41 413.35H1615.57M1569.41 459.5V505.65M1569.41 459.5H1615.57M1569.41 505.65V551.8M1569.41 505.65H1615.57M1569.41 551.8V597.95M1569.41 551.8H1615.57M1569.41 597.95V644.1M1569.41 597.95H1615.57M1569.41 644.1V690.25M1569.41 644.1H1615.57M1569.41 690.25V736.4M1569.41 690.25H1615.57M1569.41 736.4V782.55M1569.41 736.4H1615.57M1569.41 782.55V828.7M1569.41 782.55H1615.57M1569.41 828.7V874.85M1569.41 828.7H1615.57M1569.41 874.85V921M1569.41 874.85H1615.57M1569.41 921H1615.57M1615.57 -2V44.15M1615.57 -2H1661.73M1615.57 44.15V90.3M1615.57 44.15H1661.73M1615.57 90.3V136.45M1615.57 90.3H1661.73M1615.57 136.45V182.6M1615.57 136.45H1661.73M1615.57 182.6V228.75M1615.57 182.6H1661.73M1615.57 228.75V274.9M1615.57 228.75H1661.73M1615.57 274.9V321.05M1615.57 274.9H1661.73M1615.57 321.05V367.2M1615.57 321.05H1661.73M1615.57 367.2V413.35M1615.57 367.2H1661.73M1615.57 413.35V459.5M1615.57 413.35H1661.73M1615.57 459.5V505.65M1615.57 459.5H1661.73M1615.57 505.65V551.8M1615.57 505.65H1661.73M1615.57 551.8V597.95M1615.57 551.8H1661.73M1615.57 597.95V644.1M1615.57 597.95H1661.73M1615.57 644.1V690.25M1615.57 644.1H1661.73M1615.57 690.25V736.4M1615.57 690.25H1661.73M1615.57 736.4V782.55M1615.57 736.4H1661.73M1615.57 782.55V828.7M1615.57 782.55H1661.73M1615.57 828.7V874.85M1615.57 828.7H1661.73M1615.57 874.85V921M1615.57 874.85H1661.73M1615.57 921H1661.73M1661.73 -2V44.15M1661.73 -2H1707.89M1661.73 44.15V90.3M1661.73 44.15H1707.89M1661.73 90.3V136.45M1661.73 90.3H1707.89M1661.73 136.45V182.6M1661.73 136.45H1707.89M1661.73 182.6V228.75M1661.73 182.6H1707.89M1661.73 228.75V274.9M1661.73 228.75H1707.89M1661.73 274.9V321.05M1661.73 274.9H1707.89M1661.73 321.05V367.2M1661.73 321.05H1707.89M1661.73 367.2V413.35M1661.73 367.2H1707.89M1661.73 413.35V459.5M1661.73 413.35H1707.89M1661.73 459.5V505.65M1661.73 459.5H1707.89M1661.73 505.65V551.8M1661.73 505.65H1707.89M1661.73 551.8V597.95M1661.73 551.8H1707.89M1661.73 597.95V644.1M1661.73 597.95H1707.89M1661.73 644.1V690.25M1661.73 644.1H1707.89M1661.73 690.25V736.4M1661.73 690.25H1707.89M1661.73 736.4V782.55M1661.73 736.4H1707.89M1661.73 782.55V828.7M1661.73 782.55H1707.89M1661.73 828.7V874.85M1661.73 828.7H1707.89M1661.73 874.85V921M1661.73 874.85H1707.89M1661.73 921H1707.89M1707.89 -2V44.15M1707.89 -2H1754.05M1707.89 44.15V90.3M1707.89 44.15H1754.05M1707.89 90.3V136.45M1707.89 90.3H1754.05M1707.89 136.45V182.6M1707.89 136.45H1754.05M1707.89 182.6V228.75M1707.89 182.6H1754.05M1707.89 228.75V274.9M1707.89 228.75H1754.05M1707.89 274.9V321.05M1707.89 274.9H1754.05M1707.89 321.05H1754.05M1707.89 321.05V367.2M1707.89 367.2V413.35M1707.89 367.2H1754.05M1707.89 413.35V459.5M1707.89 413.35H1754.05M1707.89 459.5V505.65M1707.89 459.5H1754.05M1707.89 505.65V551.8M1707.89 505.65H1754.05M1707.89 551.8V597.95M1707.89 551.8H1754.05M1707.89 597.95V644.1M1707.89 597.95H1754.05M1707.89 644.1V690.25M1707.89 644.1H1754.05M1707.89 690.25V736.4M1707.89 690.25H1754.05M1707.89 736.4V782.55M1707.89 736.4H1754.05M1707.89 782.55V828.7M1707.89 782.55H1754.05M1707.89 828.7V874.85M1707.89 828.7H1754.05M1707.89 874.85V921M1707.89 874.85H1754.05M1707.89 921H1754.05M1754.05 -2V44.15M1754.05 -2H1800.2M1754.05 44.15V90.3M1754.05 44.15H1800.2M1754.05 90.3V136.45M1754.05 90.3H1800.2M1754.05 136.45V182.6M1754.05 136.45H1800.2M1754.05 182.6V228.75M1754.05 182.6H1800.2M1754.05 228.75V274.9M1754.05 228.75H1800.2M1754.05 274.9V321.05M1754.05 274.9H1800.2M1754.05 321.05V367.2M1754.05 321.05H1800.2M1754.05 367.2V413.35M1754.05 367.2H1800.2M1754.05 413.35V459.5M1754.05 413.35H1800.2M1754.05 459.5V505.65M1754.05 459.5H1800.2M1754.05 505.65V551.8M1754.05 505.65H1800.2M1754.05 551.8V597.95M1754.05 551.8H1800.2M1754.05 597.95V644.1M1754.05 597.95H1800.2M1754.05 644.1V690.25M1754.05 644.1H1800.2M1754.05 690.25V736.4M1754.05 690.25H1800.2M1754.05 736.4V782.55M1754.05 736.4H1800.2M1754.05 782.55V828.7M1754.05 782.55H1800.2M1754.05 828.7V874.85M1754.05 828.7H1800.2M1754.05 874.85V921M1754.05 874.85H1800.2M1754.05 921H1800.2M1800.2 -2V44.15M1800.2 -2H1846.36M1800.2 44.15V90.3M1800.2 44.15H1846.36M1800.2 90.3V136.45M1800.2 90.3H1846.36M1800.2 136.45V182.6M1800.2 136.45H1846.36M1800.2 182.6V228.75M1800.2 182.6H1846.36M1800.2 228.75V274.9M1800.2 228.75H1846.36M1800.2 274.9V321.05M1800.2 274.9H1846.36M1800.2 321.05V367.2M1800.2 321.05H1846.36M1800.2 367.2V413.35M1800.2 367.2H1846.36M1800.2 413.35V459.5M1800.2 413.35H1846.36M1800.2 459.5V505.65M1800.2 459.5H1846.36M1800.2 505.65V551.8M1800.2 505.65H1846.36M1800.2 551.8V597.95M1800.2 551.8H1846.36M1800.2 597.95V644.1M1800.2 597.95H1846.36M1800.2 644.1V690.25M1800.2 644.1H1846.36M1800.2 690.25V736.4M1800.2 690.25H1846.36M1800.2 736.4V782.55M1800.2 736.4H1846.36M1800.2 782.55V828.7M1800.2 782.55H1846.36M1800.2 828.7V874.85M1800.2 828.7H1846.36M1800.2 874.85V921M1800.2 874.85H1846.36M1800.2 921H1846.36M1846.36 -2V44.15M1846.36 -2H1892.52M1846.36 44.15V90.3M1846.36 44.15H1892.52M1846.36 90.3V136.45M1846.36 90.3H1892.52M1846.36 136.45V182.6M1846.36 136.45H1892.52M1846.36 182.6V228.75M1846.36 182.6H1892.52M1846.36 228.75V274.9M1846.36 228.75H1892.52M1846.36 274.9V321.05M1846.36 274.9H1892.52M1846.36 321.05V367.2M1846.36 321.05H1892.52M1846.36 367.2V413.35M1846.36 367.2H1892.52M1846.36 413.35V459.5M1846.36 413.35H1892.52M1846.36 459.5V505.65M1846.36 459.5H1892.52M1846.36 505.65V551.8M1846.36 505.65H1892.52M1846.36 551.8V597.95M1846.36 551.8H1892.52M1846.36 597.95V644.1M1846.36 597.95H1892.52M1846.36 644.1V690.25M1846.36 644.1H1892.52M1846.36 690.25V736.4M1846.36 690.25H1892.52M1846.36 736.4V782.55M1846.36 736.4H1892.52M1846.36 782.55V828.7M1846.36 782.55H1892.52M1846.36 828.7V874.85M1846.36 828.7H1892.52M1846.36 874.85V921M1846.36 874.85H1892.52M1846.36 921H1892.52M1892.52 -2V44.15M1892.52 -2H1938.68M1892.52 44.15V90.3M1892.52 44.15H1938.68M1892.52 90.3V136.45M1892.52 90.3H1938.68M1892.52 136.45V182.6M1892.52 136.45H1938.68M1892.52 182.6V228.75M1892.52 182.6H1938.68M1892.52 228.75V274.9M1892.52 228.75H1938.68M1892.52 274.9V321.05M1892.52 274.9H1938.68M1892.52 321.05V367.2M1892.52 321.05H1938.68M1892.52 367.2V413.35M1892.52 367.2H1938.68M1892.52 413.35V459.5M1892.52 413.35H1938.68M1892.52 459.5V505.65M1892.52 459.5H1938.68M1892.52 505.65V551.8M1892.52 505.65H1938.68M1892.52 551.8V597.95M1892.52 551.8H1938.68M1892.52 597.95V644.1M1892.52 597.95H1938.68M1892.52 644.1V690.25M1892.52 644.1H1938.68M1892.52 690.25V736.4M1892.52 690.25H1938.68M1892.52 736.4V782.55M1892.52 736.4H1938.68M1892.52 782.55V828.7M1892.52 782.55H1938.68M1892.52 828.7V874.85M1892.52 828.7H1938.68M1892.52 874.85V921M1892.52 874.85H1938.68M1892.52 921H1938.68M1938.68 -2V44.15M1938.68 -2H1984.84M1938.68 44.15V90.3M1938.68 44.15H1984.84M1938.68 90.3V136.45M1938.68 90.3H1984.84M1938.68 136.45V182.6M1938.68 136.45H1984.84M1938.68 182.6V228.75M1938.68 182.6H1984.84M1938.68 228.75V274.9M1938.68 228.75H1984.84M1938.68 274.9V321.05M1938.68 274.9H1984.84M1938.68 321.05V367.2M1938.68 321.05H1984.84M1938.68 367.2V413.35M1938.68 367.2H1984.84M1938.68 413.35V459.5M1938.68 413.35H1984.84M1938.68 459.5V505.65M1938.68 459.5H1984.84M1938.68 505.65V551.8M1938.68 505.65H1984.84M1938.68 551.8V597.95M1938.68 551.8H1984.84M1938.68 597.95V644.1M1938.68 597.95H1984.84M1938.68 644.1V690.25M1938.68 644.1H1984.84M1938.68 690.25V736.4M1938.68 690.25H1984.84M1938.68 736.4V782.55M1938.68 736.4H1984.84M1938.68 782.55V828.7M1938.68 782.55H1984.84M1938.68 828.7V874.85M1938.68 828.7H1984.84M1938.68 874.85V921M1938.68 874.85H1984.84M1938.68 921H1984.84M1984.84 -2V44.15M1984.84 -2H2016C2024.28 -2 2031 4.71573 2031 13V44.15M1984.84 44.15V90.3M1984.84 44.15H2031M1984.84 90.3V136.45M1984.84 90.3H2031M1984.84 136.45V182.6M1984.84 136.45H2031M1984.84 182.6V228.75M1984.84 182.6H2031M1984.84 228.75V274.9M1984.84 228.75H2031M1984.84 274.9V321.05M1984.84 274.9H2031M1984.84 321.05V367.2M1984.84 321.05H2031M1984.84 367.2V413.35M1984.84 367.2H2031M1984.84 413.35V459.5M1984.84 413.35H2031M1984.84 459.5V505.65M1984.84 459.5H2031M1984.84 505.65V551.8M1984.84 505.65H2031M1984.84 551.8V597.95M1984.84 551.8H2031M1984.84 597.95V644.1M1984.84 597.95H2031M1984.84 644.1V690.25M1984.84 644.1H2031M1984.84 690.25V736.4M1984.84 690.25H2031M1984.84 736.4V782.55M1984.84 736.4H2031M1984.84 782.55V828.7M1984.84 782.55H2031M1984.84 828.7V874.85M1984.84 828.7H2031M1984.84 874.85V921M1984.84 874.85H2031M1984.84 921H2016C2024.28 921 2031 914.284 2031 906V874.85M2031 44.15V90.3M2031 90.3V136.45M2031 136.45V182.6M2031 182.6V228.75M2031 228.75V274.9M2031 274.9V321.05M2031 321.05V367.2M2031 367.2V413.35M2031 413.35V459.5M2031 459.5V505.65M2031 505.65V551.8M2031 551.8V597.95M2031 597.95V644.1M2031 644.1V690.25M2031 690.25V736.4M2031 736.4V782.55M2031 782.55V828.7M2031 828.7V874.85M553.909 182.6V228.75M553.909 182.6H600.068M553.909 228.75H600.068M600.068 228.75V182.6M600.068 228.75H646.227M600.068 182.6H646.227M646.227 228.75H692.386M646.227 228.75V182.6M692.386 274.9V228.75M692.386 274.9V321.05M692.386 274.9H738.545M692.386 228.75V182.6M692.386 228.75H738.545M692.386 182.6H646.227M692.386 182.6H738.545M738.545 228.75V182.6M738.545 228.75H784.705M738.545 228.75V274.9M738.545 182.6H784.705M784.705 228.75V182.6M784.705 228.75V274.9M784.705 228.75H830.864M784.705 182.6H923.182M923.182 182.6H969.341M923.182 182.6V228.75M969.341 182.6H1107.82M969.341 182.6V228.75M1107.82 182.6H1153.98M1107.82 182.6V228.75M1153.98 182.6V228.75M692.386 321.05H738.545M738.545 274.9V321.05M738.545 274.9H784.705M738.545 321.05H784.705M784.705 321.05V274.9M784.705 321.05H830.864M784.705 274.9H830.864M830.864 274.9V228.75M830.864 274.9V321.05M830.864 274.9H877.023M830.864 228.75H877.023M830.864 321.05H877.023M877.023 321.05V274.9M877.023 321.05H923.182M877.023 274.9V228.75M877.023 274.9H923.182M877.023 228.75H923.182M923.182 274.9V228.75M923.182 274.9V321.05M923.182 274.9H969.341M923.182 228.75H969.341M923.182 321.05H969.341M969.341 321.05V274.9M969.341 321.05H1015.5M969.341 274.9V228.75M969.341 274.9H1015.5M969.341 228.75H1015.5M1015.5 274.9V228.75M1015.5 274.9V321.05M1015.5 274.9H1061.66M1015.5 228.75H1061.66M1015.5 321.05H1061.66M1061.66 321.05V274.9M1061.66 321.05H1107.82M1061.66 274.9V228.75M1061.66 274.9H1107.82M1061.66 228.75H1107.82M1107.82 274.9V228.75M1107.82 274.9V321.05M1107.82 274.9H1153.98M1107.82 228.75H1153.98M1107.82 321.05H1153.98M1153.98 321.05V274.9M1153.98 321.05H1200.14M1153.98 274.9V228.75M1153.98 274.9H1200.14M1153.98 228.75H1200.14M1200.14 321.05V274.9M1200.14 321.05H1246.3M1200.14 274.9H1246.3M1200.14 274.9V228.75M1246.3 321.05V274.9M1246.3 321.05H1292.45M1246.3 274.9V228.75M1246.3 274.9H1292.45M1246.3 228.75H1200.14M1246.3 228.75H1292.45M1292.45 321.05V274.9M1292.45 321.05H1338.61M1292.45 274.9H1338.61M1292.45 274.9V228.75M1338.61 321.05V274.9M1338.61 274.9V228.75M1338.61 228.75H1292.45" stroke="url(#paint0_linear_23_98)" stroke-width="1.61"/>
<defs>
<linearGradient id="paint0_linear_23_98" x1="1058.5" y1="224" x2="1015.5" y2="1147.71" gradientUnits="userSpaceOnUse">
<stop stop-opacity="0.05"/>
<stop offset="0.144" stop-opacity="0"/>
</linearGradient>
</defs>
</svg>
