<svg width="1340" height="919" viewBox="0 0 1340 919" fill="none" xmlns="http://www.w3.org/2000/svg">
<path d="M0 369.2H46.1591V415.35H0V369.2Z" fill="white"/>
<path d="M0 415.35H46.1591V461.5H0V415.35Z" fill="white"/>
<path d="M0 461.5H46.1591V507.65H0V461.5Z" fill="white"/>
<path d="M0 507.65H46.1591V553.8H0V507.65Z" fill="white"/>
<path d="M0 553.8H46.1591V599.95H0V553.8Z" fill="white"/>
<path d="M0 599.95H46.1591V646.1H0V599.95Z" fill="white"/>
<path d="M0 646.1H46.1591V692.25H0V646.1Z" fill="white"/>
<path d="M0 692.25H46.1591V738.4H0V692.25Z" fill="white"/>
<path d="M0 738.4H46.1591V784.55H0V738.4Z" fill="white"/>
<path d="M0 784.55H46.1591V830.7H0V784.55Z" fill="white"/>
<path d="M0 830.7H46.1591V876.85H0V830.7Z" fill="white"/>
<path d="M0 876.85H46.1591V923H15C6.71574 923 0 916.284 0 908V876.85Z" fill="white"/>
<path d="M46.1591 369.2H92.3182V415.35H46.1591V369.2Z" fill="white"/>
<path d="M46.1591 415.35H92.3182V461.5H46.1591V415.35Z" fill="white"/>
<path d="M46.1591 461.5H92.3182V507.65H46.1591V461.5Z" fill="white"/>
<path d="M46.1591 507.65H92.3182V553.8H46.1591V507.65Z" fill="white"/>
<path d="M46.1591 553.8H92.3182V599.95H46.1591V553.8Z" fill="white"/>
<path d="M46.1591 599.95H92.3182V646.1H46.1591V599.95Z" fill="white"/>
<path d="M46.1591 646.1H92.3182V692.25H46.1591V646.1Z" fill="white"/>
<path d="M46.1591 692.25H92.3182V738.4H46.1591V692.25Z" fill="white"/>
<path d="M46.1591 738.4H92.3182V784.55H46.1591V738.4Z" fill="white"/>
<path d="M46.1591 784.55H92.3182V830.7H46.1591V784.55Z" fill="white"/>
<path d="M46.1591 830.7H92.3182V876.85H46.1591V830.7Z" fill="white"/>
<path d="M46.1591 876.85H92.3182V923H46.1591V876.85Z" fill="white"/>
<path d="M92.3182 369.2H138.477V415.35H92.3182V369.2Z" fill="white"/>
<path d="M92.3182 415.35H138.477V461.5H92.3182V415.35Z" fill="white"/>
<path d="M92.3182 461.5H138.477V507.65H92.3182V461.5Z" fill="white"/>
<path d="M92.3182 507.65H138.477V553.8H92.3182V507.65Z" fill="white"/>
<path d="M92.3182 553.8H138.477V599.95H92.3182V553.8Z" fill="white"/>
<path d="M92.3182 599.95H138.477V646.1H92.3182V599.95Z" fill="white"/>
<path d="M92.3182 646.1H138.477V692.25H92.3182V646.1Z" fill="white"/>
<path d="M92.3182 692.25H138.477V738.4H92.3182V692.25Z" fill="white"/>
<path d="M92.3182 738.4H138.477V784.55H92.3182V738.4Z" fill="white"/>
<path d="M92.3182 784.55H138.477V830.7H92.3182V784.55Z" fill="white"/>
<path d="M92.3182 830.7H138.477V876.85H92.3182V830.7Z" fill="white"/>
<path d="M92.3182 876.85H138.477V923H92.3182V876.85Z" fill="white"/>
<path d="M138.477 369.2H184.636V415.35H138.477V369.2Z" fill="white"/>
<path d="M138.477 415.35H184.636V461.5H138.477V415.35Z" fill="white"/>
<path d="M138.477 461.5H184.636V507.65H138.477V461.5Z" fill="white"/>
<path d="M138.477 507.65H184.636V553.8H138.477V507.65Z" fill="white"/>
<path d="M138.477 553.8H184.636V599.95H138.477V553.8Z" fill="white"/>
<path d="M138.477 599.95H184.636V646.1H138.477V599.95Z" fill="white"/>
<path d="M138.477 646.1H184.636V692.25H138.477V646.1Z" fill="white"/>
<path d="M138.477 692.25H184.636V738.4H138.477V692.25Z" fill="white"/>
<path d="M138.477 738.4H184.636V784.55H138.477V738.4Z" fill="white"/>
<path d="M138.477 784.55H184.636V830.7H138.477V784.55Z" fill="white"/>
<path d="M138.477 830.7H184.636V876.85H138.477V830.7Z" fill="white"/>
<path d="M138.477 876.85H184.636V923H138.477V876.85Z" fill="white"/>
<path d="M184.636 369.2H230.795V415.35H184.636V369.2Z" fill="white"/>
<path d="M184.636 415.35H230.795V461.5H184.636V415.35Z" fill="white"/>
<path d="M184.636 461.5H230.795V507.65H184.636V461.5Z" fill="white"/>
<path d="M184.636 507.65H230.795V553.8H184.636V507.65Z" fill="white"/>
<path d="M184.636 553.8H230.795V599.95H184.636V553.8Z" fill="white"/>
<path d="M184.636 599.95H230.795V646.1H184.636V599.95Z" fill="white"/>
<path d="M184.636 646.1H230.795V692.25H184.636V646.1Z" fill="white"/>
<path d="M184.636 692.25H230.795V738.4H184.636V692.25Z" fill="white"/>
<path d="M184.636 738.4H230.795V784.55H184.636V738.4Z" fill="white"/>
<path d="M184.636 784.55H230.795V830.7H184.636V784.55Z" fill="white"/>
<path d="M184.636 830.7H230.795V876.85H184.636V830.7Z" fill="white"/>
<path d="M184.636 876.85H230.795V923H184.636V876.85Z" fill="white"/>
<path d="M230.795 369.2H276.955V415.35H230.795V369.2Z" fill="white"/>
<path d="M230.795 415.35H276.955V461.5H230.795V415.35Z" fill="white"/>
<path d="M230.795 461.5H276.955V507.65H230.795V461.5Z" fill="white"/>
<path d="M230.795 507.65H276.955V553.8H230.795V507.65Z" fill="white"/>
<path d="M230.795 553.8H276.955V599.95H230.795V553.8Z" fill="white"/>
<path d="M230.795 599.95H276.955V646.1H230.795V599.95Z" fill="white"/>
<path d="M230.795 646.1H276.955V692.25H230.795V646.1Z" fill="white"/>
<path d="M230.795 692.25H276.955V738.4H230.795V692.25Z" fill="white"/>
<path d="M230.795 738.4H276.955V784.55H230.795V738.4Z" fill="white"/>
<path d="M230.795 784.55H276.955V830.7H230.795V784.55Z" fill="white"/>
<path d="M230.795 830.7H276.955V876.85H230.795V830.7Z" fill="white"/>
<path d="M230.795 876.85H276.955V923H230.795V876.85Z" fill="white"/>
<path d="M276.955 369.2H323.114V415.35H276.955V369.2Z" fill="white"/>
<path d="M276.955 415.35H323.114V461.5H276.955V415.35Z" fill="white"/>
<path d="M276.955 461.5H323.114V507.65H276.955V461.5Z" fill="white"/>
<path d="M276.955 507.65H323.114V553.8H276.955V507.65Z" fill="white"/>
<path d="M276.955 553.8H323.114V599.95H276.955V553.8Z" fill="white"/>
<path d="M276.955 599.95H323.114V646.1H276.955V599.95Z" fill="white"/>
<path d="M276.955 646.1H323.114V692.25H276.955V646.1Z" fill="white"/>
<path d="M276.955 692.25H323.114V738.4H276.955V692.25Z" fill="white"/>
<path d="M276.955 738.4H323.114V784.55H276.955V738.4Z" fill="white"/>
<path d="M276.955 784.55H323.114V830.7H276.955V784.55Z" fill="white"/>
<path d="M276.955 830.7H323.114V876.85H276.955V830.7Z" fill="white"/>
<path d="M276.955 876.85H323.114V923H276.955V876.85Z" fill="white"/>
<path d="M323.114 369.2H369.273V415.35H323.114V369.2Z" fill="white"/>
<path d="M323.114 461.5H369.273V507.65H323.114V461.5Z" fill="white"/>
<path d="M323.114 507.65H369.273V553.8H323.114V507.65Z" fill="white"/>
<path d="M323.114 553.8H369.273V599.95H323.114V553.8Z" fill="white"/>
<path d="M323.114 599.95H369.273V646.1H323.114V599.95Z" fill="white"/>
<path d="M323.114 646.1H369.273V692.25H323.114V646.1Z" fill="white"/>
<path d="M323.114 692.25H369.273V738.4H323.114V692.25Z" fill="white"/>
<path d="M323.114 738.4H369.273V784.55H323.114V738.4Z" fill="white"/>
<path d="M323.114 784.55H369.273V830.7H323.114V784.55Z" fill="white"/>
<path d="M323.114 830.7H369.273V876.85H323.114V830.7Z" fill="white"/>
<path d="M323.114 876.85H369.273V923H323.114V876.85Z" fill="white"/>
<path d="M369.273 369.2H415.432V415.35H369.273V369.2Z" fill="white"/>
<path d="M369.273 415.35H415.432V461.5H369.273V415.35Z" fill="white"/>
<path d="M369.273 461.5H415.432V507.65H369.273V461.5Z" fill="white"/>
<path d="M369.273 507.65H415.432V553.8H369.273V507.65Z" fill="white"/>
<path d="M369.273 553.8H415.432C415.432 553.8 415.432 581.927 415.432 599.95C397.406 599.95 369.273 599.95 369.273 599.95V553.8Z" fill="white"/>
<path d="M369.273 599.95C369.273 599.95 397.406 599.95 415.432 599.95C415.432 617.973 415.432 646.1 415.432 646.1H369.273V599.95Z" fill="white"/>
<path d="M369.273 646.1H415.432V692.25H369.273V646.1Z" fill="white"/>
<path d="M369.273 692.25H415.432V738.4H369.273V692.25Z" fill="white"/>
<path d="M369.273 738.4H415.432V784.55H369.273V738.4Z" fill="white"/>
<path d="M369.273 784.55H415.432V830.7H369.273V784.55Z" fill="white"/>
<path d="M369.273 830.7H415.432V876.85H369.273V830.7Z" fill="white"/>
<path d="M369.273 876.85H415.432V923H369.273V876.85Z" fill="white"/>
<path d="M415.432 369.2H461.591V415.35H415.432V369.2Z" fill="white"/>
<path d="M415.432 415.35H461.591V461.5H415.432V415.35Z" fill="white"/>
<path d="M415.432 461.5H461.591V507.65H415.432V461.5Z" fill="white"/>
<path d="M415.432 507.65H461.591V553.8H415.432V507.65Z" fill="white"/>
<path d="M415.432 553.8H461.591V599.95C461.591 599.95 433.458 599.95 415.432 599.95C415.432 581.927 415.432 553.8 415.432 553.8Z" fill="white"/>
<path d="M415.432 599.95C433.458 599.95 461.591 599.95 461.591 599.95V646.1H415.432C415.432 646.1 415.432 617.973 415.432 599.95Z" fill="white"/>
<path d="M415.432 646.1H461.591V692.25H415.432V646.1Z" fill="white"/>
<path d="M415.432 692.25H461.591V738.4H415.432V692.25Z" fill="white"/>
<path d="M415.432 738.4H461.591V784.55H415.432V738.4Z" fill="white"/>
<path d="M415.432 784.55H461.591V830.7H415.432V784.55Z" fill="white"/>
<path d="M415.432 830.7H461.591V876.85H415.432V830.7Z" fill="white"/>
<path d="M415.432 876.85H461.591V923H415.432V876.85Z" fill="white"/>
<path d="M461.591 369.2H507.75V415.35H461.591V369.2Z" fill="white"/>
<path d="M461.591 461.5H507.75V507.65H461.591V461.5Z" fill="white"/>
<path d="M461.591 507.65H507.75V553.8H461.591V507.65Z" fill="white"/>
<path d="M461.591 553.8H507.75V599.95H461.591V553.8Z" fill="white"/>
<path d="M461.591 599.95H507.75V646.1H461.591V599.95Z" fill="white"/>
<path d="M461.591 646.1H507.75V692.25H461.591V646.1Z" fill="white"/>
<path d="M461.591 692.25H507.75V738.4H461.591V692.25Z" fill="white"/>
<path d="M461.591 738.4H507.75V784.55H461.591V738.4Z" fill="white"/>
<path d="M461.591 784.55H507.75V830.7H461.591V784.55Z" fill="white"/>
<path d="M461.591 830.7H507.75V876.85H461.591V830.7Z" fill="white"/>
<path d="M461.591 876.85H507.75V923H461.591V876.85Z" fill="white"/>
<path d="M507.75 369.2H553.909V415.35H507.75V369.2Z" fill="white"/>
<path d="M507.75 415.35H553.909V461.5H507.75V415.35Z" fill="white"/>
<path d="M507.75 461.5H553.909V507.65H507.75V461.5Z" fill="white"/>
<path d="M507.75 507.65H553.909V553.8H507.75V507.65Z" fill="white"/>
<path d="M507.75 553.8H553.909V599.95H507.75V553.8Z" fill="white"/>
<path d="M507.75 599.95H553.909V646.1H507.75V599.95Z" fill="white"/>
<path d="M507.75 646.1H553.909V692.25H507.75V646.1Z" fill="white"/>
<path d="M507.75 692.25H553.909V738.4H507.75V692.25Z" fill="white"/>
<path d="M507.75 738.4H553.909V784.55H507.75V738.4Z" fill="white"/>
<path d="M507.75 784.55H553.909V830.7H507.75V784.55Z" fill="white"/>
<path d="M507.75 830.7H553.909V876.85H507.75V830.7Z" fill="white"/>
<path d="M507.75 876.85H553.909V923H507.75V876.85Z" fill="white"/>
<path d="M553.909 369.2H600.068V415.35H553.909V369.2Z" fill="white"/>
<path d="M553.909 415.35H600.068V461.5H553.909V415.35Z" fill="white"/>
<path d="M553.909 461.5H600.068V507.65H553.909V461.5Z" fill="white"/>
<path d="M553.909 507.65H600.068V553.8H553.909V507.65Z" fill="white"/>
<path d="M553.909 553.8H600.068V599.95H553.909V553.8Z" fill="white"/>
<path d="M553.909 599.95H600.068V646.1H553.909V599.95Z" fill="white"/>
<path d="M553.909 646.1H600.068V692.25H553.909V646.1Z" fill="white"/>
<path d="M553.909 692.25H600.068V738.4H553.909V692.25Z" fill="white"/>
<path d="M553.909 738.4H600.068V784.55H553.909V738.4Z" fill="white"/>
<path d="M553.909 784.55H600.068V830.7H553.909V784.55Z" fill="white"/>
<path d="M553.909 830.7H600.068V876.85H553.909V830.7Z" fill="white"/>
<path d="M553.909 876.85H600.068V923H553.909V876.85Z" fill="white"/>
<path d="M600.068 369.2H646.227V415.35H600.068V369.2Z" fill="white"/>
<path d="M600.068 415.35H646.227V461.5H600.068V415.35Z" fill="white"/>
<path d="M600.068 461.5H646.227V507.65H600.068V461.5Z" fill="white"/>
<path d="M600.068 507.65H646.227V553.8H600.068V507.65Z" fill="white"/>
<path d="M600.068 553.8H646.227V599.95H600.068V553.8Z" fill="white"/>
<path d="M600.068 599.95H646.227V646.1H600.068V599.95Z" fill="white"/>
<path d="M600.068 646.1H646.227V692.25H600.068V646.1Z" fill="white"/>
<path d="M600.068 692.25H646.227V738.4H600.068V692.25Z" fill="white"/>
<path d="M600.068 738.4H646.227V784.55H600.068V738.4Z" fill="white"/>
<path d="M600.068 784.55H646.227V830.7H600.068V784.55Z" fill="white"/>
<path d="M600.068 830.7H646.227V876.85H600.068V830.7Z" fill="white"/>
<path d="M600.068 876.85H646.227V923H600.068V876.85Z" fill="white"/>
<path d="M646.227 369.2H692.386V415.35H646.227V369.2Z" fill="white"/>
<path d="M646.227 415.35H692.386V461.5H646.227V415.35Z" fill="white"/>
<path d="M646.227 461.5H692.386V507.65H646.227V461.5Z" fill="white"/>
<path d="M646.227 507.65H692.386V553.8H646.227V507.65Z" fill="white"/>
<path d="M646.227 553.8H692.386V599.95H646.227V553.8Z" fill="white"/>
<path d="M646.227 599.95H692.386V646.1H646.227V599.95Z" fill="white"/>
<path d="M646.227 830.7H692.386V876.85H646.227V830.7Z" fill="white"/>
<path d="M646.227 876.85H692.386V923H646.227V876.85Z" fill="white"/>
<path d="M692.386 415.35H738.545V461.5H692.386V415.35Z" fill="white"/>
<path d="M692.386 461.5H738.545V507.65H692.386V461.5Z" fill="white"/>
<path d="M692.386 507.65H738.545V553.8H692.386V507.65Z" fill="white"/>
<path d="M692.386 599.95H738.545V646.1H692.386V599.95Z" fill="white"/>
<path d="M692.386 646.1H738.545V692.25H692.386V646.1Z" fill="white"/>
<path d="M692.386 692.25H738.545V738.4H692.386V692.25Z" fill="white"/>
<path d="M692.386 738.4H738.545V784.55H692.386V738.4Z" fill="white"/>
<path d="M692.386 784.55H738.545V830.7H692.386V784.55Z" fill="white"/>
<path d="M692.386 830.7H738.545V876.85H692.386V830.7Z" fill="white"/>
<path d="M692.386 876.85H738.545V923H692.386V876.85Z" fill="white"/>
<path d="M738.545 369.2H784.705V415.35H738.545V369.2Z" fill="white"/>
<path d="M738.545 415.35H784.705V461.5H738.545V415.35Z" fill="white"/>
<path d="M738.545 507.65H784.705V553.8H738.545V507.65Z" fill="white"/>
<path d="M738.545 553.8H784.705V599.95H738.545V553.8Z" fill="white"/>
<path d="M738.545 599.95H784.705V646.1H738.545V599.95Z" fill="white"/>
<path d="M738.545 646.1H784.705V692.25H738.545V646.1Z" fill="white"/>
<path d="M738.545 692.25H784.705V738.4H738.545V692.25Z" fill="white"/>
<path d="M738.545 738.4H784.705V784.55H738.545V738.4Z" fill="white"/>
<path d="M738.545 784.55H784.705V830.7H738.545V784.55Z" fill="white"/>
<path d="M738.545 830.7H784.705V876.85H738.545V830.7Z" fill="white"/>
<path d="M738.545 876.85H784.705V923H738.545V876.85Z" fill="white"/>
<path d="M784.705 369.2H830.864V415.35H784.705V369.2Z" fill="white"/>
<path d="M784.705 415.35H830.864V461.5H784.705V415.35Z" fill="white"/>
<path d="M784.705 461.5H830.864V507.65H784.705V461.5Z" fill="white"/>
<path d="M784.705 507.65H830.864V553.8H784.705V507.65Z" fill="white"/>
<path d="M784.705 553.8H830.864V599.95H784.705V553.8Z" fill="white"/>
<path d="M784.705 599.95H830.864V646.1H784.705V599.95Z" fill="white"/>
<path d="M784.705 646.1H830.864V692.25H784.705V646.1Z" fill="white"/>
<path d="M784.705 692.25H830.864V738.4H784.705V692.25Z" fill="white"/>
<path d="M784.705 738.4H830.864V784.55H784.705V738.4Z" fill="white"/>
<path d="M784.705 784.55H830.864V830.7H784.705V784.55Z" fill="white"/>
<path d="M784.705 830.7H830.864V876.85H784.705V830.7Z" fill="white"/>
<path d="M784.705 876.85H830.864V923H784.705V876.85Z" fill="white"/>
<path d="M830.864 369.2H877.023V415.35H830.864V369.2Z" fill="white"/>
<path d="M830.864 415.35H877.023V461.5H830.864V415.35Z" fill="white"/>
<path d="M830.864 461.5H877.023V507.65H830.864V461.5Z" fill="white"/>
<path d="M830.864 507.65H877.023V553.8H830.864V507.65Z" fill="white"/>
<path d="M830.864 553.8H877.023V599.95H830.864V553.8Z" fill="white"/>
<path d="M830.864 599.95H877.023V646.1H830.864V599.95Z" fill="white"/>
<path d="M830.864 646.1H877.023V692.25H830.864V646.1Z" fill="white"/>
<path d="M830.864 692.25H877.023V738.4H830.864V692.25Z" fill="white"/>
<path d="M830.864 738.4H877.023V784.55H830.864V738.4Z" fill="white"/>
<path d="M830.864 784.55H877.023V830.7H830.864V784.55Z" fill="white"/>
<path d="M830.864 830.7H877.023V876.85H830.864V830.7Z" fill="white"/>
<path d="M830.864 876.85H877.023V923H830.864V876.85Z" fill="white"/>
<path d="M877.023 461.5H923.182V507.65H877.023V461.5Z" fill="white"/>
<path d="M877.023 507.65H923.182V553.8H877.023V507.65Z" fill="white"/>
<path d="M877.023 553.8H923.182V599.95H877.023V553.8Z" fill="white"/>
<path d="M877.023 599.95H923.182V646.1H877.023V599.95Z" fill="white"/>
<path d="M877.023 646.1H923.182V692.25H877.023V646.1Z" fill="white"/>
<path d="M877.023 692.25H923.182V738.4H877.023V692.25Z" fill="white"/>
<path d="M877.023 738.4H923.182V784.55H877.023V738.4Z" fill="white"/>
<path d="M877.023 784.55H923.182V830.7H877.023V784.55Z" fill="white"/>
<path d="M877.023 830.7H923.182V876.85H877.023V830.7Z" fill="white"/>
<path d="M877.023 876.85H923.182V923H877.023V876.85Z" fill="white"/>
<path d="M923.182 369.2H969.341V415.35H923.182V369.2Z" fill="white"/>
<path d="M923.182 415.35H969.341V461.5H923.182V415.35Z" fill="white"/>
<path d="M923.182 461.5H969.341V507.65H923.182V461.5Z" fill="white"/>
<path d="M923.182 507.65H969.341V553.8H923.182V507.65Z" fill="white"/>
<path d="M923.182 553.8H969.341V599.95H923.182V553.8Z" fill="white"/>
<path d="M923.182 599.95H969.341V646.1H923.182V599.95Z" fill="white"/>
<path d="M923.182 646.1H969.341V692.25H923.182V646.1Z" fill="white"/>
<path d="M923.182 692.25H969.341V738.4H923.182V692.25Z" fill="white"/>
<path d="M923.182 738.4H969.341V784.55H923.182V738.4Z" fill="white"/>
<path d="M923.182 784.55H969.341V830.7H923.182V784.55Z" fill="white"/>
<path d="M923.182 830.7H969.341V876.85H923.182V830.7Z" fill="white"/>
<path d="M923.182 876.85H969.341V923H923.182V876.85Z" fill="white"/>
<path d="M969.341 369.2H1015.5V415.35H969.341V369.2Z" fill="white"/>
<path d="M969.341 415.35H1015.5V461.5H969.341V415.35Z" fill="white"/>
<path d="M969.341 461.5H1015.5V507.65H969.341V461.5Z" fill="white"/>
<path d="M969.341 507.65H1015.5V553.8H969.341V507.65Z" fill="white"/>
<path d="M969.341 553.8H1015.5V599.95H969.341V553.8Z" fill="white"/>
<path d="M969.341 599.95H1015.5V646.1H969.341V599.95Z" fill="white"/>
<path d="M969.341 646.1H1015.5V692.25H969.341V646.1Z" fill="white"/>
<path d="M969.341 692.25H1015.5V738.4H969.341V692.25Z" fill="white"/>
<path d="M969.341 738.4H1015.5V784.55H969.341V738.4Z" fill="white"/>
<path d="M969.341 784.55H1015.5V830.7H969.341V784.55Z" fill="white"/>
<path d="M969.341 830.7H1015.5V876.85H969.341V830.7Z" fill="white"/>
<path d="M969.341 876.85H1015.5V923H969.341V876.85Z" fill="white"/>
<path d="M1015.5 369.2H1061.66V415.35H1015.5V369.2Z" fill="white"/>
<path d="M1015.5 415.35H1061.66V461.5H1015.5V415.35Z" fill="white"/>
<path d="M1015.5 461.5H1061.66V507.65H1015.5V461.5Z" fill="white"/>
<path d="M1015.5 507.65H1061.66V553.8H1015.5V507.65Z" fill="white"/>
<path d="M1015.5 553.8H1061.66V599.95H1015.5V553.8Z" fill="white"/>
<path d="M1015.5 599.95H1061.66V646.1H1015.5V599.95Z" fill="white"/>
<path d="M1015.5 646.1H1061.66V692.25H1015.5V646.1Z" fill="white"/>
<path d="M1015.5 692.25H1061.66V738.4H1015.5V692.25Z" fill="white"/>
<path d="M1015.5 738.4H1061.66V784.55H1015.5V738.4Z" fill="white"/>
<path d="M1015.5 784.55H1061.66V830.7H1015.5V784.55Z" fill="white"/>
<path d="M1015.5 830.7H1061.66V876.85H1015.5V830.7Z" fill="white"/>
<path d="M1015.5 876.85H1061.66V923H1015.5V876.85Z" fill="white"/>
<path d="M1061.66 369.2H1107.82V415.35H1061.66V369.2Z" fill="white"/>
<path d="M1061.66 415.35H1107.82V461.5H1061.66V415.35Z" fill="white"/>
<path d="M1061.66 461.5H1107.82V507.65H1061.66V461.5Z" fill="white"/>
<path d="M1061.66 507.65H1107.82V553.8H1061.66V507.65Z" fill="white"/>
<path d="M1061.66 553.8H1107.82V599.95H1061.66V553.8Z" fill="white"/>
<path d="M1061.66 599.95H1107.82V646.1H1061.66V599.95Z" fill="white"/>
<path d="M1061.66 646.1H1107.82V692.25H1061.66V646.1Z" fill="white"/>
<path d="M1061.66 692.25H1107.82V738.4H1061.66V692.25Z" fill="white"/>
<path d="M1061.66 738.4H1107.82V784.55H1061.66V738.4Z" fill="white"/>
<path d="M1061.66 784.55H1107.82V830.7H1061.66V784.55Z" fill="white"/>
<path d="M1061.66 830.7H1107.82V876.85H1061.66V830.7Z" fill="white"/>
<path d="M1061.66 876.85H1107.82V923H1061.66V876.85Z" fill="white"/>
<path d="M1107.82 369.2H1153.98V415.35H1107.82V369.2Z" fill="white"/>
<path d="M1107.82 415.35H1153.98V461.5H1107.82V415.35Z" fill="white"/>
<path d="M1107.82 461.5H1153.98V507.65H1107.82V461.5Z" fill="white"/>
<path d="M1107.82 507.65H1153.98V553.8H1107.82V507.65Z" fill="white"/>
<path d="M1107.82 553.8H1153.98V599.95H1107.82V553.8Z" fill="white"/>
<path d="M1107.82 599.95H1153.98V646.1H1107.82V599.95Z" fill="white"/>
<path d="M1107.82 646.1H1153.98V692.25H1107.82V646.1Z" fill="white"/>
<path d="M1107.82 692.25H1153.98V738.4H1107.82V692.25Z" fill="white"/>
<path d="M1107.82 738.4H1153.98V784.55H1107.82V738.4Z" fill="white"/>
<path d="M1107.82 784.55H1153.98V830.7H1107.82V784.55Z" fill="white"/>
<path d="M1107.82 830.7H1153.98V876.85H1107.82V830.7Z" fill="white"/>
<path d="M1107.82 876.85H1153.98V923H1107.82V876.85Z" fill="white"/>
<path d="M1153.98 369.2H1200.14V415.35H1153.98V369.2Z" fill="white"/>
<path d="M1153.98 415.35H1200.14V461.5H1153.98V415.35Z" fill="white"/>
<path d="M1153.98 461.5H1200.14V507.65H1153.98V461.5Z" fill="white"/>
<path d="M1153.98 507.65H1200.14V553.8H1153.98V507.65Z" fill="white"/>
<path d="M1153.98 553.8H1200.14V599.95H1153.98V553.8Z" fill="white"/>
<path d="M1153.98 599.95H1200.14V646.1H1153.98V599.95Z" fill="white"/>
<path d="M1153.98 646.1H1200.14V692.25H1153.98V646.1Z" fill="white"/>
<path d="M1153.98 692.25H1200.14V738.4H1153.98V692.25Z" fill="white"/>
<path d="M1153.98 738.4H1200.14V784.55H1153.98V738.4Z" fill="white"/>
<path d="M1153.98 784.55H1200.14V830.7H1153.98V784.55Z" fill="white"/>
<path d="M1153.98 830.7H1200.14V876.85H1153.98V830.7Z" fill="white"/>
<path d="M1153.98 876.85H1200.14V923H1153.98V876.85Z" fill="white"/>
<path d="M1200.14 369.2H1246.3V415.35H1200.14V369.2Z" fill="white"/>
<path d="M1200.14 415.35H1246.3V461.5H1200.14V415.35Z" fill="white"/>
<path d="M1200.14 461.5H1246.3V507.65H1200.14V461.5Z" fill="white"/>
<path d="M1200.14 507.65H1246.3V553.8H1200.14V507.65Z" fill="white"/>
<path d="M1200.14 553.8H1246.3V599.95H1200.14V553.8Z" fill="white"/>
<path d="M1200.14 599.95H1246.3V646.1H1200.14V599.95Z" fill="white"/>
<path d="M1200.14 646.1H1246.3V692.25H1200.14V646.1Z" fill="white"/>
<path d="M1200.14 692.25H1246.3V738.4H1200.14V692.25Z" fill="white"/>
<path d="M1200.14 738.4H1246.3V784.55H1200.14V738.4Z" fill="white"/>
<path d="M1200.14 784.55H1246.3V830.7H1200.14V784.55Z" fill="white"/>
<path d="M1200.14 830.7H1246.3V876.85H1200.14V830.7Z" fill="white"/>
<path d="M1200.14 876.85H1246.3V923H1200.14V876.85Z" fill="white"/>
<path d="M1246.3 369.2H1292.45V415.35H1246.3V369.2Z" fill="white"/>
<path d="M1246.3 415.35H1292.45V461.5H1246.3V415.35Z" fill="white"/>
<path d="M1246.3 461.5H1292.45V507.65H1246.3V461.5Z" fill="white"/>
<path d="M1246.3 507.65H1292.45V553.8H1246.3V507.65Z" fill="white"/>
<path d="M1246.3 553.8H1292.45V599.95H1246.3V553.8Z" fill="white"/>
<path d="M1246.3 599.95H1292.45V646.1H1246.3V599.95Z" fill="white"/>
<path d="M1246.3 646.1H1292.45V692.25H1246.3V646.1Z" fill="white"/>
<path d="M1246.3 692.25H1292.45V738.4H1246.3V692.25Z" fill="white"/>
<path d="M1246.3 738.4H1292.45V784.55H1246.3V738.4Z" fill="white"/>
<path d="M1246.3 784.55H1292.45V830.7H1246.3V784.55Z" fill="white"/>
<path d="M1246.3 830.7H1292.45V876.85H1246.3V830.7Z" fill="white"/>
<path d="M1246.3 876.85H1292.45V923H1246.3V876.85Z" fill="white"/>
<path d="M1292.45 369.2H1338.61V415.35H1292.45V369.2Z" fill="white"/>
<path d="M1292.45 415.35H1338.61V461.5H1292.45V415.35Z" fill="white"/>
<path d="M1292.45 461.5H1338.61V507.65H1292.45V461.5Z" fill="white"/>
<path d="M1292.45 507.65H1338.61V553.8H1292.45V507.65Z" fill="white"/>
<path d="M1292.45 553.8H1338.61V599.95H1292.45V553.8Z" fill="white"/>
<path d="M1292.45 599.95H1338.61V646.1H1292.45V599.95Z" fill="white"/>
<path d="M1292.45 646.1H1338.61V692.25H1292.45V646.1Z" fill="white"/>
<path d="M1292.45 692.25H1338.61V738.4H1292.45V692.25Z" fill="white"/>
<path d="M1292.45 738.4H1338.61V784.55H1292.45V738.4Z" fill="white"/>
<path d="M1292.45 784.55H1338.61V830.7H1292.45V784.55Z" fill="white"/>
<path d="M1292.45 830.7H1338.61V876.85H1292.45V830.7Z" fill="white"/>
<path d="M1292.45 876.85H1338.61V923H1292.45V876.85Z" fill="white"/>
<path d="M1338.61 0H1384.77V46.15H1338.61V0Z" fill="white"/>
<path d="M1338.61 92.3H1384.77V138.45H1338.61V92.3Z" fill="white"/>
<path d="M1338.61 369.2H1384.77V415.35H1338.61V369.2Z" fill="white"/>
<path d="M1338.61 415.35H1384.77V461.5H1338.61V415.35Z" fill="white"/>
<path d="M1338.61 461.5H1384.77V507.65H1338.61V461.5Z" fill="white"/>
<path d="M1338.61 507.65H1384.77V553.8H1338.61V507.65Z" fill="white"/>
<path d="M1338.61 553.8H1384.77V599.95H1338.61V553.8Z" fill="white"/>
<path d="M1338.61 599.95H1384.77V646.1H1338.61V599.95Z" fill="white"/>
<path d="M1338.61 646.1H1384.77V692.25H1338.61V646.1Z" fill="white"/>
<path d="M1338.61 692.25H1384.77V738.4H1338.61V692.25Z" fill="white"/>
<path d="M1338.61 738.4H1384.77V784.55H1338.61V738.4Z" fill="white"/>
<path d="M1338.61 784.55H1384.77V830.7H1338.61V784.55Z" fill="white"/>
<path d="M1338.61 830.7H1384.77V876.85H1338.61V830.7Z" fill="white"/>
<path d="M1338.61 876.85H1384.77V923H1338.61V876.85Z" fill="white"/>
<path d="M1384.77 0H1430.93V46.15H1384.77V0Z" fill="white"/>
<path d="M1384.77 46.15H1430.93V92.3H1384.77V46.15Z" fill="white"/>
<path d="M1384.77 92.3H1430.93V138.45H1384.77V92.3Z" fill="white"/>
<path d="M1384.77 323.05H1430.93V369.2H1384.77V323.05Z" fill="white"/>
<path d="M1384.77 369.2H1430.93V415.35H1384.77V369.2Z" fill="white"/>
<path d="M1384.77 415.35H1430.93V461.5H1384.77V415.35Z" fill="white"/>
<path d="M1384.77 461.5H1430.93V507.65H1384.77V461.5Z" fill="white"/>
<path d="M1384.77 507.65H1430.93V553.8H1384.77V507.65Z" fill="white"/>
<path d="M1384.77 553.8H1430.93V599.95H1384.77V553.8Z" fill="white"/>
<path d="M1384.77 599.95H1430.93V646.1H1384.77V599.95Z" fill="white"/>
<path d="M1384.77 646.1H1430.93V692.25H1384.77V646.1Z" fill="white"/>
<path d="M1384.77 692.25H1430.93V738.4H1384.77V692.25Z" fill="white"/>
<path d="M1384.77 738.4H1430.93V784.55H1384.77V738.4Z" fill="white"/>
<path d="M1384.77 784.55H1430.93V830.7H1384.77V784.55Z" fill="white"/>
<path d="M1384.77 830.7H1430.93V876.85H1384.77V830.7Z" fill="white"/>
<path d="M1384.77 876.85H1430.93V923H1384.77V876.85Z" fill="white"/>
<path d="M1430.93 0H1477.09V46.15H1430.93V0Z" fill="white"/>
<path d="M1430.93 46.15H1477.09V92.3H1430.93V46.15Z" fill="white"/>
<path d="M1430.93 92.3H1477.09V138.45H1430.93V92.3Z" fill="white"/>
<path d="M1430.93 323.05H1477.09V369.2H1430.93V323.05Z" fill="white"/>
<path d="M1430.93 369.2H1477.09V415.35H1430.93V369.2Z" fill="white"/>
<path d="M1430.93 415.35H1477.09V461.5H1430.93V415.35Z" fill="white"/>
<path d="M1430.93 461.5H1477.09V507.65H1430.93V461.5Z" fill="white"/>
<path d="M1430.93 507.65H1477.09V553.8H1430.93V507.65Z" fill="white"/>
<path d="M1430.93 553.8H1477.09V599.95H1430.93V553.8Z" fill="white"/>
<path d="M1430.93 599.95H1477.09V646.1H1430.93V599.95Z" fill="white"/>
<path d="M1430.93 646.1H1477.09V692.25H1430.93V646.1Z" fill="white"/>
<path d="M1430.93 692.25H1477.09V738.4H1430.93V692.25Z" fill="white"/>
<path d="M1430.93 738.4H1477.09V784.55H1430.93V738.4Z" fill="white"/>
<path d="M1430.93 784.55H1477.09V830.7H1430.93V784.55Z" fill="white"/>
<path d="M1430.93 830.7H1477.09V876.85H1430.93V830.7Z" fill="white"/>
<path d="M1430.93 876.85H1477.09V923H1430.93V876.85Z" fill="white"/>
<path d="M1477.09 0H1523.25V46.15H1477.09V0Z" fill="white"/>
<path d="M1477.09 46.15H1523.25V92.3H1477.09V46.15Z" fill="white"/>
<path d="M1477.09 92.3H1523.25V138.45H1477.09V92.3Z" fill="white"/>
<path d="M1477.09 276.9H1523.25V323.05H1477.09V276.9Z" fill="white"/>
<path d="M1477.09 323.05H1523.25V369.2H1477.09V323.05Z" fill="white"/>
<path d="M1477.09 369.2H1523.25V415.35H1477.09V369.2Z" fill="white"/>
<path d="M1477.09 415.35H1523.25V461.5H1477.09V415.35Z" fill="white"/>
<path d="M1477.09 461.5H1523.25V507.65H1477.09V461.5Z" fill="white"/>
<path d="M1477.09 507.65H1523.25V553.8H1477.09V507.65Z" fill="white"/>
<path d="M1477.09 553.8H1523.25V599.95H1477.09V553.8Z" fill="white"/>
<path d="M1477.09 599.95H1523.25V646.1H1477.09V599.95Z" fill="white"/>
<path d="M1477.09 646.1H1523.25V692.25H1477.09V646.1Z" fill="white"/>
<path d="M1477.09 692.25H1523.25V738.4H1477.09V692.25Z" fill="white"/>
<path d="M1477.09 738.4H1523.25V784.55H1477.09V738.4Z" fill="white"/>
<path d="M1477.09 784.55H1523.25V830.7H1477.09V784.55Z" fill="white"/>
<path d="M1477.09 830.7H1523.25V876.85H1477.09V830.7Z" fill="white"/>
<path d="M1477.09 876.85H1523.25V923H1477.09V876.85Z" fill="white"/>
<path d="M1523.25 0H1569.41V46.15H1523.25V0Z" fill="white"/>
<path d="M1523.25 46.15H1569.41V92.3H1523.25V46.15Z" fill="white"/>
<path d="M1523.25 92.3H1569.41V138.45H1523.25V92.3Z" fill="white"/>
<path d="M1523.25 138.45H1569.41V184.6H1523.25V138.45Z" fill="white"/>
<path d="M1523.25 184.6H1569.41V230.75H1523.25V184.6Z" fill="white"/>
<path d="M1523.25 230.75H1569.41V276.9H1523.25V230.75Z" fill="white"/>
<path d="M1523.25 276.9H1569.41V323.05H1523.25V276.9Z" fill="white"/>
<path d="M1523.25 323.05H1569.41V369.2H1523.25V323.05Z" fill="white"/>
<path d="M1523.25 369.2H1569.41V415.35H1523.25V369.2Z" fill="white"/>
<path d="M1523.25 415.35H1569.41V461.5H1523.25V415.35Z" fill="white"/>
<path d="M1523.25 461.5H1569.41V507.65H1523.25V461.5Z" fill="white"/>
<path d="M1523.25 507.65H1569.41V553.8H1523.25V507.65Z" fill="white"/>
<path d="M1523.25 553.8H1569.41V599.95H1523.25V553.8Z" fill="white"/>
<path d="M1523.25 599.95H1569.41V646.1H1523.25V599.95Z" fill="white"/>
<path d="M1523.25 646.1H1569.41V692.25H1523.25V646.1Z" fill="white"/>
<path d="M1523.25 692.25H1569.41V738.4H1523.25V692.25Z" fill="white"/>
<path d="M1523.25 738.4H1569.41V784.55H1523.25V738.4Z" fill="white"/>
<path d="M1523.25 784.55H1569.41V830.7H1523.25V784.55Z" fill="white"/>
<path d="M1523.25 830.7H1569.41V876.85H1523.25V830.7Z" fill="white"/>
<path d="M1523.25 876.85H1569.41V923H1523.25V876.85Z" fill="white"/>
<path d="M1569.41 0H1615.57V46.15H1569.41V0Z" fill="white"/>
<path d="M1569.41 46.15H1615.57V92.3H1569.41V46.15Z" fill="white"/>
<path d="M1569.41 92.3H1615.57V138.45H1569.41V92.3Z" fill="white"/>
<path d="M1569.41 138.45H1615.57V184.6H1569.41V138.45Z" fill="white"/>
<path d="M1569.41 184.6H1615.57V230.75H1569.41V184.6Z" fill="white"/>
<path d="M1569.41 230.75H1615.57V276.9H1569.41V230.75Z" fill="white"/>
<path d="M1569.41 276.9H1615.57V323.05H1569.41V276.9Z" fill="white"/>
<path d="M1569.41 323.05H1615.57V369.2H1569.41V323.05Z" fill="white"/>
<path d="M1569.41 369.2H1615.57V415.35H1569.41V369.2Z" fill="white"/>
<path d="M1569.41 415.35H1615.57V461.5H1569.41V415.35Z" fill="white"/>
<path d="M1569.41 461.5H1615.57V507.65H1569.41V461.5Z" fill="white"/>
<path d="M1569.41 507.65H1615.57V553.8H1569.41V507.65Z" fill="white"/>
<path d="M1569.41 553.8H1615.57V599.95H1569.41V553.8Z" fill="white"/>
<path d="M1569.41 599.95H1615.57V646.1H1569.41V599.95Z" fill="white"/>
<path d="M1569.41 646.1H1615.57V692.25H1569.41V646.1Z" fill="white"/>
<path d="M1569.41 692.25H1615.57V738.4H1569.41V692.25Z" fill="white"/>
<path d="M1569.41 738.4H1615.57V784.55H1569.41V738.4Z" fill="white"/>
<path d="M1569.41 784.55H1615.57V830.7H1569.41V784.55Z" fill="white"/>
<path d="M1569.41 830.7H1615.57V876.85H1569.41V830.7Z" fill="white"/>
<path d="M1569.41 876.85H1615.57V923H1569.41V876.85Z" fill="white"/>
<path d="M1615.57 0H1661.73V46.15H1615.57V0Z" fill="white"/>
<path d="M1615.57 46.15H1661.73V92.3H1615.57V46.15Z" fill="white"/>
<path d="M1615.57 92.3H1661.73V138.45H1615.57V92.3Z" fill="white"/>
<path d="M1615.57 138.45H1661.73V184.6H1615.57V138.45Z" fill="white"/>
<path d="M1615.57 184.6H1661.73V230.75H1615.57V184.6Z" fill="white"/>
<path d="M1615.57 230.75H1661.73V276.9H1615.57V230.75Z" fill="white"/>
<path d="M1615.57 276.9H1661.73V323.05H1615.57V276.9Z" fill="white"/>
<path d="M1615.57 323.05H1661.73V369.2H1615.57V323.05Z" fill="white"/>
<path d="M1615.57 369.2H1661.73V415.35H1615.57V369.2Z" fill="white"/>
<path d="M1615.57 415.35H1661.73V461.5H1615.57V415.35Z" fill="white"/>
<path d="M1615.57 461.5H1661.73V507.65H1615.57V461.5Z" fill="white"/>
<path d="M1615.57 507.65H1661.73V553.8H1615.57V507.65Z" fill="white"/>
<path d="M1615.57 553.8H1661.73V599.95H1615.57V553.8Z" fill="white"/>
<path d="M1615.57 599.95H1661.73V646.1H1615.57V599.95Z" fill="white"/>
<path d="M1615.57 646.1H1661.73V692.25H1615.57V646.1Z" fill="white"/>
<path d="M1615.57 692.25H1661.73V738.4H1615.57V692.25Z" fill="white"/>
<path d="M1615.57 738.4H1661.73V784.55H1615.57V738.4Z" fill="white"/>
<path d="M1615.57 784.55H1661.73V830.7H1615.57V784.55Z" fill="white"/>
<path d="M1615.57 830.7H1661.73V876.85H1615.57V830.7Z" fill="white"/>
<path d="M1615.57 876.85H1661.73V923H1615.57V876.85Z" fill="white"/>
<path d="M1661.73 0H1707.89V46.15H1661.73V0Z" fill="white"/>
<path d="M1661.73 46.15H1707.89V92.3H1661.73V46.15Z" fill="white"/>
<path d="M1661.73 92.3H1707.89V138.45H1661.73V92.3Z" fill="white"/>
<path d="M1661.73 138.45H1707.89V184.6H1661.73V138.45Z" fill="white"/>
<path d="M1661.73 184.6H1707.89V230.75H1661.73V184.6Z" fill="white"/>
<path d="M1661.73 230.75H1707.89V276.9H1661.73V230.75Z" fill="white"/>
<path d="M1661.73 276.9H1707.89V323.05H1661.73V276.9Z" fill="white"/>
<path d="M1661.73 369.2H1707.89V415.35H1661.73V369.2Z" fill="white"/>
<path d="M1661.73 415.35H1707.89V461.5H1661.73V415.35Z" fill="white"/>
<path d="M1661.73 461.5H1707.89V507.65H1661.73V461.5Z" fill="white"/>
<path d="M1661.73 507.65H1707.89V553.8H1661.73V507.65Z" fill="white"/>
<path d="M1661.73 553.8H1707.89V599.95H1661.73V553.8Z" fill="white"/>
<path d="M1661.73 599.95H1707.89V646.1H1661.73V599.95Z" fill="white"/>
<path d="M1661.73 646.1H1707.89V692.25H1661.73V646.1Z" fill="white"/>
<path d="M1661.73 692.25H1707.89V738.4H1661.73V692.25Z" fill="white"/>
<path d="M1661.73 738.4H1707.89V784.55H1661.73V738.4Z" fill="white"/>
<path d="M1661.73 784.55H1707.89V830.7H1661.73V784.55Z" fill="white"/>
<path d="M1661.73 830.7H1707.89V876.85H1661.73V830.7Z" fill="white"/>
<path d="M1661.73 876.85H1707.89V923H1661.73V876.85Z" fill="white"/>
<path d="M1707.89 0H1754.05V46.15H1707.89V0Z" fill="white"/>
<path d="M1707.89 46.15H1754.05V92.3H1707.89V46.15Z" fill="white"/>
<path d="M1707.89 92.3H1754.05V138.45H1707.89V92.3Z" fill="white"/>
<path d="M1707.89 138.45H1754.05V184.6H1707.89V138.45Z" fill="white"/>
<path d="M1707.89 184.6H1754.05V230.75H1707.89V184.6Z" fill="white"/>
<path d="M1707.89 230.75H1754.05V276.9H1707.89V230.75Z" fill="white"/>
<path d="M1707.89 276.9H1754.05V323.05H1707.89V276.9Z" fill="white"/>
<path d="M1707.89 369.2H1754.05V415.35H1707.89V369.2Z" fill="white"/>
<path d="M1707.89 415.35H1754.05V461.5H1707.89V415.35Z" fill="white"/>
<path d="M1707.89 461.5H1754.05V507.65H1707.89V461.5Z" fill="white"/>
<path d="M1707.89 507.65H1754.05V553.8H1707.89V507.65Z" fill="white"/>
<path d="M1707.89 553.8H1754.05V599.95H1707.89V553.8Z" fill="white"/>
<path d="M1707.89 599.95H1754.05V646.1H1707.89V599.95Z" fill="white"/>
<path d="M1707.89 646.1H1754.05V692.25H1707.89V646.1Z" fill="white"/>
<path d="M1707.89 692.25H1754.05V738.4H1707.89V692.25Z" fill="white"/>
<path d="M1707.89 738.4H1754.05V784.55H1707.89V738.4Z" fill="white"/>
<path d="M1707.89 784.55H1754.05V830.7H1707.89V784.55Z" fill="white"/>
<path d="M1707.89 830.7H1754.05V876.85H1707.89V830.7Z" fill="white"/>
<path d="M1707.89 876.85H1754.05V923H1707.89V876.85Z" fill="white"/>
<path d="M1754.05 0H1800.2V46.15H1754.05V0Z" fill="white"/>
<path d="M1754.05 46.15H1800.2V92.3H1754.05V46.15Z" fill="white"/>
<path d="M1754.05 92.3H1800.2V138.45H1754.05V92.3Z" fill="white"/>
<path d="M1754.05 138.45H1800.2V184.6H1754.05V138.45Z" fill="white"/>
<path d="M1754.05 184.6H1800.2V230.75H1754.05V184.6Z" fill="white"/>
<path d="M1754.05 230.75H1800.2V276.9H1754.05V230.75Z" fill="white"/>
<path d="M1754.05 276.9H1800.2V323.05H1754.05V276.9Z" fill="white"/>
<path d="M1754.05 323.05H1800.2V369.2H1754.05V323.05Z" fill="white"/>
<path d="M1754.05 369.2H1800.2V415.35H1754.05V369.2Z" fill="white"/>
<path d="M1754.05 415.35H1800.2V461.5H1754.05V415.35Z" fill="white"/>
<path d="M1754.05 461.5H1800.2V507.65H1754.05V461.5Z" fill="white"/>
<path d="M1754.05 507.65H1800.2V553.8H1754.05V507.65Z" fill="white"/>
<path d="M1754.05 553.8H1800.2V599.95H1754.05V553.8Z" fill="white"/>
<path d="M1754.05 599.95H1800.2V646.1H1754.05V599.95Z" fill="white"/>
<path d="M1754.05 646.1H1800.2V692.25H1754.05V646.1Z" fill="white"/>
<path d="M1754.05 692.25H1800.2V738.4H1754.05V692.25Z" fill="white"/>
<path d="M1754.05 738.4H1800.2V784.55H1754.05V738.4Z" fill="white"/>
<path d="M1754.05 784.55H1800.2V830.7H1754.05V784.55Z" fill="white"/>
<path d="M1754.05 830.7H1800.2V876.85H1754.05V830.7Z" fill="white"/>
<path d="M1754.05 876.85H1800.2V923H1754.05V876.85Z" fill="white"/>
<path d="M1800.2 0H1846.36V46.15H1800.2V0Z" fill="white"/>
<path d="M1800.2 46.15H1846.36V92.3H1800.2V46.15Z" fill="white"/>
<path d="M1800.2 92.3H1846.36V138.45H1800.2V92.3Z" fill="white"/>
<path d="M1800.2 138.45H1846.36V184.6H1800.2V138.45Z" fill="white"/>
<path d="M1800.2 184.6H1846.36V230.75H1800.2V184.6Z" fill="white"/>
<path d="M1800.2 230.75H1846.36V276.9H1800.2V230.75Z" fill="white"/>
<path d="M1800.2 276.9H1846.36V323.05H1800.2V276.9Z" fill="white"/>
<path d="M1800.2 323.05H1846.36V369.2H1800.2V323.05Z" fill="white"/>
<path d="M1800.2 369.2H1846.36V415.35H1800.2V369.2Z" fill="white"/>
<path d="M1800.2 415.35H1846.36V461.5H1800.2V415.35Z" fill="white"/>
<path d="M1800.2 461.5H1846.36V507.65H1800.2V461.5Z" fill="white"/>
<path d="M1800.2 507.65H1846.36V553.8H1800.2V507.65Z" fill="white"/>
<path d="M1800.2 553.8H1846.36V599.95H1800.2V553.8Z" fill="white"/>
<path d="M1800.2 599.95H1846.36V646.1H1800.2V599.95Z" fill="white"/>
<path d="M1800.2 646.1H1846.36V692.25H1800.2V646.1Z" fill="white"/>
<path d="M1800.2 692.25H1846.36V738.4H1800.2V692.25Z" fill="white"/>
<path d="M1800.2 738.4H1846.36V784.55H1800.2V738.4Z" fill="white"/>
<path d="M1800.2 784.55H1846.36V830.7H1800.2V784.55Z" fill="white"/>
<path d="M1800.2 830.7H1846.36V876.85H1800.2V830.7Z" fill="white"/>
<path d="M1800.2 876.85H1846.36V923H1800.2V876.85Z" fill="white"/>
<path d="M1846.36 0H1892.52V46.15H1846.36V0Z" fill="white"/>
<path d="M1846.36 46.15H1892.52V92.3H1846.36V46.15Z" fill="white"/>
<path d="M1846.36 92.3H1892.52V138.45H1846.36V92.3Z" fill="white"/>
<path d="M1846.36 138.45H1892.52V184.6H1846.36V138.45Z" fill="white"/>
<path d="M1846.36 184.6H1892.52V230.75H1846.36V184.6Z" fill="white"/>
<path d="M1846.36 230.75H1892.52V276.9H1846.36V230.75Z" fill="white"/>
<path d="M1846.36 276.9H1892.52V323.05H1846.36V276.9Z" fill="white"/>
<path d="M1846.36 323.05H1892.52V369.2H1846.36V323.05Z" fill="white"/>
<path d="M1846.36 369.2H1892.52V415.35H1846.36V369.2Z" fill="white"/>
<path d="M1846.36 415.35H1892.52V461.5H1846.36V415.35Z" fill="white"/>
<path d="M1846.36 461.5H1892.52V507.65H1846.36V461.5Z" fill="white"/>
<path d="M1846.36 507.65H1892.52V553.8H1846.36V507.65Z" fill="white"/>
<path d="M1846.36 553.8H1892.52V599.95H1846.36V553.8Z" fill="white"/>
<path d="M1846.36 599.95H1892.52V646.1H1846.36V599.95Z" fill="white"/>
<path d="M1846.36 646.1H1892.52V692.25H1846.36V646.1Z" fill="white"/>
<path d="M1846.36 692.25H1892.52V738.4H1846.36V692.25Z" fill="white"/>
<path d="M1846.36 738.4H1892.52V784.55H1846.36V738.4Z" fill="white"/>
<path d="M1846.36 784.55H1892.52V830.7H1846.36V784.55Z" fill="white"/>
<path d="M1846.36 830.7H1892.52V876.85H1846.36V830.7Z" fill="white"/>
<path d="M1846.36 876.85H1892.52V923H1846.36V876.85Z" fill="white"/>
<path d="M1892.52 0H1938.68V46.15H1892.52V0Z" fill="white"/>
<path d="M1892.52 46.15H1938.68V92.3H1892.52V46.15Z" fill="white"/>
<path d="M1892.52 92.3H1938.68V138.45H1892.52V92.3Z" fill="white"/>
<path d="M1892.52 138.45H1938.68V184.6H1892.52V138.45Z" fill="white"/>
<path d="M1892.52 184.6H1938.68V230.75H1892.52V184.6Z" fill="white"/>
<path d="M1892.52 230.75H1938.68V276.9H1892.52V230.75Z" fill="white"/>
<path d="M1892.52 276.9H1938.68V323.05H1892.52V276.9Z" fill="white"/>
<path d="M1892.52 323.05H1938.68V369.2H1892.52V323.05Z" fill="white"/>
<path d="M1892.52 369.2H1938.68V415.35H1892.52V369.2Z" fill="white"/>
<path d="M1892.52 415.35H1938.68V461.5H1892.52V415.35Z" fill="white"/>
<path d="M1892.52 461.5H1938.68V507.65H1892.52V461.5Z" fill="white"/>
<path d="M1892.52 507.65H1938.68V553.8H1892.52V507.65Z" fill="white"/>
<path d="M1892.52 553.8H1938.68V599.95H1892.52V553.8Z" fill="white"/>
<path d="M1892.52 599.95H1938.68V646.1H1892.52V599.95Z" fill="white"/>
<path d="M1892.52 646.1H1938.68V692.25H1892.52V646.1Z" fill="white"/>
<path d="M1892.52 692.25H1938.68V738.4H1892.52V692.25Z" fill="white"/>
<path d="M1892.52 738.4H1938.68V784.55H1892.52V738.4Z" fill="white"/>
<path d="M1892.52 784.55H1938.68V830.7H1892.52V784.55Z" fill="white"/>
<path d="M1892.52 830.7H1938.68V876.85H1892.52V830.7Z" fill="white"/>
<path d="M1892.52 876.85H1938.68V923H1892.52V876.85Z" fill="white"/>
<path d="M1938.68 0H1984.84V46.15H1938.68V0Z" fill="white"/>
<path d="M1938.68 46.15H1984.84V92.3H1938.68V46.15Z" fill="white"/>
<path d="M1938.68 92.3H1984.84V138.45H1938.68V92.3Z" fill="white"/>
<path d="M1938.68 138.45H1984.84V184.6H1938.68V138.45Z" fill="white"/>
<path d="M1938.68 184.6H1984.84V230.75H1938.68V184.6Z" fill="white"/>
<path d="M1938.68 230.75H1984.84V276.9H1938.68V230.75Z" fill="white"/>
<path d="M1938.68 276.9H1984.84V323.05H1938.68V276.9Z" fill="white"/>
<path d="M1938.68 323.05H1984.84V369.2H1938.68V323.05Z" fill="white"/>
<path d="M1938.68 369.2H1984.84V415.35H1938.68V369.2Z" fill="white"/>
<path d="M1938.68 415.35H1984.84V461.5H1938.68V415.35Z" fill="white"/>
<path d="M1938.68 461.5H1984.84V507.65H1938.68V461.5Z" fill="white"/>
<path d="M1938.68 507.65H1984.84V553.8H1938.68V507.65Z" fill="white"/>
<path d="M1938.68 553.8H1984.84V599.95H1938.68V553.8Z" fill="white"/>
<path d="M1938.68 599.95H1984.84V646.1H1938.68V599.95Z" fill="white"/>
<path d="M1938.68 646.1H1984.84V692.25H1938.68V646.1Z" fill="white"/>
<path d="M1938.68 692.25H1984.84V738.4H1938.68V692.25Z" fill="white"/>
<path d="M1938.68 738.4H1984.84V784.55H1938.68V738.4Z" fill="white"/>
<path d="M1938.68 784.55H1984.84V830.7H1938.68V784.55Z" fill="white"/>
<path d="M1938.68 830.7H1984.84V876.85H1938.68V830.7Z" fill="white"/>
<path d="M1938.68 876.85H1984.84V923H1938.68V876.85Z" fill="white"/>
<path d="M1984.84 0H2016C2024.28 0 2031 6.71573 2031 15V46.15H1984.84V0Z" fill="white"/>
<path d="M1984.84 46.15H2031V92.3H1984.84V46.15Z" fill="white"/>
<path d="M1984.84 92.3H2031V138.45H1984.84V92.3Z" fill="white"/>
<path d="M1984.84 138.45H2031V184.6H1984.84V138.45Z" fill="white"/>
<path d="M1984.84 184.6H2031V230.75H1984.84V184.6Z" fill="white"/>
<path d="M1984.84 230.75H2031V276.9H1984.84V230.75Z" fill="white"/>
<path d="M1984.84 276.9H2031V323.05H1984.84V276.9Z" fill="white"/>
<path d="M1984.84 323.05H2031V369.2H1984.84V323.05Z" fill="white"/>
<path d="M1984.84 369.2H2031V415.35H1984.84V369.2Z" fill="white"/>
<path d="M1984.84 415.35H2031V461.5H1984.84V415.35Z" fill="white"/>
<path d="M1984.84 461.5H2031V507.65H1984.84V461.5Z" fill="white"/>
<path d="M1984.84 507.65H2031V553.8H1984.84V507.65Z" fill="white"/>
<path d="M1984.84 553.8H2031V599.95H1984.84V553.8Z" fill="white"/>
<path d="M1984.84 599.95H2031V646.1H1984.84V599.95Z" fill="white"/>
<path d="M1984.84 646.1H2031V692.25H1984.84V646.1Z" fill="white"/>
<path d="M1984.84 692.25H2031V738.4H1984.84V692.25Z" fill="white"/>
<path d="M1984.84 738.4H2031V784.55H1984.84V738.4Z" fill="white"/>
<path d="M1984.84 784.55H2031V830.7H1984.84V784.55Z" fill="white"/>
<path d="M1984.84 830.7H2031V876.85H1984.84V830.7Z" fill="white"/>
<path d="M1984.84 876.85H2031V908C2031 916.284 2024.28 923 2016 923H1984.84V876.85Z" fill="white"/>
<path d="M46.1591 323.05V369.2H92.3182V323.05H46.1591Z" fill="white"/>
<path d="M92.3182 323.05V369.2H138.477V323.05H92.3182Z" fill="white"/>
<path d="M138.477 323.05V369.2H184.636V323.05H138.477Z" fill="white"/>
<path d="M184.636 323.05V369.2H230.795V323.05H184.636Z" fill="white"/>
<path d="M230.795 323.05V369.2H276.955V323.05H230.795Z" fill="white"/>
<path d="M369.273 323.05H323.114V369.2H369.273V323.05Z" fill="white"/>
<path d="M276.955 323.05V369.2H323.114V323.05H276.955Z" fill="white"/>
<path d="M369.273 323.05V369.2H415.432V323.05H369.273Z" fill="white"/>
<path d="M415.432 323.05V369.2H461.591V323.05H415.432Z" fill="white"/>
<path d="M461.591 323.05V369.2H507.75V323.05H461.591Z" fill="white"/>
<path d="M507.75 323.05V369.2H553.909V323.05H507.75Z" fill="white"/>
<path d="M46.1591 276.9V323.05H92.3182V276.9H46.1591Z" fill="white"/>
<path d="M92.3182 276.9V323.05H138.477V276.9H92.3182Z" fill="white"/>
<path d="M138.477 276.9V323.05H184.636V276.9H138.477Z" fill="white"/>
<path d="M184.636 276.9V323.05H230.795V276.9H184.636Z" fill="white"/>
<path d="M230.795 230.75V276.9H276.955V230.75H230.795Z" fill="white"/>
<path d="M276.955 230.75V276.9H323.114V230.75H276.955Z" fill="white"/>
<path d="M276.955 276.9V323.05H323.114V276.9H276.955Z" fill="white"/>
<path d="M323.114 230.75V276.9H369.273V230.75H323.114Z" fill="white"/>
<path d="M369.273 230.75V276.9H415.432V230.75H369.273Z" fill="white"/>
<path d="M369.273 276.9V323.05H415.432V276.9H369.273Z" fill="white"/>
<path d="M415.432 230.75V276.9H461.591V230.75H415.432Z" fill="white"/>
<path d="M415.432 276.9V323.05H461.591V276.9H415.432Z" fill="white"/>
<path d="M461.591 230.75V276.9H507.75V230.75H461.591Z" fill="white"/>
<path d="M461.591 276.9V323.05H507.75V276.9H461.591Z" fill="white"/>
<path d="M507.75 230.75V276.9H553.909V230.75H507.75Z" fill="white"/>
<path d="M507.75 276.9V323.05H553.909V276.9H507.75Z" fill="white"/>
<path d="M553.909 276.9H600.068V230.75H553.909V276.9Z" fill="white"/>
<path d="M553.909 276.9V323.05H600.068V276.9H553.909Z" fill="white"/>
<path d="M553.909 323.05V369.2H600.068V323.05H553.909Z" fill="white"/>
<path d="M600.068 276.9H646.227V230.75H600.068V276.9Z" fill="white"/>
<path d="M600.068 276.9V323.05H646.227V276.9H600.068Z" fill="white"/>
<path d="M600.068 323.05V369.2H646.227V323.05H600.068Z" fill="white"/>
<path d="M646.227 230.75V276.9H692.386V230.75H646.227Z" fill="white"/>
<path d="M646.227 276.9V323.05H692.386V276.9H646.227Z" fill="white"/>
<path d="M646.227 323.05V369.2H692.386V323.05H646.227Z" fill="white"/>
<path d="M692.386 230.75V276.9H738.545V230.75H692.386Z" fill="white"/>
<path d="M738.545 369.2H784.705V323.05H738.545V369.2Z" fill="white"/>
<path d="M784.705 276.9H738.545V323.05H784.705V276.9Z" fill="white"/>
<path d="M784.705 230.75H738.545V276.9H784.705V230.75Z" fill="white"/>
<path d="M830.864 276.9V230.75H784.705V276.9H830.864Z" fill="white"/>
<path d="M830.864 369.2H877.023V323.05H830.864V369.2Z" fill="white"/>
<path d="M877.023 276.9H830.864V323.05H877.023V276.9Z" fill="white"/>
<path d="M830.864 230.75V276.9H877.023V230.75H830.864Z" fill="white"/>
<path d="M923.182 276.9V230.75H877.023V276.9H923.182Z" fill="white"/>
<path d="M877.023 323.05H923.182V276.9H877.023V323.05Z" fill="white"/>
<path d="M923.182 369.2H969.341V323.05H923.182V369.2Z" fill="white"/>
<path d="M969.341 276.9H923.182V323.05H969.341V276.9Z" fill="white"/>
<path d="M923.182 230.75V276.9H969.341V230.75H923.182Z" fill="white"/>
<path d="M1015.5 276.9V230.75H969.341V276.9H1015.5Z" fill="white"/>
<path d="M969.341 323.05H1015.5V276.9H969.341V323.05Z" fill="white"/>
<path d="M969.341 369.2H1015.5V323.05H969.341V369.2Z" fill="white"/>
<path d="M692.386 369.2H738.545V323.05H692.386V369.2Z" fill="white"/>
<path d="M692.386 276.9V323.05H738.545V276.9H692.386Z" fill="white"/>
<path d="M784.705 276.9V323.05H830.864V276.9H784.705Z" fill="white"/>
<path d="M784.705 369.2H830.864V323.05H784.705V369.2Z" fill="white"/>
<path d="M1015.5 369.2H1061.66V323.05H1015.5V369.2Z" fill="white"/>
<path d="M1061.66 276.9H1015.5V323.05H1061.66V276.9Z" fill="white"/>
<path d="M1015.5 230.75V276.9H1061.66V230.75H1015.5Z" fill="white"/>
<path d="M1107.82 276.9V230.75H1061.66V276.9H1107.82Z" fill="white"/>
<path d="M1061.66 323.05H1107.82V276.9H1061.66V323.05Z" fill="white"/>
<path d="M1061.66 369.2H1107.82V323.05H1061.66V369.2Z" fill="white"/>
<path d="M1107.82 230.75V276.9H1153.98V230.75H1107.82Z" fill="white"/>
<path d="M1153.98 369.2H1200.14V323.05H1153.98V369.2Z" fill="white"/>
<path d="M1200.14 369.2H1246.3V323.05H1200.14V369.2Z" fill="white"/>
<path d="M1200.14 276.9V323.05H1246.3V276.9H1200.14Z" fill="white"/>
<path d="M1246.3 230.75H1200.14V276.9H1246.3V230.75Z" fill="white"/>
<path d="M1292.45 323.05V276.9H1246.3V323.05H1292.45Z" fill="white"/>
<path d="M1292.45 369.2H1338.61V323.05H1292.45V369.2Z" fill="white"/>
<path d="M1292.45 276.9V323.05H1338.61V276.9H1292.45Z" fill="white"/>
<path d="M1338.61 230.75H1292.45V276.9H1338.61V230.75Z" fill="white"/>
<path d="M1246.3 230.75V276.9H1292.45V230.75H1246.3Z" fill="white"/>
<path d="M1153.98 276.9V323.05H1200.14V276.9H1153.98Z" fill="white"/>
<path d="M1107.82 276.9V323.05H1153.98V276.9H1107.82Z" fill="white"/>
<path d="M1107.82 369.2H1153.98V323.05H1107.82V369.2Z" fill="white"/>
<path d="M1246.3 369.2H1292.45V323.05H1246.3V369.2Z" fill="white"/>
<path d="M92.3182 230.75V276.9H138.477V230.75H92.3182Z" fill="white"/>
<path d="M138.477 230.75V276.9H184.636V230.75H138.477Z" fill="white"/>
<path d="M646.227 738.4V784.55H692.386V738.4H646.227Z" fill="white"/>
<path d="M415.432 184.6V230.75H461.591V184.6H415.432Z" fill="white"/>
<path d="M369.273 184.6V230.75H415.432V184.6H369.273Z" fill="white"/>
<path d="M323.114 276.9V323.05H369.273V276.9H323.114Z" fill="white"/>
<path d="M230.795 276.9V323.05H276.955V276.9H230.795Z" fill="white"/>
<path d="M184.636 230.75V276.9H230.795V230.75H184.636Z" fill="white"/>
<path d="M46.1591 230.75V276.9H92.3182V230.75H46.1591Z" fill="white"/>
<path d="M46.1591 230.75H0V276.9H46.1591V230.75Z" fill="white"/>
<path d="M46.1591 323.05H0V369.2H46.1591V323.05Z" fill="white"/>
<path d="M323.114 415.35V461.5H369.273V415.35H323.114Z" fill="white"/>
<path d="M46.1591 276.9H0V323.05H46.1591V276.9Z" fill="white"/>
<path d="M461.591 415.35V461.5H507.75V415.35H461.591Z" fill="white"/>
<path d="M692.386 369.2V415.35H738.545V369.2H692.386Z" fill="white"/>
<path d="M738.545 461.5V507.65H784.705V461.5H738.545Z" fill="white"/>
<path d="M692.386 553.8V599.95H738.545V553.8H692.386Z" fill="white"/>
<path d="M646.227 646.1V692.25H692.386V646.1H646.227Z" fill="white"/>
<path d="M646.227 692.25V738.4H692.386V692.25H646.227Z" fill="white"/>
<path d="M646.227 784.55V830.7H692.386V784.55H646.227Z" fill="white"/>
<path d="M877.023 415.35V461.5H923.182V415.35H877.023Z" fill="white"/>
<path d="M877.023 369.2V415.35H923.182V369.2H877.023Z" fill="white"/>
<path d="M877.023 369.2H923.182V323.05H877.023V369.2Z" fill="white"/>
<path d="M1338.61 184.6H1292.45V230.75H1338.61V184.6Z" fill="white"/>
<path d="M1338.61 138.45H1292.45V184.6H1338.61V138.45Z" fill="white"/>
<path d="M1292.45 92.3V138.45H1338.61V92.3H1292.45Z" fill="white"/>
<path d="M1292.45 46.15V92.3H1338.61V46.15H1292.45Z" fill="white"/>
<path d="M1292.45 0V46.15H1338.61V0H1292.45Z" fill="white"/>
<path d="M1246.3 0V46.15H1292.45V0H1246.3Z" fill="white"/>
<path d="M1246.3 46.15V92.3H1292.45V46.15H1246.3Z" fill="white"/>
<path d="M1292.45 138.45H1246.3V184.6H1292.45V138.45Z" fill="white"/>
<path d="M1246.3 92.3V138.45H1292.45V92.3H1246.3Z" fill="white"/>
<path d="M1246.3 230.75H1292.45V184.6H1246.3V230.75Z" fill="white"/>
<path d="M1200.14 230.75H1246.3V184.6H1200.14V230.75Z" fill="white"/>
<path d="M1246.3 138.45H1200.14V184.6H1246.3V138.45Z" fill="white"/>
<path d="M1153.98 46.15V92.3H1200.14V46.15H1153.98Z" fill="white"/>
<path d="M1153.98 92.3V138.45H1200.14V92.3H1153.98Z" fill="white"/>
<path d="M1153.98 184.6H1107.82V230.75H1153.98V184.6Z" fill="white"/>
<path d="M1153.98 138.45H1107.82V184.6H1153.98V138.45Z" fill="white"/>
<path d="M1107.82 92.3V138.45H1153.98V92.3H1107.82Z" fill="white"/>
<path d="M1153.98 46.15H1107.82V92.3H1153.98V46.15Z" fill="white"/>
<path d="M1107.82 0V46.15H1153.98V0H1107.82Z" fill="white"/>
<path d="M1153.98 0V46.15H1200.14V0H1153.98Z" fill="white"/>
<path d="M1200.14 0V46.15H1246.3V0H1200.14Z" fill="white"/>
<path d="M1200.14 138.45H1153.98V184.6H1200.14V138.45Z" fill="white"/>
<path d="M1107.82 184.6H1061.66V230.75H1107.82V184.6Z" fill="white"/>
<path d="M1107.82 138.45H1061.66V184.6H1107.82V138.45Z" fill="white"/>
<path d="M1061.66 92.3V138.45H1107.82V92.3H1061.66Z" fill="white"/>
<path d="M1200.14 46.15V92.3H1246.3V46.15H1200.14Z" fill="white"/>
<path d="M1200.14 92.3V138.45H1246.3V92.3H1200.14Z" fill="white"/>
<path d="M1153.98 184.6V230.75H1200.14V184.6H1153.98Z" fill="white"/>
<path d="M1153.98 230.75V276.9H1200.14V230.75H1153.98Z" fill="white"/>
<path d="M1107.82 46.15H1061.66V92.3H1107.82V46.15Z" fill="white"/>
<path d="M1061.66 0V46.15H1107.82V0H1061.66Z" fill="white"/>
<path d="M1015.5 0V46.15H1061.66V0H1015.5Z" fill="white"/>
<path d="M1061.66 46.15H1015.5V92.3H1061.66V46.15Z" fill="white"/>
<path d="M1015.5 92.3V138.45H1061.66V92.3H1015.5Z" fill="white"/>
<path d="M1061.66 138.45H1015.5V184.6H1061.66V138.45Z" fill="white"/>
<path d="M1015.5 230.75H1061.66V184.6H1015.5V230.75Z" fill="white"/>
<path d="M969.341 184.6V230.75H1015.5V184.6H969.341Z" fill="white"/>
<path d="M1015.5 138.45H969.341V184.6H1015.5V138.45Z" fill="white"/>
<path d="M969.341 92.3V138.45H1015.5V92.3H969.341Z" fill="white"/>
<path d="M923.182 0V46.15H969.341V0H923.182Z" fill="white"/>
<path d="M969.341 0V46.15H1015.5V0H969.341Z" fill="white"/>
<path d="M1015.5 46.15H969.341V92.3H1015.5V46.15Z" fill="white"/>
<path d="M923.182 46.15V92.3H969.341V46.15H923.182Z" fill="white"/>
<path d="M923.182 92.3V138.45H969.341V92.3H923.182Z" fill="white"/>
<path d="M969.341 138.45H923.182V184.6H969.341V138.45Z" fill="white"/>
<path d="M969.341 184.6H923.182V230.75H969.341V184.6Z" fill="white"/>
<path d="M923.182 184.6H877.023V230.75H923.182V184.6Z" fill="white"/>
<path d="M923.182 138.45H877.023V184.6H923.182V138.45Z" fill="white"/>
<path d="M877.023 92.3V138.45H923.182V92.3H877.023Z" fill="white"/>
<path d="M877.023 46.15V92.3H923.182V46.15H877.023Z" fill="white"/>
<path d="M877.023 0V46.15H923.182V0H877.023Z" fill="white"/>
<path d="M830.864 0V46.15H877.023V0H830.864Z" fill="white"/>
<path d="M830.864 46.15V92.3H877.023V46.15H830.864Z" fill="white"/>
<path d="M830.864 92.3V138.45H877.023V92.3H830.864Z" fill="white"/>
<path d="M877.023 138.45H830.864V184.6H877.023V138.45Z" fill="white"/>
<path d="M830.864 230.75H877.023V184.6H830.864V230.75Z" fill="white"/>
<path d="M784.705 184.6V230.75H830.864V184.6H784.705Z" fill="white"/>
<path d="M830.864 138.45H784.705V184.6H830.864V138.45Z" fill="white"/>
<path d="M784.705 92.3V138.45H830.864V92.3H784.705Z" fill="white"/>
<path d="M784.705 46.15V92.3H830.864V46.15H784.705Z" fill="white"/>
<path d="M738.545 46.15V92.3H784.705V46.15H738.545Z" fill="white"/>
<path d="M738.545 92.3V138.45H784.705V92.3H738.545Z" fill="white"/>
<path d="M784.705 138.45H738.545V184.6H784.705V138.45Z" fill="white"/>
<path d="M738.545 184.6V230.75H784.705V184.6H738.545Z" fill="white"/>
<path d="M692.386 184.6V230.75H738.545V184.6H692.386Z" fill="white"/>
<path d="M738.545 138.45H692.386V184.6H738.545V138.45Z" fill="white"/>
<path d="M692.386 92.3V138.45H738.545V92.3H692.386Z" fill="white"/>
<path d="M692.386 46.15V92.3H738.545V46.15H692.386Z" fill="white"/>
<path d="M692.386 0V46.15H738.545V0H692.386Z" fill="white"/>
<path d="M738.545 0V46.15H784.705V0H738.545Z" fill="white"/>
<path d="M784.705 0V46.15H830.864V0H784.705Z" fill="white"/>
<path d="M646.227 0V46.15H692.386V0H646.227Z" fill="white"/>
<path d="M646.227 46.15V92.3H692.386V46.15H646.227Z" fill="white"/>
<path d="M646.227 92.3V138.45H692.386V92.3H646.227Z" fill="white"/>
<path d="M692.386 138.45H646.227V184.6H692.386V138.45Z" fill="white"/>
<path d="M646.227 230.75H692.386V184.6H646.227V230.75Z" fill="white"/>
<path d="M600.068 184.6V230.75H646.227V184.6H600.068Z" fill="white"/>
<path d="M646.227 138.45H600.068V184.6H646.227V138.45Z" fill="white"/>
<path d="M600.068 92.3V138.45H646.227V92.3H600.068Z" fill="white"/>
<path d="M553.909 184.6V230.75H600.068V184.6H553.909Z" fill="white"/>
<path d="M507.75 138.45V184.6H553.909V138.45H507.75Z" fill="white"/>
<path d="M507.75 92.3V138.45H553.909V92.3H507.75Z" fill="white"/>
<path d="M507.75 46.15V92.3H553.909V46.15H507.75Z" fill="white"/>
<path d="M507.75 0V46.15H553.909V0H507.75Z" fill="white"/>
<path d="M553.909 0V46.15H600.068V0H553.909Z" fill="white"/>
<path d="M600.068 0V46.15H646.227V0H600.068Z" fill="white"/>
<path d="M600.068 46.15V92.3H646.227V46.15H600.068Z" fill="white"/>
<path d="M553.909 46.15V92.3H600.068V46.15H553.909Z" fill="white"/>
<path d="M553.909 92.3V138.45H600.068V92.3H553.909Z" fill="white"/>
<path d="M600.068 138.45H553.909V184.6H600.068V138.45Z" fill="white"/>
<path d="M507.75 184.6V230.75H553.909V184.6H507.75Z" fill="white"/>
<path d="M461.591 184.6V230.75H507.75V184.6H461.591Z" fill="white"/>
<path d="M461.591 138.45V184.6H507.75V138.45H461.591Z" fill="white"/>
<path d="M461.591 92.3V138.45H507.75V92.3H461.591Z" fill="white"/>
<path d="M461.591 46.15V92.3H507.75V46.15H461.591Z" fill="white"/>
<path d="M461.591 0V46.15H507.75V0H461.591Z" fill="white"/>
<path d="M415.432 0V46.15H461.591V0H415.432Z" fill="white"/>
<path d="M415.432 46.15V92.3H461.591V46.15H415.432Z" fill="white"/>
<path d="M415.432 92.3V138.45H461.591V92.3H415.432Z" fill="white"/>
<path d="M415.432 138.45V184.6H461.591V138.45H415.432Z" fill="white"/>
<path d="M369.273 138.45V184.6H415.432V138.45H369.273Z" fill="white"/>
<path d="M369.273 92.3V138.45H415.432V92.3H369.273Z" fill="white"/>
<path d="M323.114 0V46.15H369.273V0H323.114Z" fill="white"/>
<path d="M369.273 0V46.15H415.432V0H369.273Z" fill="white"/>
<path d="M369.273 46.15V92.3H415.432V46.15H369.273Z" fill="white"/>
<path d="M323.114 46.15V92.3H369.273V46.15H323.114Z" fill="white"/>
<path d="M323.114 92.3V138.45H369.273V92.3H323.114Z" fill="white"/>
<path d="M323.114 138.45V184.6H369.273V138.45H323.114Z" fill="white"/>
<path d="M323.114 184.6V230.75H369.273V184.6H323.114Z" fill="white"/>
<path d="M276.955 184.6V230.75H323.114V184.6H276.955Z" fill="white"/>
<path d="M276.955 138.45V184.6H323.114V138.45H276.955Z" fill="white"/>
<path d="M276.955 92.3V138.45H323.114V92.3H276.955Z" fill="white"/>
<path d="M276.955 0V46.15H323.114V0H276.955Z" fill="white"/>
<path d="M276.955 46.15V92.3H323.114V46.15H276.955Z" fill="white"/>
<path d="M230.795 0V46.15H276.955V0H230.795Z" fill="white"/>
<path d="M230.795 46.15V92.3H276.955V46.15H230.795Z" fill="white"/>
<path d="M230.795 92.3V138.45H276.955V92.3H230.795Z" fill="white"/>
<path d="M230.795 138.45V184.6H276.955V138.45H230.795Z" fill="white"/>
<path d="M230.795 184.6V230.75H276.955V184.6H230.795Z" fill="white"/>
<path d="M184.636 184.6V230.75H230.795V184.6H184.636Z" fill="white"/>
<path d="M138.477 184.6V230.75H184.636V184.6H138.477Z" fill="white"/>
<path d="M92.3182 138.45V184.6H138.477V138.45H92.3182Z" fill="white"/>
<path d="M92.3182 184.6V230.75H138.477V184.6H92.3182Z" fill="white"/>
<path d="M46.1591 184.6V230.75H92.3182V184.6H46.1591Z" fill="white"/>
<path d="M46.1591 138.45V184.6H92.3182V138.45H46.1591Z" fill="white"/>
<path d="M46.1591 138.45H0V184.6H46.1591V138.45Z" fill="white"/>
<path d="M46.1591 184.6H0V230.75H46.1591V184.6Z" fill="white"/>
<path d="M46.1591 92.3H0V138.45H46.1591V92.3Z" fill="white"/>
<path d="M46.1591 92.3V138.45H92.3182V92.3H46.1591Z" fill="white"/>
<path d="M92.3182 92.3V138.45H138.477V92.3H92.3182Z" fill="white"/>
<path d="M184.636 46.15V92.3H230.795V46.15H184.636Z" fill="white"/>
<path d="M138.477 46.15V92.3H184.636V46.15H138.477Z" fill="white"/>
<path d="M138.477 92.3V138.45H184.636V92.3H138.477Z" fill="white"/>
<path d="M184.636 92.3V138.45H230.795V92.3H184.636Z" fill="white"/>
<path d="M184.636 138.45V184.6H230.795V138.45H184.636Z" fill="white"/>
<path d="M138.477 138.45V184.6H184.636V138.45H138.477Z" fill="white"/>
<path d="M138.477 0V46.15H184.636V0H138.477Z" fill="white"/>
<path d="M184.636 0V46.15H230.795V0H184.636Z" fill="white"/>
<path d="M92.3182 0V46.15H138.477V0H92.3182Z" fill="white"/>
<path d="M92.3182 46.15V92.3H138.477V46.15H92.3182Z" fill="white"/>
<path d="M46.1591 46.15V92.3H92.3182V46.15H46.1591Z" fill="white"/>
<path d="M46.1591 0V46.15H92.3182V0H46.1591Z" fill="white"/>
<path d="M46.1591 0H15C6.71573 0 0 6.71572 0 15V46.15H46.1591V0Z" fill="white"/>
<path d="M46.1591 46.15H0V92.3H46.1591V46.15Z" fill="white"/>
<path d="M1384.77 369.2V323.05H1338.61V369.2H1384.77Z" fill="white"/>
<path d="M1384.77 323.05V276.9H1338.61V323.05H1384.77Z" fill="white"/>
<path d="M1384.77 276.9V230.75H1338.61V276.9H1384.77Z" fill="white"/>
<path d="M1384.77 276.9H1430.93V230.75H1384.77V276.9Z" fill="white"/>
<path d="M1523.25 276.9V230.75H1477.09V276.9H1523.25Z" fill="white"/>
<path d="M1338.61 184.6V230.75H1384.77V184.6H1338.61Z" fill="white"/>
<path d="M1384.77 138.45H1338.61V184.6H1384.77V138.45Z" fill="white"/>
<path d="M1430.93 138.45H1384.77V184.6H1430.93V138.45Z" fill="white"/>
<path d="M1384.77 230.75H1430.93V184.6H1384.77V230.75Z" fill="white"/>
<path d="M1477.09 138.45H1430.93V184.6H1477.09V138.45Z" fill="white"/>
<path d="M1430.93 230.75H1477.09V184.6H1430.93V230.75Z" fill="white"/>
<path d="M1523.25 138.45H1477.09V184.6H1523.25V138.45Z" fill="white"/>
<path d="M1523.25 230.75V184.6H1477.09V230.75H1523.25Z" fill="white"/>
<path d="M1430.93 276.9H1477.09V230.75H1430.93V276.9Z" fill="white"/>
<path d="M1430.93 276.9V323.05H1477.09V276.9H1430.93Z" fill="white"/>
<path d="M1384.77 276.9V323.05H1430.93V276.9H1384.77Z" fill="white"/>
<path d="M1338.61 46.15V92.3H1384.77V46.15H1338.61Z" fill="white"/>
<path d="M46.1591 0H15C6.71573 0 0 6.71572 0 15V46.15M46.1591 0V46.15M46.1591 0H92.3182M46.1591 46.15H0M46.1591 46.15V92.3M46.1591 46.15H92.3182M0 46.15V92.3M46.1591 92.3H0M46.1591 92.3V138.45M46.1591 92.3H92.3182M0 92.3V138.45M46.1591 138.45H0M46.1591 138.45V184.6M46.1591 138.45H92.3182M0 138.45V184.6M46.1591 184.6H0M46.1591 184.6V230.75M46.1591 184.6H92.3182M0 184.6V230.75M46.1591 230.75H0M46.1591 230.75V276.9M46.1591 230.75H92.3182M0 230.75V276.9M46.1591 276.9H0M46.1591 276.9V323.05M46.1591 276.9H92.3182M0 276.9V323.05M46.1591 323.05H0M46.1591 323.05V369.2M46.1591 323.05H92.3182M0 323.05V369.2M46.1591 369.2H0M46.1591 369.2V415.35M46.1591 369.2H92.3182M0 369.2V415.35M46.1591 415.35H0M46.1591 415.35V461.5M46.1591 415.35H92.3182M0 415.35V461.5M46.1591 461.5H0M46.1591 461.5V507.65M46.1591 461.5H92.3182M0 461.5V507.65M46.1591 507.65H0M46.1591 507.65V553.8M46.1591 507.65H92.3182M0 507.65V553.8M46.1591 553.8H0M46.1591 553.8V599.95M46.1591 553.8H92.3182M0 553.8V599.95M46.1591 599.95H0M46.1591 599.95V646.1M46.1591 599.95H92.3182M0 599.95V646.1M46.1591 646.1H0M46.1591 646.1V692.25M46.1591 646.1H92.3182M0 646.1V692.25M46.1591 692.25H0M46.1591 692.25V738.4M46.1591 692.25H92.3182M0 692.25V738.4M46.1591 738.4H0M46.1591 738.4V784.55M46.1591 738.4H92.3182M0 738.4V784.55M46.1591 784.55H0M46.1591 784.55V830.7M46.1591 784.55H92.3182M0 784.55V830.7M46.1591 830.7H0M46.1591 830.7V876.85M46.1591 830.7H92.3182M0 830.7V876.85M46.1591 876.85H0M46.1591 876.85V923M46.1591 876.85H92.3182M0 876.85V908C0 916.284 6.71574 923 15 923H46.1591M46.1591 923H92.3182M92.3182 0V46.15M92.3182 0H138.477M92.3182 46.15V92.3M92.3182 46.15H138.477M92.3182 92.3V138.45M92.3182 92.3H138.477M92.3182 138.45V184.6M92.3182 138.45H138.477M92.3182 184.6V230.75M92.3182 184.6H138.477M92.3182 230.75V276.9M92.3182 230.75H138.477M92.3182 276.9V323.05M92.3182 276.9H138.477M92.3182 323.05V369.2M92.3182 323.05H138.477M92.3182 369.2V415.35M92.3182 369.2H138.477M92.3182 415.35V461.5M92.3182 415.35H138.477M92.3182 461.5V507.65M92.3182 461.5H138.477M92.3182 507.65V553.8M92.3182 507.65H138.477M92.3182 553.8V599.95M92.3182 553.8H138.477M92.3182 599.95V646.1M92.3182 599.95H138.477M92.3182 646.1V692.25M92.3182 646.1H138.477M92.3182 692.25V738.4M92.3182 692.25H138.477M92.3182 738.4V784.55M92.3182 738.4H138.477M92.3182 784.55V830.7M92.3182 784.55H138.477M92.3182 830.7V876.85M92.3182 830.7H138.477M92.3182 876.85V923M92.3182 876.85H138.477M92.3182 923H138.477M138.477 0V46.15M138.477 0H184.636M138.477 46.15V92.3M138.477 46.15H184.636M138.477 92.3V138.45M138.477 92.3H184.636M138.477 138.45V184.6M138.477 138.45H184.636M138.477 184.6V230.75M138.477 184.6H184.636M138.477 230.75V276.9M138.477 230.75H184.636M138.477 276.9V323.05M138.477 276.9H184.636M138.477 323.05V369.2M138.477 323.05H184.636M138.477 369.2V415.35M138.477 369.2H184.636M138.477 415.35V461.5M138.477 415.35H184.636M138.477 461.5V507.65M138.477 461.5H184.636M138.477 507.65V553.8M138.477 507.65H184.636M138.477 553.8V599.95M138.477 553.8H184.636M138.477 599.95V646.1M138.477 599.95H184.636M138.477 646.1V692.25M138.477 646.1H184.636M138.477 692.25V738.4M138.477 692.25H184.636M138.477 738.4V784.55M138.477 738.4H184.636M138.477 784.55V830.7M138.477 784.55H184.636M138.477 830.7V876.85M138.477 830.7H184.636M138.477 876.85V923M138.477 876.85H184.636M138.477 923H184.636M184.636 0V46.15M184.636 0H230.795M184.636 46.15V92.3M184.636 46.15H230.795M184.636 92.3V138.45M184.636 92.3H230.795M184.636 138.45V184.6M184.636 138.45H230.795M184.636 184.6V230.75M184.636 184.6H230.795M184.636 230.75V276.9M184.636 230.75H230.795M184.636 276.9V323.05M184.636 276.9H230.795M184.636 323.05V369.2M184.636 323.05H230.795M184.636 369.2V415.35M184.636 369.2H230.795M184.636 415.35V461.5M184.636 415.35H230.795M184.636 461.5V507.65M184.636 461.5H230.795M184.636 507.65V553.8M184.636 507.65H230.795M184.636 553.8V599.95M184.636 553.8H230.795M184.636 599.95V646.1M184.636 599.95H230.795M184.636 646.1V692.25M184.636 646.1H230.795M184.636 692.25V738.4M184.636 692.25H230.795M184.636 738.4V784.55M184.636 738.4H230.795M184.636 784.55V830.7M184.636 784.55H230.795M184.636 830.7V876.85M184.636 830.7H230.795M184.636 876.85V923M184.636 876.85H230.795M184.636 923H230.795M230.795 0V46.15M230.795 0H276.955M230.795 46.15V92.3M230.795 46.15H276.955M230.795 92.3V138.45M230.795 92.3H276.955M230.795 138.45V184.6M230.795 138.45H276.955M230.795 184.6V230.75M230.795 184.6H276.955M230.795 230.75V276.9M230.795 230.75H276.955M230.795 276.9V323.05M230.795 276.9H276.955M230.795 323.05V369.2M230.795 323.05H276.955M230.795 369.2V415.35M230.795 369.2H276.955M230.795 415.35V461.5M230.795 415.35H276.955M230.795 461.5V507.65M230.795 461.5H276.955M230.795 507.65V553.8M230.795 507.65H276.955M230.795 553.8V599.95M230.795 553.8H276.955M230.795 599.95V646.1M230.795 599.95H276.955M230.795 646.1V692.25M230.795 646.1H276.955M230.795 692.25V738.4M230.795 692.25H276.955M230.795 738.4V784.55M230.795 738.4H276.955M230.795 784.55V830.7M230.795 784.55H276.955M230.795 830.7V876.85M230.795 830.7H276.955M230.795 876.85V923M230.795 876.85H276.955M230.795 923H276.955M276.955 0V46.15M276.955 0H323.114M276.955 46.15V92.3M276.955 46.15H323.114M276.955 92.3V138.45M276.955 92.3H323.114M276.955 138.45V184.6M276.955 138.45H323.114M276.955 184.6V230.75M276.955 184.6H323.114M276.955 230.75V276.9M276.955 230.75H323.114M276.955 276.9V323.05M276.955 276.9H323.114M276.955 323.05V369.2M276.955 323.05H323.114M276.955 369.2V415.35M276.955 369.2H323.114M276.955 415.35V461.5M276.955 415.35H323.114M276.955 461.5V507.65M276.955 461.5H323.114M276.955 507.65V553.8M276.955 507.65H323.114M276.955 553.8V599.95M276.955 553.8H323.114M276.955 599.95V646.1M276.955 599.95H323.114M276.955 646.1V692.25M276.955 646.1H323.114M276.955 692.25V738.4M276.955 692.25H323.114M276.955 738.4V784.55M276.955 738.4H323.114M276.955 784.55V830.7M276.955 784.55H323.114M276.955 830.7V876.85M276.955 830.7H323.114M276.955 876.85V923M276.955 876.85H323.114M276.955 923H323.114M323.114 0V46.15M323.114 0H369.273M323.114 46.15V92.3M323.114 46.15H369.273M323.114 92.3V138.45M323.114 92.3H369.273M323.114 138.45V184.6M323.114 138.45H369.273M323.114 184.6V230.75M323.114 184.6H369.273M323.114 230.75V276.9M323.114 230.75H369.273M323.114 276.9V323.05M323.114 276.9H369.273M323.114 323.05H369.273M323.114 323.05V369.2M323.114 369.2V415.35M323.114 369.2H369.273M323.114 415.35V461.5M323.114 415.35H369.273M323.114 461.5V507.65M323.114 461.5H369.273M323.114 507.65V553.8M323.114 507.65H369.273M323.114 553.8V599.95M323.114 553.8H369.273M323.114 599.95V646.1M323.114 599.95H369.273M323.114 646.1V692.25M323.114 646.1H369.273M323.114 692.25V738.4M323.114 692.25H369.273M323.114 738.4V784.55M323.114 738.4H369.273M323.114 784.55V830.7M323.114 784.55H369.273M323.114 830.7V876.85M323.114 830.7H369.273M323.114 876.85V923M323.114 876.85H369.273M323.114 923H369.273M369.273 0V46.15M369.273 0H415.432M369.273 46.15V92.3M369.273 46.15H415.432M369.273 92.3V138.45M369.273 92.3H415.432M369.273 138.45V184.6M369.273 138.45H415.432M369.273 184.6V230.75M369.273 184.6H415.432M369.273 230.75V276.9M369.273 230.75H415.432M369.273 276.9V323.05M369.273 276.9H415.432M369.273 323.05V369.2M369.273 323.05H415.432M369.273 369.2V415.35M369.273 369.2H415.432M369.273 415.35V461.5M369.273 415.35H415.432M369.273 461.5V507.65M369.273 461.5H415.432M369.273 507.65V553.8M369.273 507.65H415.432M369.273 553.8V599.95M369.273 553.8H415.432M369.273 599.95V646.1M369.273 599.95C369.273 599.95 397.406 599.95 415.432 599.95M369.273 646.1V692.25M369.273 646.1H415.432M369.273 692.25V738.4M369.273 692.25H415.432M369.273 738.4V784.55M369.273 738.4H415.432M369.273 784.55V830.7M369.273 784.55H415.432M369.273 830.7V876.85M369.273 830.7H415.432M369.273 876.85V923M369.273 876.85H415.432M369.273 923H415.432M415.432 0V46.15M415.432 0H461.591M415.432 46.15V92.3M415.432 46.15H461.591M415.432 92.3V138.45M415.432 92.3H461.591M415.432 138.45V184.6M415.432 138.45H461.591M415.432 184.6V230.75M415.432 184.6H461.591M415.432 230.75V276.9M415.432 230.75H461.591M415.432 276.9V323.05M415.432 276.9H461.591M415.432 323.05V369.2M415.432 323.05H461.591M415.432 369.2V415.35M415.432 369.2H461.591M415.432 415.35V461.5M415.432 415.35H461.591M415.432 461.5V507.65M415.432 461.5H461.591M415.432 507.65V553.8M415.432 507.65H461.591M415.432 553.8C415.432 553.8 415.432 581.927 415.432 599.95M415.432 553.8H461.591M415.432 599.95C415.432 617.973 415.432 646.1 415.432 646.1M415.432 599.95C433.458 599.95 461.591 599.95 461.591 599.95M415.432 646.1V692.25M415.432 646.1H461.591M415.432 692.25V738.4M415.432 692.25H461.591M415.432 738.4V784.55M415.432 738.4H461.591M415.432 784.55V830.7M415.432 784.55H461.591M415.432 830.7V876.85M415.432 830.7H461.591M415.432 876.85V923M415.432 876.85H461.591M415.432 923H461.591M461.591 0V46.15M461.591 0H507.75M461.591 46.15V92.3M461.591 46.15H507.75M461.591 92.3V138.45M461.591 92.3H507.75M461.591 138.45V184.6M461.591 138.45H507.75M461.591 184.6V230.75M461.591 184.6H507.75M461.591 230.75V276.9M461.591 230.75H507.75M461.591 276.9V323.05M461.591 276.9H507.75M461.591 323.05V369.2M461.591 323.05H507.75M461.591 369.2V415.35M461.591 369.2H507.75M461.591 415.35V461.5M461.591 415.35H507.75M461.591 461.5V507.65M461.591 461.5H507.75M461.591 507.65V553.8M461.591 507.65H507.75M461.591 553.8V599.95M461.591 553.8H507.75M461.591 599.95V646.1M461.591 599.95H507.75M461.591 646.1V692.25M461.591 646.1H507.75M461.591 692.25V738.4M461.591 692.25H507.75M461.591 738.4V784.55M461.591 738.4H507.75M461.591 784.55V830.7M461.591 784.55H507.75M461.591 830.7V876.85M461.591 830.7H507.75M461.591 876.85V923M461.591 876.85H507.75M461.591 923H507.75M507.75 0V46.15M507.75 0H553.909M507.75 46.15V92.3M507.75 46.15H553.909M507.75 92.3V138.45M507.75 92.3H553.909M507.75 138.45V184.6M507.75 138.45H553.909M507.75 184.6V230.75M507.75 184.6H553.909M507.75 230.75V276.9M507.75 230.75H553.909M507.75 276.9V323.05M507.75 276.9H553.909M507.75 323.05V369.2M507.75 323.05H553.909M507.75 369.2V415.35M507.75 369.2H553.909M507.75 415.35V461.5M507.75 415.35H553.909M507.75 461.5V507.65M507.75 461.5H553.909M507.75 507.65V553.8M507.75 507.65H553.909M507.75 553.8V599.95M507.75 553.8H553.909M507.75 599.95V646.1M507.75 599.95H553.909M507.75 646.1V692.25M507.75 646.1H553.909M507.75 692.25V738.4M507.75 692.25H553.909M507.75 738.4V784.55M507.75 738.4H553.909M507.75 784.55V830.7M507.75 784.55H553.909M507.75 830.7V876.85M507.75 830.7H553.909M507.75 876.85V923M507.75 876.85H553.909M507.75 923H553.909M553.909 0V46.15M553.909 0H600.068M553.909 46.15V92.3M553.909 46.15H600.068M553.909 92.3V138.45M553.909 92.3H600.068M553.909 138.45H600.068M553.909 138.45V184.6M553.909 276.9V323.05M553.909 276.9H600.068M553.909 276.9V230.75M553.909 323.05V369.2M553.909 323.05H600.068M553.909 369.2V415.35M553.909 369.2H600.068M553.909 415.35V461.5M553.909 415.35H600.068M553.909 461.5V507.65M553.909 461.5H600.068M553.909 507.65V553.8M553.909 507.65H600.068M553.909 553.8V599.95M553.909 553.8H600.068M553.909 599.95V646.1M553.909 599.95H600.068M553.909 646.1V692.25M553.909 646.1H600.068M553.909 692.25V738.4M553.909 692.25H600.068M553.909 738.4V784.55M553.909 738.4H600.068M553.909 784.55V830.7M553.909 784.55H600.068M553.909 830.7V876.85M553.909 830.7H600.068M553.909 876.85V923M553.909 876.85H600.068M553.909 923H600.068M600.068 0V46.15M600.068 0H646.227M600.068 46.15V92.3M600.068 46.15H646.227M600.068 92.3V138.45M600.068 92.3H646.227M600.068 138.45H646.227M600.068 138.45V184.6M600.068 276.9V323.05M600.068 276.9H646.227M600.068 276.9V230.75M600.068 323.05V369.2M600.068 323.05H646.227M600.068 369.2V415.35M600.068 369.2H646.227M600.068 415.35V461.5M600.068 415.35H646.227M600.068 461.5V507.65M600.068 461.5H646.227M600.068 507.65V553.8M600.068 507.65H646.227M600.068 553.8V599.95M600.068 553.8H646.227M600.068 599.95V646.1M600.068 599.95H646.227M600.068 646.1V692.25M600.068 646.1H646.227M600.068 692.25V738.4M600.068 692.25H646.227M600.068 738.4V784.55M600.068 738.4H646.227M600.068 784.55V830.7M600.068 784.55H646.227M600.068 830.7V876.85M600.068 830.7H646.227M600.068 876.85V923M600.068 876.85H646.227M600.068 923H646.227M646.227 0V46.15M646.227 0H692.386M646.227 46.15V92.3M646.227 46.15H692.386M646.227 92.3V138.45M646.227 92.3H692.386M646.227 138.45H692.386M646.227 138.45V184.6M646.227 276.9V323.05M646.227 276.9V230.75M646.227 276.9H692.386M646.227 323.05V369.2M646.227 323.05H692.386M646.227 369.2V415.35M646.227 369.2H692.386M646.227 415.35V461.5M646.227 415.35H692.386M646.227 461.5V507.65M646.227 461.5H692.386M646.227 507.65V553.8M646.227 507.65H692.386M646.227 553.8V599.95M646.227 553.8H692.386M646.227 599.95V646.1M646.227 599.95H692.386M646.227 646.1V692.25M646.227 646.1H692.386M646.227 692.25V738.4M646.227 692.25H692.386M646.227 738.4V784.55M646.227 738.4H692.386M646.227 784.55V830.7M646.227 784.55H692.386M646.227 830.7V876.85M646.227 830.7H692.386M646.227 876.85V923M646.227 876.85H692.386M646.227 923H692.386M692.386 0V46.15M692.386 0H738.545M692.386 46.15V92.3M692.386 46.15H738.545M692.386 92.3V138.45M692.386 92.3H738.545M692.386 138.45H738.545M692.386 138.45V184.6M692.386 369.2V415.35M692.386 369.2H738.545M692.386 369.2V323.05M692.386 415.35V461.5M692.386 415.35H738.545M692.386 461.5V507.65M692.386 461.5H738.545M692.386 507.65V553.8M692.386 507.65H738.545M692.386 553.8V599.95M692.386 553.8H738.545M692.386 599.95V646.1M692.386 599.95H738.545M692.386 646.1V692.25M692.386 646.1H738.545M692.386 692.25V738.4M692.386 692.25H738.545M692.386 738.4V784.55M692.386 738.4H738.545M692.386 784.55V830.7M692.386 784.55H738.545M692.386 830.7V876.85M692.386 830.7H738.545M692.386 876.85V923M692.386 876.85H738.545M692.386 923H738.545M738.545 0V46.15M738.545 0H784.705M738.545 46.15V92.3M738.545 46.15H784.705M738.545 92.3V138.45M738.545 92.3H784.705M738.545 138.45H784.705M738.545 138.45V184.6M738.545 369.2V415.35M738.545 369.2H784.705M738.545 369.2V323.05M738.545 415.35V461.5M738.545 415.35H784.705M738.545 461.5V507.65M738.545 461.5H784.705M738.545 507.65V553.8M738.545 507.65H784.705M738.545 553.8V599.95M738.545 553.8H784.705M738.545 599.95V646.1M738.545 599.95H784.705M738.545 646.1V692.25M738.545 646.1H784.705M738.545 692.25V738.4M738.545 692.25H784.705M738.545 738.4V784.55M738.545 738.4H784.705M738.545 784.55V830.7M738.545 784.55H784.705M738.545 830.7V876.85M738.545 830.7H784.705M738.545 876.85V923M738.545 876.85H784.705M738.545 923H784.705M784.705 0V46.15M784.705 0H830.864M784.705 46.15V92.3M784.705 46.15H830.864M784.705 92.3V138.45M784.705 92.3H830.864M784.705 138.45H830.864M784.705 138.45V184.6M784.705 369.2V415.35M784.705 369.2H830.864M784.705 369.2V323.05M784.705 415.35V461.5M784.705 415.35H830.864M784.705 461.5V507.65M784.705 461.5H830.864M784.705 507.65V553.8M784.705 507.65H830.864M784.705 553.8V599.95M784.705 553.8H830.864M784.705 599.95V646.1M784.705 599.95H830.864M784.705 646.1V692.25M784.705 646.1H830.864M784.705 692.25V738.4M784.705 692.25H830.864M784.705 738.4V784.55M784.705 738.4H830.864M784.705 784.55V830.7M784.705 784.55H830.864M784.705 830.7V876.85M784.705 830.7H830.864M784.705 876.85V923M784.705 876.85H830.864M784.705 923H830.864M830.864 0V46.15M830.864 0H877.023M830.864 46.15V92.3M830.864 46.15H877.023M830.864 92.3V138.45M830.864 92.3H877.023M830.864 138.45H877.023M830.864 138.45V184.6M830.864 369.2V415.35M830.864 369.2H877.023M830.864 369.2V323.05M830.864 415.35V461.5M830.864 415.35H877.023M830.864 461.5V507.65M830.864 461.5H877.023M830.864 507.65V553.8M830.864 507.65H877.023M830.864 553.8V599.95M830.864 553.8H877.023M830.864 599.95V646.1M830.864 599.95H877.023M830.864 646.1V692.25M830.864 646.1H877.023M830.864 692.25V738.4M830.864 692.25H877.023M830.864 738.4V784.55M830.864 738.4H877.023M830.864 784.55V830.7M830.864 784.55H877.023M830.864 830.7V876.85M830.864 830.7H877.023M830.864 876.85V923M830.864 876.85H877.023M830.864 923H877.023M877.023 0V46.15M877.023 0H923.182M877.023 46.15V92.3M877.023 46.15H923.182M877.023 92.3V138.45M877.023 92.3H923.182M877.023 138.45H923.182M877.023 138.45V184.6M877.023 369.2V415.35M877.023 369.2H923.182M877.023 369.2V323.05M877.023 415.35V461.5M877.023 415.35H923.182M877.023 461.5V507.65M877.023 461.5H923.182M877.023 507.65V553.8M877.023 507.65H923.182M877.023 553.8V599.95M877.023 553.8H923.182M877.023 599.95V646.1M877.023 599.95H923.182M877.023 646.1V692.25M877.023 646.1H923.182M877.023 692.25V738.4M877.023 692.25H923.182M877.023 738.4V784.55M877.023 738.4H923.182M877.023 784.55V830.7M877.023 784.55H923.182M877.023 830.7V876.85M877.023 830.7H923.182M877.023 876.85V923M877.023 876.85H923.182M877.023 923H923.182M923.182 0V46.15M923.182 0H969.341M923.182 46.15V92.3M923.182 46.15H969.341M923.182 92.3V138.45M923.182 92.3H969.341M923.182 138.45H969.341M923.182 138.45V184.6M923.182 369.2V415.35M923.182 369.2H969.341M923.182 369.2V323.05M923.182 415.35V461.5M923.182 415.35H969.341M923.182 461.5V507.65M923.182 461.5H969.341M923.182 507.65V553.8M923.182 507.65H969.341M923.182 553.8V599.95M923.182 553.8H969.341M923.182 599.95V646.1M923.182 599.95H969.341M923.182 646.1V692.25M923.182 646.1H969.341M923.182 692.25V738.4M923.182 692.25H969.341M923.182 738.4V784.55M923.182 738.4H969.341M923.182 784.55V830.7M923.182 784.55H969.341M923.182 830.7V876.85M923.182 830.7H969.341M923.182 876.85V923M923.182 876.85H969.341M923.182 923H969.341M969.341 0V46.15M969.341 0H1015.5M969.341 46.15H1015.5M969.341 46.15V92.3M969.341 92.3V138.45M969.341 92.3H1015.5M969.341 138.45H1015.5M969.341 138.45V184.6M969.341 369.2V415.35M969.341 369.2H1015.5M969.341 369.2V323.05M969.341 415.35V461.5M969.341 415.35H1015.5M969.341 461.5V507.65M969.341 461.5H1015.5M969.341 507.65V553.8M969.341 507.65H1015.5M969.341 553.8V599.95M969.341 553.8H1015.5M969.341 599.95V646.1M969.341 599.95H1015.5M969.341 646.1V692.25M969.341 646.1H1015.5M969.341 692.25V738.4M969.341 692.25H1015.5M969.341 738.4V784.55M969.341 738.4H1015.5M969.341 784.55V830.7M969.341 784.55H1015.5M969.341 830.7V876.85M969.341 830.7H1015.5M969.341 876.85V923M969.341 876.85H1015.5M969.341 923H1015.5M1015.5 0V46.15M1015.5 0H1061.66M1015.5 46.15H1061.66M1015.5 46.15V92.3M1015.5 92.3V138.45M1015.5 92.3H1061.66M1015.5 138.45H1061.66M1015.5 138.45V184.6M1015.5 369.2V415.35M1015.5 369.2H1061.66M1015.5 369.2V323.05M1015.5 415.35V461.5M1015.5 415.35H1061.66M1015.5 461.5V507.65M1015.5 461.5H1061.66M1015.5 507.65V553.8M1015.5 507.65H1061.66M1015.5 553.8V599.95M1015.5 553.8H1061.66M1015.5 599.95V646.1M1015.5 599.95H1061.66M1015.5 646.1V692.25M1015.5 646.1H1061.66M1015.5 692.25V738.4M1015.5 692.25H1061.66M1015.5 738.4V784.55M1015.5 738.4H1061.66M1015.5 784.55V830.7M1015.5 784.55H1061.66M1015.5 830.7V876.85M1015.5 830.7H1061.66M1015.5 876.85V923M1015.5 876.85H1061.66M1015.5 923H1061.66M1061.66 0V46.15M1061.66 0H1107.82M1061.66 46.15H1107.82M1061.66 46.15V92.3M1061.66 92.3V138.45M1061.66 92.3H1107.82M1061.66 138.45H1107.82M1061.66 138.45V184.6M1061.66 369.2V415.35M1061.66 369.2H1107.82M1061.66 369.2V323.05M1061.66 415.35V461.5M1061.66 415.35H1107.82M1061.66 461.5V507.65M1061.66 461.5H1107.82M1061.66 507.65V553.8M1061.66 507.65H1107.82M1061.66 553.8V599.95M1061.66 553.8H1107.82M1061.66 599.95V646.1M1061.66 599.95H1107.82M1061.66 646.1V692.25M1061.66 646.1H1107.82M1061.66 692.25V738.4M1061.66 692.25H1107.82M1061.66 738.4V784.55M1061.66 738.4H1107.82M1061.66 784.55V830.7M1061.66 784.55H1107.82M1061.66 830.7V876.85M1061.66 830.7H1107.82M1061.66 876.85V923M1061.66 876.85H1107.82M1061.66 923H1107.82M1107.82 0V46.15M1107.82 0H1153.98M1107.82 46.15H1153.98M1107.82 46.15V92.3M1107.82 92.3V138.45M1107.82 92.3H1153.98M1107.82 138.45H1153.98M1107.82 138.45V184.6M1107.82 369.2V415.35M1107.82 369.2H1153.98M1107.82 369.2V323.05M1107.82 415.35V461.5M1107.82 415.35H1153.98M1107.82 461.5V507.65M1107.82 461.5H1153.98M1107.82 507.65V553.8M1107.82 507.65H1153.98M1107.82 553.8V599.95M1107.82 553.8H1153.98M1107.82 599.95V646.1M1107.82 599.95H1153.98M1107.82 646.1V692.25M1107.82 646.1H1153.98M1107.82 692.25V738.4M1107.82 692.25H1153.98M1107.82 738.4V784.55M1107.82 738.4H1153.98M1107.82 784.55V830.7M1107.82 784.55H1153.98M1107.82 830.7V876.85M1107.82 830.7H1153.98M1107.82 876.85V923M1107.82 876.85H1153.98M1107.82 923H1153.98M1153.98 0V46.15M1153.98 0H1200.14M1153.98 46.15V92.3M1153.98 46.15H1200.14M1153.98 92.3V138.45M1153.98 92.3H1200.14M1153.98 138.45H1200.14M1153.98 138.45V184.6M1153.98 369.2V415.35M1153.98 369.2H1200.14M1153.98 369.2V323.05M1153.98 415.35V461.5M1153.98 415.35H1200.14M1153.98 461.5V507.65M1153.98 461.5H1200.14M1153.98 507.65V553.8M1153.98 507.65H1200.14M1153.98 553.8V599.95M1153.98 553.8H1200.14M1153.98 599.95V646.1M1153.98 599.95H1200.14M1153.98 646.1V692.25M1153.98 646.1H1200.14M1153.98 692.25V738.4M1153.98 692.25H1200.14M1153.98 738.4V784.55M1153.98 738.4H1200.14M1153.98 784.55V830.7M1153.98 784.55H1200.14M1153.98 830.7V876.85M1153.98 830.7H1200.14M1153.98 876.85V923M1153.98 876.85H1200.14M1153.98 923H1200.14M1200.14 0V46.15M1200.14 0H1246.3M1200.14 46.15V92.3M1200.14 46.15H1246.3M1200.14 92.3V138.45M1200.14 92.3H1246.3M1200.14 138.45H1246.3M1200.14 138.45V184.6M1200.14 369.2V415.35M1200.14 369.2H1246.3M1200.14 369.2V323.05M1200.14 415.35V461.5M1200.14 415.35H1246.3M1200.14 461.5V507.65M1200.14 461.5H1246.3M1200.14 507.65V553.8M1200.14 507.65H1246.3M1200.14 553.8V599.95M1200.14 553.8H1246.3M1200.14 599.95V646.1M1200.14 599.95H1246.3M1200.14 646.1V692.25M1200.14 646.1H1246.3M1200.14 692.25V738.4M1200.14 692.25H1246.3M1200.14 738.4V784.55M1200.14 738.4H1246.3M1200.14 784.55V830.7M1200.14 784.55H1246.3M1200.14 830.7V876.85M1200.14 830.7H1246.3M1200.14 876.85V923M1200.14 876.85H1246.3M1200.14 923H1246.3M1246.3 0V46.15M1246.3 0H1292.45M1246.3 46.15V92.3M1246.3 46.15H1292.45M1246.3 92.3V138.45M1246.3 92.3H1292.45M1246.3 138.45H1292.45M1246.3 138.45V184.6M1246.3 369.2V415.35M1246.3 369.2H1292.45M1246.3 369.2V323.05M1246.3 415.35V461.5M1246.3 415.35H1292.45M1246.3 461.5V507.65M1246.3 461.5H1292.45M1246.3 507.65V553.8M1246.3 507.65H1292.45M1246.3 553.8V599.95M1246.3 553.8H1292.45M1246.3 599.95V646.1M1246.3 599.95H1292.45M1246.3 646.1V692.25M1246.3 646.1H1292.45M1246.3 692.25V738.4M1246.3 692.25H1292.45M1246.3 738.4V784.55M1246.3 738.4H1292.45M1246.3 784.55V830.7M1246.3 784.55H1292.45M1246.3 830.7V876.85M1246.3 830.7H1292.45M1246.3 876.85V923M1246.3 876.85H1292.45M1246.3 923H1292.45M1292.45 0V46.15M1292.45 0H1338.61M1292.45 46.15V92.3M1292.45 46.15H1338.61M1292.45 92.3V138.45M1292.45 92.3H1338.61M1292.45 138.45H1338.61M1292.45 138.45V184.6M1292.45 369.2V415.35M1292.45 369.2H1338.61M1292.45 369.2V323.05M1292.45 415.35V461.5M1292.45 415.35H1338.61M1292.45 461.5V507.65M1292.45 461.5H1338.61M1292.45 507.65V553.8M1292.45 507.65H1338.61M1292.45 553.8V599.95M1292.45 553.8H1338.61M1292.45 599.95V646.1M1292.45 599.95H1338.61M1292.45 646.1V692.25M1292.45 646.1H1338.61M1292.45 692.25V738.4M1292.45 692.25H1338.61M1292.45 738.4V784.55M1292.45 738.4H1338.61M1292.45 784.55V830.7M1292.45 784.55H1338.61M1292.45 830.7V876.85M1292.45 830.7H1338.61M1292.45 876.85V923M1292.45 876.85H1338.61M1292.45 923H1338.61M1338.61 0V46.15M1338.61 0H1384.77M1338.61 46.15V92.3M1338.61 46.15H1384.77M1338.61 92.3V138.45M1338.61 92.3H1384.77M1338.61 138.45H1384.77M1338.61 138.45V184.6M1338.61 369.2V415.35M1338.61 369.2H1384.77M1338.61 369.2V323.05M1338.61 415.35V461.5M1338.61 415.35H1384.77M1338.61 461.5V507.65M1338.61 461.5H1384.77M1338.61 507.65V553.8M1338.61 507.65H1384.77M1338.61 553.8V599.95M1338.61 553.8H1384.77M1338.61 599.95V646.1M1338.61 599.95H1384.77M1338.61 646.1V692.25M1338.61 646.1H1384.77M1338.61 692.25V738.4M1338.61 692.25H1384.77M1338.61 738.4V784.55M1338.61 738.4H1384.77M1338.61 784.55V830.7M1338.61 784.55H1384.77M1338.61 830.7V876.85M1338.61 830.7H1384.77M1338.61 876.85V923M1338.61 876.85H1384.77M1338.61 923H1384.77M1384.77 0V46.15M1384.77 0H1430.93M1384.77 46.15V92.3M1384.77 46.15H1430.93M1384.77 92.3V138.45M1384.77 92.3H1430.93M1384.77 138.45H1430.93M1384.77 138.45V184.6M1384.77 276.9V323.05M1384.77 276.9H1430.93M1384.77 276.9H1338.61M1384.77 276.9V230.75M1384.77 323.05V369.2M1384.77 323.05H1430.93M1384.77 323.05H1338.61M1384.77 369.2V415.35M1384.77 369.2H1430.93M1384.77 415.35V461.5M1384.77 415.35H1430.93M1384.77 461.5V507.65M1384.77 461.5H1430.93M1384.77 507.65V553.8M1384.77 507.65H1430.93M1384.77 553.8V599.95M1384.77 553.8H1430.93M1384.77 599.95V646.1M1384.77 599.95H1430.93M1384.77 646.1V692.25M1384.77 646.1H1430.93M1384.77 692.25V738.4M1384.77 692.25H1430.93M1384.77 738.4V784.55M1384.77 738.4H1430.93M1384.77 784.55V830.7M1384.77 784.55H1430.93M1384.77 830.7V876.85M1384.77 830.7H1430.93M1384.77 876.85V923M1384.77 876.85H1430.93M1384.77 923H1430.93M1430.93 0V46.15M1430.93 0H1477.09M1430.93 46.15V92.3M1430.93 46.15H1477.09M1430.93 92.3V138.45M1430.93 92.3H1477.09M1430.93 138.45H1477.09M1430.93 138.45V184.6M1430.93 276.9V323.05M1430.93 276.9H1477.09M1430.93 276.9V230.75M1430.93 323.05V369.2M1430.93 323.05H1477.09M1430.93 369.2V415.35M1430.93 369.2H1477.09M1430.93 415.35V461.5M1430.93 415.35H1477.09M1430.93 461.5V507.65M1430.93 461.5H1477.09M1430.93 507.65V553.8M1430.93 507.65H1477.09M1430.93 553.8V599.95M1430.93 553.8H1477.09M1430.93 599.95V646.1M1430.93 599.95H1477.09M1430.93 646.1V692.25M1430.93 646.1H1477.09M1430.93 692.25V738.4M1430.93 692.25H1477.09M1430.93 738.4V784.55M1430.93 738.4H1477.09M1430.93 784.55V830.7M1430.93 784.55H1477.09M1430.93 830.7V876.85M1430.93 830.7H1477.09M1430.93 876.85V923M1430.93 876.85H1477.09M1430.93 923H1477.09M1477.09 0V46.15M1477.09 0H1523.25M1477.09 46.15V92.3M1477.09 46.15H1523.25M1477.09 92.3V138.45M1477.09 92.3H1523.25M1477.09 138.45H1523.25M1477.09 138.45V184.6M1477.09 276.9V323.05M1477.09 276.9H1523.25M1477.09 276.9V230.75M1477.09 323.05V369.2M1477.09 323.05H1523.25M1477.09 369.2V415.35M1477.09 369.2H1523.25M1477.09 415.35V461.5M1477.09 415.35H1523.25M1477.09 461.5V507.65M1477.09 461.5H1523.25M1477.09 507.65V553.8M1477.09 507.65H1523.25M1477.09 553.8V599.95M1477.09 553.8H1523.25M1477.09 599.95V646.1M1477.09 599.95H1523.25M1477.09 646.1V692.25M1477.09 646.1H1523.25M1477.09 692.25V738.4M1477.09 692.25H1523.25M1477.09 738.4V784.55M1477.09 738.4H1523.25M1477.09 784.55V830.7M1477.09 784.55H1523.25M1477.09 830.7V876.85M1477.09 830.7H1523.25M1477.09 876.85V923M1477.09 876.85H1523.25M1477.09 923H1523.25M1523.25 0V46.15M1523.25 0H1569.41M1523.25 46.15V92.3M1523.25 46.15H1569.41M1523.25 92.3V138.45M1523.25 92.3H1569.41M1523.25 138.45V184.6M1523.25 138.45H1569.41M1523.25 184.6V230.75M1523.25 184.6H1569.41M1523.25 184.6H1477.09M1523.25 230.75V276.9M1523.25 230.75H1569.41M1523.25 230.75H1477.09M1523.25 276.9V323.05M1523.25 276.9H1569.41M1523.25 323.05V369.2M1523.25 323.05H1569.41M1523.25 369.2V415.35M1523.25 369.2H1569.41M1523.25 415.35V461.5M1523.25 415.35H1569.41M1523.25 461.5V507.65M1523.25 461.5H1569.41M1523.25 507.65V553.8M1523.25 507.65H1569.41M1523.25 553.8V599.95M1523.25 553.8H1569.41M1523.25 599.95V646.1M1523.25 599.95H1569.41M1523.25 646.1V692.25M1523.25 646.1H1569.41M1523.25 692.25V738.4M1523.25 692.25H1569.41M1523.25 738.4V784.55M1523.25 738.4H1569.41M1523.25 784.55V830.7M1523.25 784.55H1569.41M1523.25 830.7V876.85M1523.25 830.7H1569.41M1523.25 876.85V923M1523.25 876.85H1569.41M1523.25 923H1569.41M1569.41 0V46.15M1569.41 0H1615.57M1569.41 46.15V92.3M1569.41 46.15H1615.57M1569.41 92.3V138.45M1569.41 92.3H1615.57M1569.41 138.45V184.6M1569.41 138.45H1615.57M1569.41 184.6V230.75M1569.41 184.6H1615.57M1569.41 230.75V276.9M1569.41 230.75H1615.57M1569.41 276.9V323.05M1569.41 276.9H1615.57M1569.41 323.05V369.2M1569.41 323.05H1615.57M1569.41 369.2V415.35M1569.41 369.2H1615.57M1569.41 415.35V461.5M1569.41 415.35H1615.57M1569.41 461.5V507.65M1569.41 461.5H1615.57M1569.41 507.65V553.8M1569.41 507.65H1615.57M1569.41 553.8V599.95M1569.41 553.8H1615.57M1569.41 599.95V646.1M1569.41 599.95H1615.57M1569.41 646.1V692.25M1569.41 646.1H1615.57M1569.41 692.25V738.4M1569.41 692.25H1615.57M1569.41 738.4V784.55M1569.41 738.4H1615.57M1569.41 784.55V830.7M1569.41 784.55H1615.57M1569.41 830.7V876.85M1569.41 830.7H1615.57M1569.41 876.85V923M1569.41 876.85H1615.57M1569.41 923H1615.57M1615.57 0V46.15M1615.57 0H1661.73M1615.57 46.15V92.3M1615.57 46.15H1661.73M1615.57 92.3V138.45M1615.57 92.3H1661.73M1615.57 138.45V184.6M1615.57 138.45H1661.73M1615.57 184.6V230.75M1615.57 184.6H1661.73M1615.57 230.75V276.9M1615.57 230.75H1661.73M1615.57 276.9V323.05M1615.57 276.9H1661.73M1615.57 323.05V369.2M1615.57 323.05H1661.73M1615.57 369.2V415.35M1615.57 369.2H1661.73M1615.57 415.35V461.5M1615.57 415.35H1661.73M1615.57 461.5V507.65M1615.57 461.5H1661.73M1615.57 507.65V553.8M1615.57 507.65H1661.73M1615.57 553.8V599.95M1615.57 553.8H1661.73M1615.57 599.95V646.1M1615.57 599.95H1661.73M1615.57 646.1V692.25M1615.57 646.1H1661.73M1615.57 692.25V738.4M1615.57 692.25H1661.73M1615.57 738.4V784.55M1615.57 738.4H1661.73M1615.57 784.55V830.7M1615.57 784.55H1661.73M1615.57 830.7V876.85M1615.57 830.7H1661.73M1615.57 876.85V923M1615.57 876.85H1661.73M1615.57 923H1661.73M1661.73 0V46.15M1661.73 0H1707.89M1661.73 46.15V92.3M1661.73 46.15H1707.89M1661.73 92.3V138.45M1661.73 92.3H1707.89M1661.73 138.45V184.6M1661.73 138.45H1707.89M1661.73 184.6V230.75M1661.73 184.6H1707.89M1661.73 230.75V276.9M1661.73 230.75H1707.89M1661.73 276.9V323.05M1661.73 276.9H1707.89M1661.73 323.05V369.2M1661.73 323.05H1707.89M1661.73 369.2V415.35M1661.73 369.2H1707.89M1661.73 415.35V461.5M1661.73 415.35H1707.89M1661.73 461.5V507.65M1661.73 461.5H1707.89M1661.73 507.65V553.8M1661.73 507.65H1707.89M1661.73 553.8V599.95M1661.73 553.8H1707.89M1661.73 599.95V646.1M1661.73 599.95H1707.89M1661.73 646.1V692.25M1661.73 646.1H1707.89M1661.73 692.25V738.4M1661.73 692.25H1707.89M1661.73 738.4V784.55M1661.73 738.4H1707.89M1661.73 784.55V830.7M1661.73 784.55H1707.89M1661.73 830.7V876.85M1661.73 830.7H1707.89M1661.73 876.85V923M1661.73 876.85H1707.89M1661.73 923H1707.89M1707.89 0V46.15M1707.89 0H1754.05M1707.89 46.15V92.3M1707.89 46.15H1754.05M1707.89 92.3V138.45M1707.89 92.3H1754.05M1707.89 138.45V184.6M1707.89 138.45H1754.05M1707.89 184.6V230.75M1707.89 184.6H1754.05M1707.89 230.75V276.9M1707.89 230.75H1754.05M1707.89 276.9V323.05M1707.89 276.9H1754.05M1707.89 323.05H1754.05M1707.89 323.05V369.2M1707.89 369.2V415.35M1707.89 369.2H1754.05M1707.89 415.35V461.5M1707.89 415.35H1754.05M1707.89 461.5V507.65M1707.89 461.5H1754.05M1707.89 507.65V553.8M1707.89 507.65H1754.05M1707.89 553.8V599.95M1707.89 553.8H1754.05M1707.89 599.95V646.1M1707.89 599.95H1754.05M1707.89 646.1V692.25M1707.89 646.1H1754.05M1707.89 692.25V738.4M1707.89 692.25H1754.05M1707.89 738.4V784.55M1707.89 738.4H1754.05M1707.89 784.55V830.7M1707.89 784.55H1754.05M1707.89 830.7V876.85M1707.89 830.7H1754.05M1707.89 876.85V923M1707.89 876.85H1754.05M1707.89 923H1754.05M1754.05 0V46.15M1754.05 0H1800.2M1754.05 46.15V92.3M1754.05 46.15H1800.2M1754.05 92.3V138.45M1754.05 92.3H1800.2M1754.05 138.45V184.6M1754.05 138.45H1800.2M1754.05 184.6V230.75M1754.05 184.6H1800.2M1754.05 230.75V276.9M1754.05 230.75H1800.2M1754.05 276.9V323.05M1754.05 276.9H1800.2M1754.05 323.05V369.2M1754.05 323.05H1800.2M1754.05 369.2V415.35M1754.05 369.2H1800.2M1754.05 415.35V461.5M1754.05 415.35H1800.2M1754.05 461.5V507.65M1754.05 461.5H1800.2M1754.05 507.65V553.8M1754.05 507.65H1800.2M1754.05 553.8V599.95M1754.05 553.8H1800.2M1754.05 599.95V646.1M1754.05 599.95H1800.2M1754.05 646.1V692.25M1754.05 646.1H1800.2M1754.05 692.25V738.4M1754.05 692.25H1800.2M1754.05 738.4V784.55M1754.05 738.4H1800.2M1754.05 784.55V830.7M1754.05 784.55H1800.2M1754.05 830.7V876.85M1754.05 830.7H1800.2M1754.05 876.85V923M1754.05 876.85H1800.2M1754.05 923H1800.2M1800.2 0V46.15M1800.2 0H1846.36M1800.2 46.15V92.3M1800.2 46.15H1846.36M1800.2 92.3V138.45M1800.2 92.3H1846.36M1800.2 138.45V184.6M1800.2 138.45H1846.36M1800.2 184.6V230.75M1800.2 184.6H1846.36M1800.2 230.75V276.9M1800.2 230.75H1846.36M1800.2 276.9V323.05M1800.2 276.9H1846.36M1800.2 323.05V369.2M1800.2 323.05H1846.36M1800.2 369.2V415.35M1800.2 369.2H1846.36M1800.2 415.35V461.5M1800.2 415.35H1846.36M1800.2 461.5V507.65M1800.2 461.5H1846.36M1800.2 507.65V553.8M1800.2 507.65H1846.36M1800.2 553.8V599.95M1800.2 553.8H1846.36M1800.2 599.95V646.1M1800.2 599.95H1846.36M1800.2 646.1V692.25M1800.2 646.1H1846.36M1800.2 692.25V738.4M1800.2 692.25H1846.36M1800.2 738.4V784.55M1800.2 738.4H1846.36M1800.2 784.55V830.7M1800.2 784.55H1846.36M1800.2 830.7V876.85M1800.2 830.7H1846.36M1800.2 876.85V923M1800.2 876.85H1846.36M1800.2 923H1846.36M1846.36 0V46.15M1846.36 0H1892.52M1846.36 46.15V92.3M1846.36 46.15H1892.52M1846.36 92.3V138.45M1846.36 92.3H1892.52M1846.36 138.45V184.6M1846.36 138.45H1892.52M1846.36 184.6V230.75M1846.36 184.6H1892.52M1846.36 230.75V276.9M1846.36 230.75H1892.52M1846.36 276.9V323.05M1846.36 276.9H1892.52M1846.36 323.05V369.2M1846.36 323.05H1892.52M1846.36 369.2V415.35M1846.36 369.2H1892.52M1846.36 415.35V461.5M1846.36 415.35H1892.52M1846.36 461.5V507.65M1846.36 461.5H1892.52M1846.36 507.65V553.8M1846.36 507.65H1892.52M1846.36 553.8V599.95M1846.36 553.8H1892.52M1846.36 599.95V646.1M1846.36 599.95H1892.52M1846.36 646.1V692.25M1846.36 646.1H1892.52M1846.36 692.25V738.4M1846.36 692.25H1892.52M1846.36 738.4V784.55M1846.36 738.4H1892.52M1846.36 784.55V830.7M1846.36 784.55H1892.52M1846.36 830.7V876.85M1846.36 830.7H1892.52M1846.36 876.85V923M1846.36 876.85H1892.52M1846.36 923H1892.52M1892.52 0V46.15M1892.52 0H1938.68M1892.52 46.15V92.3M1892.52 46.15H1938.68M1892.52 92.3V138.45M1892.52 92.3H1938.68M1892.52 138.45V184.6M1892.52 138.45H1938.68M1892.52 184.6V230.75M1892.52 184.6H1938.68M1892.52 230.75V276.9M1892.52 230.75H1938.68M1892.52 276.9V323.05M1892.52 276.9H1938.68M1892.52 323.05V369.2M1892.52 323.05H1938.68M1892.52 369.2V415.35M1892.52 369.2H1938.68M1892.52 415.35V461.5M1892.52 415.35H1938.68M1892.52 461.5V507.65M1892.52 461.5H1938.68M1892.52 507.65V553.8M1892.52 507.65H1938.68M1892.52 553.8V599.95M1892.52 553.8H1938.68M1892.52 599.95V646.1M1892.52 599.95H1938.68M1892.52 646.1V692.25M1892.52 646.1H1938.68M1892.52 692.25V738.4M1892.52 692.25H1938.68M1892.52 738.4V784.55M1892.52 738.4H1938.68M1892.52 784.55V830.7M1892.52 784.55H1938.68M1892.52 830.7V876.85M1892.52 830.7H1938.68M1892.52 876.85V923M1892.52 876.85H1938.68M1892.52 923H1938.68M1938.68 0V46.15M1938.68 0H1984.84M1938.68 46.15V92.3M1938.68 46.15H1984.84M1938.68 92.3V138.45M1938.68 92.3H1984.84M1938.68 138.45V184.6M1938.68 138.45H1984.84M1938.68 184.6V230.75M1938.68 184.6H1984.84M1938.68 230.75V276.9M1938.68 230.75H1984.84M1938.68 276.9V323.05M1938.68 276.9H1984.84M1938.68 323.05V369.2M1938.68 323.05H1984.84M1938.68 369.2V415.35M1938.68 369.2H1984.84M1938.68 415.35V461.5M1938.68 415.35H1984.84M1938.68 461.5V507.65M1938.68 461.5H1984.84M1938.68 507.65V553.8M1938.68 507.65H1984.84M1938.68 553.8V599.95M1938.68 553.8H1984.84M1938.68 599.95V646.1M1938.68 599.95H1984.84M1938.68 646.1V692.25M1938.68 646.1H1984.84M1938.68 692.25V738.4M1938.68 692.25H1984.84M1938.68 738.4V784.55M1938.68 738.4H1984.84M1938.68 784.55V830.7M1938.68 784.55H1984.84M1938.68 830.7V876.85M1938.68 830.7H1984.84M1938.68 876.85V923M1938.68 876.85H1984.84M1938.68 923H1984.84M1984.84 0V46.15M1984.84 0H2016C2024.28 0 2031 6.71573 2031 15V46.15M1984.84 46.15V92.3M1984.84 46.15H2031M1984.84 92.3V138.45M1984.84 92.3H2031M1984.84 138.45V184.6M1984.84 138.45H2031M1984.84 184.6V230.75M1984.84 184.6H2031M1984.84 230.75V276.9M1984.84 230.75H2031M1984.84 276.9V323.05M1984.84 276.9H2031M1984.84 323.05V369.2M1984.84 323.05H2031M1984.84 369.2V415.35M1984.84 369.2H2031M1984.84 415.35V461.5M1984.84 415.35H2031M1984.84 461.5V507.65M1984.84 461.5H2031M1984.84 507.65V553.8M1984.84 507.65H2031M1984.84 553.8V599.95M1984.84 553.8H2031M1984.84 599.95V646.1M1984.84 599.95H2031M1984.84 646.1V692.25M1984.84 646.1H2031M1984.84 692.25V738.4M1984.84 692.25H2031M1984.84 738.4V784.55M1984.84 738.4H2031M1984.84 784.55V830.7M1984.84 784.55H2031M1984.84 830.7V876.85M1984.84 830.7H2031M1984.84 876.85V923M1984.84 876.85H2031M1984.84 923H2016C2024.28 923 2031 916.284 2031 908V876.85M2031 46.15V92.3M2031 92.3V138.45M2031 138.45V184.6M2031 184.6V230.75M2031 230.75V276.9M2031 276.9V323.05M2031 323.05V369.2M2031 369.2V415.35M2031 415.35V461.5M2031 461.5V507.65M2031 507.65V553.8M2031 553.8V599.95M2031 599.95V646.1M2031 646.1V692.25M2031 692.25V738.4M2031 738.4V784.55M2031 784.55V830.7M2031 830.7V876.85M553.909 184.6V230.75M553.909 184.6H600.068M553.909 230.75H600.068M600.068 230.75V184.6M600.068 230.75H646.227M600.068 184.6H646.227M646.227 230.75H692.386M646.227 230.75V184.6M692.386 276.9V230.75M692.386 276.9V323.05M692.386 276.9H738.545M692.386 230.75V184.6M692.386 230.75H738.545M692.386 184.6H646.227M692.386 184.6H738.545M738.545 230.75V184.6M738.545 230.75H784.705M738.545 230.75V276.9M738.545 184.6H784.705M784.705 230.75V184.6M784.705 230.75V276.9M784.705 230.75H830.864M784.705 184.6H830.864M923.182 184.6H969.341M923.182 184.6V230.75M923.182 184.6H877.023M969.341 184.6V230.75M969.341 184.6H1015.5M1107.82 184.6H1153.98M1107.82 184.6V230.75M1107.82 184.6H1061.66M1153.98 184.6V230.75M1153.98 184.6H1200.14M692.386 323.05H738.545M738.545 276.9V323.05M738.545 276.9H784.705M738.545 323.05H784.705M784.705 323.05V276.9M784.705 323.05H830.864M784.705 276.9H830.864M830.864 276.9V230.75M830.864 276.9V323.05M830.864 276.9H877.023M830.864 230.75H877.023M830.864 230.75V184.6M830.864 323.05H877.023M877.023 323.05V276.9M877.023 323.05H923.182M877.023 276.9V230.75M877.023 276.9H923.182M877.023 230.75H923.182M877.023 230.75V184.6M923.182 276.9V230.75M923.182 276.9V323.05M923.182 276.9H969.341M923.182 230.75H969.341M923.182 323.05H969.341M969.341 323.05V276.9M969.341 323.05H1015.5M969.341 276.9V230.75M969.341 276.9H1015.5M969.341 230.75H1015.5M1015.5 276.9V230.75M1015.5 276.9V323.05M1015.5 276.9H1061.66M1015.5 230.75H1061.66M1015.5 230.75V184.6M1015.5 323.05H1061.66M1061.66 323.05V276.9M1061.66 323.05H1107.82M1061.66 276.9V230.75M1061.66 276.9H1107.82M1061.66 230.75H1107.82M1061.66 230.75V184.6M1107.82 276.9V230.75M1107.82 276.9V323.05M1107.82 276.9H1153.98M1107.82 230.75H1153.98M1107.82 323.05H1153.98M1153.98 323.05V276.9M1153.98 323.05H1200.14M1153.98 276.9V230.75M1153.98 276.9H1200.14M1153.98 230.75H1200.14M1200.14 323.05V276.9M1200.14 323.05H1246.3M1200.14 276.9H1246.3M1200.14 276.9V230.75M1246.3 323.05V276.9M1246.3 323.05H1292.45M1246.3 276.9V230.75M1246.3 276.9H1292.45M1246.3 230.75H1200.14M1246.3 230.75H1292.45M1246.3 230.75V184.6M1200.14 230.75V184.6M1292.45 323.05V276.9M1292.45 323.05H1338.61M1292.45 276.9H1338.61M1292.45 276.9V230.75M1338.61 323.05V276.9M1338.61 276.9V230.75M1338.61 230.75H1292.45M1338.61 230.75V184.6M1338.61 230.75H1384.77M1292.45 230.75V184.6M1338.61 184.6H1292.45M1338.61 184.6H1384.77M1292.45 184.6H1246.3M1246.3 184.6H1200.14M1061.66 184.6H1015.5M877.023 184.6H830.864M1384.77 230.75H1430.93M1384.77 230.75V184.6M1430.93 230.75H1477.09M1430.93 230.75V184.6M1477.09 230.75V184.6M1384.77 184.6H1430.93M1430.93 184.6H1477.09" stroke="url(#paint0_linear_23_98)" stroke-width="1.61"/>
<defs>
<linearGradient id="paint0_linear_23_98" x1="1058.5" y1="226" x2="1015.5" y2="1149.71" gradientUnits="userSpaceOnUse">
<stop stop-opacity="0.05"/>
<stop offset="0.144" stop-opacity="0"/>
</linearGradient>
</defs>
</svg>
